<svg width="126" height="30" viewBox="0 0 126 30" fill="none" xmlns="http://www.w3.org/2000/svg">
<g clip-path="url(#clip0_128_3264)">
<g clip-path="url(#clip1_128_3264)">
<g clip-path="url(#clip2_128_3264)">
<mask id="mask0_128_3264" style="mask-type:luminance" maskUnits="userSpaceOnUse" x="-1" y="0" width="128" height="30">
<path d="M-0.375 0H126.375V30H-0.375V0Z" fill="white"/>
</mask>
<g mask="url(#mask0_128_3264)">
<path fill-rule="evenodd" clip-rule="evenodd" d="M7.136 1.875V30H-0.375V1.875H7.136ZM10.892 1.875H26.852C32.038 1.875 36.242 6.072 36.242 11.25C36.242 16.428 32.038 20.625 26.852 20.625H18.402V30H10.892V1.875ZM18.402 13.125H26.852C27.3493 13.1251 27.8262 12.9277 28.178 12.5762C28.5297 12.2246 28.7274 11.7478 28.7275 11.2505C28.7276 10.7532 28.5302 10.2763 28.1787 9.92453C27.8271 9.5728 27.3503 9.37513 26.853 9.375H18.403L18.402 13.125ZM64.408 1.875V16.406C64.4085 17.2069 64.5668 17.9998 64.8738 18.7395C65.1808 19.4792 65.6305 20.1512 66.1972 20.7171C66.764 21.283 67.4366 21.7317 68.1768 22.0376C68.9169 22.3435 69.7101 22.5007 70.511 22.5C71.3119 22.5007 72.1051 22.3435 72.8452 22.0376C73.5854 21.7317 74.258 21.283 74.8248 20.7171C75.3915 20.1512 75.8412 19.4792 76.1482 18.7395C76.4552 17.9998 76.6135 17.2069 76.614 16.406V1.875H84.125V16.406C84.125 23.914 78.03 30 70.511 30C62.992 30 56.897 23.914 56.897 16.406V1.875H64.408Z" fill="#555555"/>
<path fill-rule="evenodd" clip-rule="evenodd" d="M39.0589 15C39.0589 7.751 44.9429 1.875 52.2029 1.875H54.0809V9.375H52.2029C50.7101 9.3742 49.278 9.96633 48.2217 11.0212C47.1654 12.076 46.5712 13.5072 46.5699 15V15.938C46.5699 23.703 40.2639 30 32.4859 30H31.5469V22.5H32.4869C34.2286 22.5011 35.8995 21.8102 37.132 20.5795C38.3644 19.3487 39.0575 17.6788 39.0589 15.937V15Z" fill="#555555"/>
<path d="M126.375 2.813C126.374 3.55941 126.077 4.27495 125.549 4.80227C125.02 5.3296 124.304 5.62553 123.558 5.625C123.188 5.62526 122.822 5.5527 122.481 5.41147C122.139 5.27023 121.829 5.06308 121.567 4.80186C121.306 4.54064 121.098 4.23045 120.956 3.88903C120.815 3.5476 120.742 3.18162 120.742 2.812C120.742 2.44246 120.815 2.07659 120.957 1.73528C121.098 1.39397 121.306 1.08391 121.567 0.822788C121.829 0.561669 122.139 0.354612 122.481 0.213438C122.822 0.0722641 123.188 -0.000262026 123.558 7.11302e-07C123.927 -0.000262026 124.294 0.07229 124.635 0.213514C124.977 0.354739 125.287 0.56187 125.549 0.823081C125.81 1.08429 126.018 1.39447 126.16 1.7359C126.301 2.07733 126.375 2.44333 126.375 2.813ZM92.1898 30L95.7738 15.014L98.4388 24.029C100.028 29.407 107.656 29.407 109.245 24.029L111.909 15.014L115.493 30H123.215L117.58 6.435C116.24 0.83 108.331 0.623001 106.697 6.149L103.842 15.812L100.986 6.149C99.3528 0.623001 91.4438 0.83 90.1028 6.435L84.4678 30H92.1898Z" fill="#555555"/>
</g>
</g>
</g>
</g>
<defs>
<clipPath id="clip0_128_3264">
<rect width="126" height="30" fill="white"/>
</clipPath>
<clipPath id="clip1_128_3264">
<rect width="126" height="30" fill="white"/>
</clipPath>
<clipPath id="clip2_128_3264">
<rect width="127" height="30" fill="white" transform="translate(-0.5)"/>
</clipPath>
</defs>
</svg>
