<svg width="119" height="30" viewBox="0 0 119 30" fill="none" xmlns="http://www.w3.org/2000/svg">
<g clip-path="url(#clip0_128_3275)">
<g clip-path="url(#clip1_128_3275)">
<path d="M2.93994 27.8251H28.5899V2.17505H2.93994V27.8251ZM23.6539 12.532H18.2339V7.11205H23.6539V12.532ZM7.87694 7.11205H13.2999V17.468H23.6539V22.8881H7.87694V7.11205ZM45.2939 2.17505C42.7574 2.17505 40.2778 2.92722 38.1688 4.33645C36.0597 5.74568 34.4159 7.74867 33.4452 10.0921C32.4745 12.4356 32.2205 15.0143 32.7154 17.5021C33.2102 19.9899 34.4317 22.2751 36.2253 24.0687C38.0189 25.8623 40.3041 27.0838 42.7919 27.5786C45.2797 28.0735 47.8584 27.8195 50.2019 26.8488C52.5453 25.8781 54.5483 24.2343 55.9575 22.1252C57.3668 20.0162 58.1189 17.5366 58.1189 15C58.115 11.5999 56.7625 8.34008 54.3582 5.93579C51.9539 3.53149 48.6941 2.17902 45.2939 2.17505ZM45.2939 22.8881C43.7338 22.8881 42.2088 22.4254 40.9116 21.5587C39.6144 20.6919 38.6034 19.46 38.0064 18.0187C37.4094 16.5773 37.2532 14.9913 37.5575 13.4612C37.8619 11.9311 38.6131 10.5255 39.7163 9.42239C40.8194 8.31923 42.2249 7.56798 43.7551 7.26361C45.2852 6.95925 46.8712 7.11546 48.3125 7.71249C49.7539 8.30951 50.9858 9.32054 51.8526 10.6177C52.7193 11.9149 53.1819 13.4399 53.1819 15C53.1788 17.0911 52.3467 19.0956 50.8681 20.5742C49.3895 22.0528 47.385 22.8849 45.2939 22.8881ZM104.013 2.17505C101.476 2.17485 98.9967 2.92686 96.8875 4.33596C94.7783 5.74507 93.1343 7.748 92.1635 10.0914C91.1926 12.4349 90.9385 15.0136 91.4332 17.5015C91.928 19.9893 93.1494 22.2746 94.9429 24.0683C96.7365 25.862 99.0217 27.0836 101.51 27.5785C103.997 28.0735 106.576 27.8196 108.92 26.8489C111.263 25.8782 113.266 24.2344 114.675 22.1253C116.085 20.0163 116.837 17.5366 116.837 15C116.833 11.6 115.481 8.34041 113.077 5.93614C110.672 3.53188 107.413 2.17928 104.013 2.17505ZM104.013 22.8881C102.847 22.8879 101.695 22.6292 100.641 22.1305C99.5863 21.6319 98.6557 20.9057 97.9157 20.0043C97.1757 19.1029 96.6447 18.0486 96.361 16.9173C96.0773 15.7861 96.0479 14.606 96.2749 13.462C96.6585 11.5429 97.7417 9.83485 99.3142 8.66968C100.887 7.50451 102.836 6.96542 104.784 7.15714C106.731 7.34885 108.538 8.25768 109.853 9.70708C111.169 11.1565 111.898 13.043 111.9 15C111.898 17.0912 111.066 19.096 109.587 20.5747C108.109 22.0535 106.104 22.8854 104.013 22.8881ZM74.6529 2.17505C72.1164 2.17505 69.6368 2.92722 67.5277 4.33645C65.4187 5.74568 63.7749 7.74867 62.8042 10.0921C61.8335 12.4356 61.5795 15.0143 62.0744 17.5021C62.5692 19.9899 63.7907 22.2751 65.5843 24.0687C67.3779 25.8623 69.6631 27.0838 72.1509 27.5786C74.6387 28.0735 77.2174 27.8195 79.5609 26.8488C81.9043 25.8781 83.9073 24.2343 85.3165 22.1252C86.7258 20.0162 87.4779 17.5366 87.4779 15C87.474 11.5999 86.1215 8.34008 83.7172 5.93579C81.3129 3.53149 78.0531 2.17902 74.6529 2.17505ZM74.6529 22.8881C73.1997 22.8885 71.7746 22.4875 70.5349 21.7292C69.2952 20.9709 68.2891 19.8848 67.6277 18.5908C66.9662 17.2969 66.6752 15.8453 66.7866 14.3964C66.898 12.9474 67.4076 11.5574 68.2591 10.3798C69.1106 9.20214 70.2709 8.28266 71.6119 7.72281C72.953 7.16296 74.4227 6.98452 75.8587 7.20717C77.2948 7.42982 78.6414 8.04491 79.75 8.98456C80.8586 9.9242 81.686 11.1519 82.1409 12.532H74.6529V17.468H82.1409C81.6201 19.0434 80.6165 20.4147 79.2724 21.3876C77.9284 22.3604 76.3121 22.8854 74.6529 22.8881Z" fill="#555555"/>
</g>
</g>
<defs>
<clipPath id="clip0_128_3275">
<rect width="119" height="30" fill="white"/>
</clipPath>
<clipPath id="clip1_128_3275">
<rect width="119" height="30" fill="white"/>
</clipPath>
</defs>
</svg>
