<svg width="181" height="40" viewBox="0 0 181 40" fill="none" xmlns="http://www.w3.org/2000/svg">
<g clip-path="url(#clip0_128_3280)">
<g clip-path="url(#clip1_128_3280)">
<g clip-path="url(#clip2_128_3280)">
<mask id="mask0_128_3280" style="mask-type:luminance" maskUnits="userSpaceOnUse" x="0" y="0" width="181" height="40">
<path d="M0 0H181V40H0V0Z" fill="white"/>
</mask>
<g mask="url(#mask0_128_3280)">
<path fill-rule="evenodd" clip-rule="evenodd" d="M57.3662 2.66201C57.3662 1.30701 58.4762 0.208009 59.8472 0.208009H64.1692C65.1452 0.208009 66.0902 0.542009 66.8442 1.15401L68.1602 2.22001L68.1932 2.25001L68.2842 2.22001C70.6572 1.46901 73.5342 1.32601 76.4722 1.32601C79.4102 1.32601 82.2882 1.46901 84.6612 2.22001L84.7512 2.25001L84.7852 2.22001L86.0992 1.15401C86.856 0.541267 87.8004 0.207276 88.7742 0.208009H93.0972C94.4672 0.208009 95.5782 1.30701 95.5782 2.66201V4.18001C95.5782 5.35401 95.0782 6.47401 94.2012 7.26501L93.1412 8.22101C92.6218 8.68836 92.0002 9.02774 91.3262 9.21201L91.0752 9.28201C92.0582 11.601 92.6012 14.081 92.6012 16.087C92.6012 24.157 87.5532 27.642 83.1052 30.713C79.6032 33.131 76.4722 35.293 76.4722 39.233C76.4722 35.293 73.3422 33.131 69.8392 30.713C65.3922 27.642 60.3442 24.157 60.3442 16.087C60.3442 14.081 60.8872 11.601 61.8702 9.28101L61.6202 9.21201C60.9462 9.02774 60.3246 8.68836 59.8052 8.22101L58.7442 7.26501C58.3113 6.87602 57.965 6.40036 57.7278 5.86889C57.4905 5.33742 57.3677 4.76202 57.3672 4.18001L57.3662 2.66201ZM79.6972 22.683C79.6972 23.069 79.5272 23.438 79.2252 23.711C78.9105 23.9883 78.5047 24.14 78.0852 24.137C77.7152 24.137 77.3592 24.023 77.0742 23.816C77.5592 25.101 78.8012 26.318 80.6892 24.36C82.3572 22.541 80.6152 18.704 78.9192 16.427C78.3532 15.668 77.4252 15.303 76.4712 15.303C75.5182 15.303 74.5902 15.668 74.0242 16.427C72.3272 18.704 70.5862 22.541 72.2542 24.36C74.1422 26.318 75.3842 25.1 75.8692 23.816C75.5842 24.023 75.2282 24.136 74.8592 24.136C74.4312 24.136 74.0212 23.984 73.7192 23.711C73.5724 23.5826 73.4544 23.4247 73.3729 23.2475C73.2914 23.0704 73.2482 22.878 73.2462 22.683H79.6972ZM70.2952 11.325H65.8022L69.3432 14.13C70.1232 14.747 71.2612 14.55 71.7432 13.714C72.3532 12.659 71.5432 11.325 70.2952 11.325ZM82.6482 11.325H87.1412L83.6002 14.13C82.8202 14.747 81.6822 14.55 81.2002 13.714C80.5902 12.659 81.4002 11.325 82.6482 11.325Z" fill="#555555"/>
<path d="M100.929 27.8501H104.91V12.8351H100.929V27.8501ZM100.929 10.4941H104.91V6.9241H100.929V10.4941ZM107.475 32.7671H111.455V26.1531H111.514C112.363 27.4401 113.738 28.2891 115.845 28.2891C119.709 28.2891 122.343 25.2161 122.343 20.3581C122.343 15.6751 119.797 12.4261 115.816 12.4261C113.767 12.4261 112.363 13.3921 111.397 14.7091H111.309V12.8361H107.475V32.7671ZM114.997 24.9821C112.626 24.9821 111.367 23.1971 111.367 20.4751C111.367 17.7821 112.363 15.6451 114.85 15.6451C117.309 15.6451 118.304 17.6351 118.304 20.4751C118.304 23.3141 117.016 24.9821 114.997 24.9821ZM130.284 28.2901C134.03 28.2901 136.605 26.4751 136.605 23.4601C136.605 19.9481 133.825 19.2451 131.308 18.7181C129.171 18.2791 127.181 18.1621 127.181 16.8751C127.181 15.7921 128.206 15.2061 129.757 15.2061C131.454 15.2061 132.479 15.7921 132.654 17.4011H136.254C135.962 14.3871 133.766 12.4261 129.815 12.4261C126.391 12.4261 123.698 13.9771 123.698 17.2261C123.698 20.5041 126.332 21.2361 129.025 21.7621C131.074 22.1721 132.976 22.3181 132.976 23.7521C132.976 24.8061 131.981 25.4791 130.225 25.4791C128.44 25.4791 127.21 24.7191 126.947 22.9921H123.259C123.493 26.1821 125.923 28.2891 130.284 28.2891V28.2901ZM151.719 27.8501V12.8351H147.738V21.5001C147.738 23.4901 146.597 24.8951 144.724 24.8951C143.026 24.8951 142.236 23.9291 142.236 22.1731V12.8361H138.285V22.8461C138.285 26.1241 140.158 28.2611 143.494 28.2611C145.602 28.2611 146.772 27.4711 147.797 26.0951H147.885V27.8511L151.719 27.8501ZM154.293 27.8501H158.274V19.1281C158.274 17.1381 159.357 15.8501 160.967 15.8501C162.43 15.8501 163.279 16.7281 163.279 18.4261V27.8501H167.259V19.1281C167.259 17.1381 168.284 15.8501 169.952 15.8501C171.415 15.8501 172.264 16.7281 172.264 18.4261V27.8501H176.245V17.7531C176.245 14.4751 174.459 12.4261 171.298 12.4261C169.396 12.4261 167.815 13.4211 166.791 15.0601H166.732C166.001 13.4801 164.479 12.4261 162.576 12.4261C160.498 12.4261 159.035 13.4791 158.215 14.8551H158.127V12.8351H154.293V27.8501ZM0.436035 27.8501H4.41604V6.9231H0.436035V27.8501ZM14.15 28.2901C18.803 28.2901 21.993 24.8361 21.993 20.3581C21.993 15.8791 18.803 12.4261 14.149 12.4261C9.49504 12.4261 6.30504 15.8791 6.30504 20.3581C6.30504 24.8351 9.49504 28.2891 14.149 28.2891L14.15 28.2901ZM14.15 25.2451C11.69 25.2451 10.344 23.2851 10.344 20.3581C10.344 17.4311 11.691 15.4401 14.149 15.4401C16.579 15.4401 17.954 17.4301 17.954 20.3581C17.954 23.2841 16.579 25.2451 14.15 25.2451ZM30.458 32.9721C32.682 32.9721 34.614 32.4451 35.873 31.2751C36.985 30.2501 37.658 28.8161 37.658 26.7091V12.8361H33.824V14.4161H33.765C32.858 13.1581 31.482 12.4261 29.609 12.4261C25.804 12.4261 23.112 15.2941 23.112 19.7721C23.112 24.3091 26.39 26.9421 29.726 26.9421C31.629 26.9421 32.77 26.1821 33.648 25.1871H33.736V26.8261C33.736 28.8751 32.653 29.9571 30.4 29.9571C28.556 29.9571 27.707 29.2261 27.385 28.2891H23.434C23.844 31.2161 26.36 32.9721 30.458 32.9721ZM30.4 23.7521C28.35 23.7521 27.004 22.2601 27.004 19.7141C27.004 17.1971 28.351 15.6161 30.37 15.6161C32.77 15.6161 33.941 17.4891 33.941 19.6841C33.941 21.9091 32.917 23.7531 30.399 23.7531L30.4 23.7521ZM47.333 28.2901C51.987 28.2901 55.177 24.8361 55.177 20.3581C55.177 15.8791 51.987 12.4261 47.333 12.4261C42.679 12.4261 39.489 15.8791 39.489 20.3581C39.489 24.8351 42.679 28.2891 47.333 28.2891V28.2901ZM47.333 25.2451C44.875 25.2451 43.528 23.2851 43.528 20.3581C43.528 17.4311 44.875 15.4401 47.333 15.4401C49.763 15.4401 51.138 17.4301 51.138 20.3581C51.138 23.2841 49.762 25.2451 47.333 25.2451ZM176.065 9.5571C176.065 8.8841 176.61 8.3371 177.284 8.3371H179.723C180.047 8.3371 180.357 8.46563 180.586 8.69443C180.814 8.92322 180.943 9.23353 180.943 9.5571C180.943 9.88066 180.814 10.191 180.586 10.4198C180.357 10.6486 180.047 10.7771 179.723 10.7771H177.284C177.124 10.7771 176.965 10.7455 176.817 10.6842C176.669 10.6229 176.535 10.533 176.422 10.4197C176.309 10.3064 176.219 10.1719 176.158 10.0239C176.096 9.87588 176.065 9.71726 176.065 9.5571Z" fill="#555555"/>
</g>
</g>
</g>
</g>
<defs>
<clipPath id="clip0_128_3280">
<rect width="181" height="40" fill="white"/>
</clipPath>
<clipPath id="clip1_128_3280">
<rect width="181" height="40" fill="white"/>
</clipPath>
<clipPath id="clip2_128_3280">
<rect width="181" height="40" fill="white"/>
</clipPath>
</defs>
</svg>
