<svg width="140" height="40" viewBox="0 0 140 40" fill="none" xmlns="http://www.w3.org/2000/svg">
<g clip-path="url(#clip0_128_3300)">
<g clip-path="url(#clip1_128_3300)">
<path d="M46.7629 25.4549V9.89795H44.2119V25.4549H46.7629ZM48.3239 20.2699C48.3239 23.4469 50.4569 25.7059 53.6979 25.7059C56.9379 25.7059 59.0709 23.4469 59.0709 20.2689C59.0709 17.0909 56.9379 14.8329 53.6979 14.8329C50.4569 14.8329 48.3239 17.0909 48.3239 20.2689V20.2699ZM50.8959 20.2699C50.8959 18.4079 52.0039 17.1119 53.6979 17.1119C55.3909 17.1119 56.4989 18.4079 56.4989 20.2689C56.4989 22.1089 55.3909 23.426 53.6979 23.426C52.0039 23.426 50.8959 22.1089 50.8959 20.2689V20.2699ZM59.9299 20.0599C59.9299 23.0709 61.8739 25.2459 64.7799 25.2459C66.2859 25.2459 67.5819 24.6389 68.2299 23.6359V25.3919C68.2299 27.0859 67.1639 28.215 65.3859 28.215C63.7969 28.215 62.7099 27.441 62.5639 26.082H59.9919C60.3269 28.779 62.3969 30.5359 65.2399 30.5359C68.5859 30.5359 70.7179 28.3399 70.7179 24.9319V15.1259H68.4599L68.3139 16.5259C67.6869 15.4389 66.3899 14.7909 64.8639 14.7909C61.9159 14.7909 59.9289 17.028 59.9289 20.061L59.9299 20.0599ZM62.5219 19.9969C62.5219 18.2829 63.6089 17.0279 65.2189 17.0279C66.9759 17.0279 68.1469 18.3039 68.1469 19.9979C68.1469 21.7119 66.9759 23.0289 65.2189 23.0289C63.6299 23.0289 62.5219 21.7329 62.5219 19.9969ZM71.9799 20.2699C71.9799 23.4469 74.1129 25.7059 77.3539 25.7059C80.5949 25.7059 82.7279 23.4469 82.7279 20.2689C82.7279 17.0909 80.5949 14.8329 77.3539 14.8329C74.1139 14.8329 71.9809 17.0909 71.9809 20.2689L71.9799 20.2699ZM74.5519 20.2699C74.5519 18.4079 75.6609 17.1119 77.3539 17.1119C79.0479 17.1119 80.1559 18.4079 80.1559 20.2689C80.1559 22.1089 79.0479 23.426 77.3539 23.426C75.6609 23.426 74.5519 22.1089 74.5519 20.2689V20.2699ZM85.4889 13.0139C86.3249 13.0139 87.0149 12.3439 87.0149 11.4869C87.0149 10.6509 86.3249 9.98195 85.4889 9.98195C84.6309 9.98195 83.9829 10.6509 83.9829 11.4869C83.9829 12.3449 84.6309 13.0139 85.4889 13.0139ZM84.2129 25.4539H86.7639V15.1269H84.2139V25.4559L84.2129 25.4539ZM88.9989 30.243H91.4869V24.033C92.1359 25.099 93.5369 25.7259 95.0839 25.7259C98.1359 25.7259 99.9559 23.385 99.9139 20.165C99.8509 16.924 97.9899 14.8119 95.0629 14.8119C93.4949 14.8119 92.0729 15.5019 91.4459 16.6939L91.2989 15.1249H88.9989V30.243ZM91.5919 20.29C91.5919 18.429 92.7209 17.1329 94.4979 17.1329C96.2759 17.1329 97.3419 18.45 97.3419 20.29C97.3419 22.13 96.2759 23.426 94.4979 23.426C92.7209 23.426 91.5919 22.151 91.5919 20.29ZM100.561 22.36C100.644 24.4089 102.234 25.7259 104.701 25.7259C107.126 25.7259 108.778 24.4299 108.778 22.4229C108.778 20.938 107.858 19.9349 106.164 19.516L104.345 19.0769C103.572 18.8679 103.049 18.5969 103.049 17.9269C103.049 17.2169 103.614 16.7149 104.534 16.7149C105.495 16.7149 106.123 17.2579 106.123 18.1569H108.444C108.36 16.1079 106.834 14.8119 104.596 14.8119C102.38 14.8119 100.728 16.1079 100.728 18.0739C100.728 19.4119 101.502 20.5199 103.488 21.0429L105.286 21.5029C105.955 21.6909 106.374 22.0049 106.374 22.5899C106.374 23.4049 105.6 23.7819 104.659 23.7819C103.53 23.7819 102.882 23.259 102.882 22.36H100.561ZM114.07 25.7259C115.471 25.7259 116.809 25.0779 117.415 24.1159L117.583 25.4549H119.966V15.1249H117.415V20.5409C117.415 22.4009 116.704 23.4469 115.032 23.4469C113.735 23.4469 112.836 22.82 112.836 20.6869V15.1249H110.285V21.5859C110.285 24.0539 111.624 25.7259 114.07 25.7259ZM124.768 25.4539V19.516C124.768 17.844 125.751 17.0489 126.964 17.0489C128.176 17.0489 128.971 17.8229 128.971 19.2859V25.4539H131.459V19.537C131.459 17.844 132.421 17.0489 133.634 17.0489C134.867 17.0489 135.662 17.8229 135.662 19.2859V25.4539H138.129V18.7009C138.129 16.3169 136.812 14.8109 134.303 14.8109C132.735 14.8109 131.501 15.5649 130.999 16.7769C130.435 15.5639 129.305 14.8119 127.591 14.8119C126.378 14.8119 125.291 15.3759 124.685 16.2959L124.559 15.1259H122.217V25.4549L124.768 25.4539ZM118.653 34.685C119.033 34.685 119.363 34.365 119.363 33.985C119.36 33.7975 119.285 33.6184 119.152 33.4858C119.02 33.3532 118.84 33.2775 118.653 33.275C118.263 33.275 117.933 33.595 117.933 33.985C117.933 34.365 118.263 34.685 118.653 34.685ZM120.096 32.1049C120.096 33.635 121.036 34.665 122.406 34.665C123.586 34.665 124.486 33.955 124.676 32.895H123.776C123.606 33.485 123.086 33.8349 122.466 33.8349C121.586 33.8349 121.026 33.155 121.026 32.095C121.026 31.015 121.616 30.3549 122.486 30.3549C123.086 30.3549 123.606 30.675 123.766 31.305H124.666C124.506 30.235 123.666 29.5149 122.496 29.5149C121.076 29.5149 120.096 30.5649 120.096 32.1049ZM125.031 32.095C125.031 33.565 126.031 34.665 127.531 34.665C129.031 34.665 130.031 33.565 130.031 32.095C130.031 30.625 129.031 29.5249 127.531 29.5249C126.031 29.5249 125.031 30.625 125.031 32.095ZM125.981 32.095C125.981 31.095 126.591 30.3649 127.531 30.3649C128.471 30.3649 129.081 31.095 129.081 32.095C129.081 33.095 128.471 33.825 127.531 33.825C126.591 33.825 125.981 33.095 125.981 32.095ZM131.774 34.555V31.6149C131.774 30.8449 132.254 30.3449 132.954 30.3449C133.624 30.3449 134.044 30.7749 134.044 31.5449V34.555H134.964V31.625C134.964 30.8449 135.434 30.3449 136.144 30.3449C136.804 30.3449 137.224 30.7749 137.224 31.5449V34.555H138.134V31.3449C138.134 30.2149 137.474 29.5249 136.354 29.5249C135.594 29.5249 135.004 29.8949 134.764 30.4949C134.514 29.8949 133.964 29.5249 133.164 29.5249C132.554 29.5249 132.014 29.805 131.744 30.285L131.674 29.665H130.834V34.555H131.774Z" fill="#555555"/>
<path fill-rule="evenodd" clip-rule="evenodd" d="M1.81787 20.3961L1.81987 20.2131L1.82287 20.0311L1.82887 19.8491L1.83587 19.6671L1.84587 19.4841L1.85587 19.3021L1.86987 19.1201L1.88387 18.9381L1.90087 18.7561L1.91987 18.5741L1.93987 18.3921L1.96287 18.2101L1.98687 18.0281L2.01287 17.8471L2.04087 17.6661L2.07087 17.4851L2.10187 17.3041L2.13587 17.1241L2.17087 16.9431L2.20887 16.7631L2.24787 16.5831L2.28787 16.4031L2.33187 16.2241L2.37587 16.0461L2.42287 15.8671L2.47087 15.6891L2.52087 15.5111L2.57387 15.3341L2.62787 15.1581L2.68287 14.9811L2.74087 14.8051L2.80087 14.6301L2.86087 14.4551L2.92487 14.2811L2.98987 14.1071L3.05587 13.9341L3.12487 13.7621L3.19487 13.5891L3.26687 13.4191L3.34087 13.2481L3.41687 13.0781L3.49387 12.9081L3.57387 12.7391L3.65387 12.5711L3.73687 12.4041L3.82087 12.2381L3.90687 12.0721L3.99487 11.9071L4.08487 11.7431L4.17587 11.5791L4.26887 11.4171L4.36387 11.2551L4.46087 11.0951L4.55887 10.9351L4.65887 10.7751L4.75887 10.6171L4.86287 10.4601L4.96787 10.3041L5.07387 10.1491L5.18187 9.99509L5.29187 9.84109L5.40287 9.68909L5.51587 9.53809L5.63087 9.38809L5.74687 9.23809L5.86387 9.09109L5.98387 8.94409L6.10387 8.79809L6.22687 8.65309L6.35087 8.51009L6.47587 8.36709L6.60287 8.22709L6.73087 8.08709L6.86087 7.94709L6.99187 7.81009L7.12487 7.67309L7.25887 7.53809L7.39487 7.40509L7.53187 7.27209L7.66987 7.14109L7.80987 7.01109L7.95187 6.88209L8.09387 6.75509L8.23787 6.62909L8.38387 6.50409L8.52987 6.38109L8.67787 6.25909L8.82787 6.13909L8.97787 6.01909L9.12987 5.90209L9.28287 5.78609L9.43787 5.67209L9.59287 5.55809L9.74987 5.44709L9.90787 5.33709L10.0679 5.22709L10.2279 5.12109L10.3889 5.01509L10.5519 4.91109L10.7159 4.80809L10.8809 4.70809L11.0469 4.60809L11.2139 4.51009L11.3819 4.41409L11.5519 4.31909L11.7219 4.22609L11.8929 4.13509L12.0649 4.04509L12.2389 3.95709L12.4129 3.87109L12.5879 3.78609L12.7639 3.70309L12.9409 3.62209L13.1189 3.54209L13.2979 3.46409L13.4779 3.38809L13.6579 3.31409L13.8399 3.24109L14.0219 3.17009L14.2049 3.10009L14.3889 3.03309L14.5729 2.96809L14.7579 2.90409L14.9439 2.84209L15.1309 2.78209L15.3179 2.72309L15.5059 2.66609L15.6959 2.61209L15.8839 2.55909L16.0739 2.50809L16.2649 2.45809L16.4559 2.41109L16.6479 2.36509L16.8399 2.32109L17.0329 2.28009L17.2259 2.24009L17.4199 2.20109L17.6139 2.16509L17.8079 2.13109L18.0039 2.09809L18.1989 2.06809L18.3949 2.03909L18.5909 2.01209L18.7879 1.98809L18.9849 1.96509L19.1819 1.94409L19.3789 1.92409L19.5769 1.90709L19.7749 1.89209L19.9729 1.87909L21.0389 1.81909L21.0989 6.95309H21.4299L21.5769 6.95709L21.7239 6.96109L21.8719 6.96609L22.0189 6.97309L22.1659 6.98209L22.3139 6.99209L22.4609 7.00309L22.6079 7.01609L22.7559 7.03009L22.9029 7.04609L23.0499 7.06309L23.1969 7.08209L23.3439 7.10209L23.4899 7.12309L23.6369 7.14609L23.7829 7.17109L23.9289 7.19709L24.0759 7.22409L24.2209 7.25309L24.3669 7.28309L24.5119 7.31509L24.6579 7.34809L24.8019 7.38309L24.9469 7.41909L25.0909 7.45609L25.2349 7.49509L25.3789 7.53509L25.5219 7.57709L25.6649 7.62009L25.8079 7.66509L25.9499 7.71109L26.0919 7.75809L26.2319 7.80809L26.3739 7.85809L26.5139 7.90909L26.6539 7.96209L26.7939 8.01709L26.9329 8.07309L27.0719 8.13009L27.2099 8.18909L27.3469 8.24909L27.4839 8.31009L27.6199 8.37309L27.7559 8.43709L27.8919 8.50309L28.0259 8.57009L28.1599 8.63809L28.2939 8.70809L28.4259 8.77809L28.5579 8.85109L28.6899 8.92409L28.8199 8.99909L28.9499 9.07609L29.0799 9.15309L29.2079 9.23309L29.3359 9.31309L29.4629 9.39309L29.5889 9.47709L29.7149 9.56109L29.8399 9.64609L29.9629 9.73309L30.0859 9.82109L30.2089 9.91009L30.3289 10.0001L30.4509 10.0921L30.5699 10.1841L30.6889 10.2791L30.8059 10.3741L30.9229 10.4701L31.0389 10.5681L31.1539 10.6671L31.2679 10.7671L31.3819 10.8671L31.4929 10.9701L31.6049 11.0741L31.7149 11.1781L31.8239 11.2841L31.9319 11.3911L32.0389 11.4991L32.1449 11.6091L32.2499 11.7191L32.3529 11.8291L32.4559 11.9421L32.5579 12.0561L32.6579 12.1701L32.7579 12.2861L32.8559 12.4021L32.9529 12.5201L33.0489 12.6381L33.1429 12.7581L33.2369 12.8781L33.3289 13.0001L33.4199 13.1231L33.5099 13.2461L33.5989 13.3701L33.6859 13.4961L33.7729 13.6221L33.8579 13.7491L33.9419 13.8771L34.0239 14.0071L34.1049 14.1361L34.1849 14.2661L34.2639 14.3981L34.3409 14.5311L34.4169 14.6641L34.4909 14.7981L34.5649 14.9331L34.6369 15.0681L34.7069 15.2041L34.7769 15.3421L34.8439 15.4791L34.9099 15.6181L34.9759 15.7581L35.0389 15.8981L35.1019 16.0381L35.1619 16.1791L35.2219 16.3221L35.2799 16.4641L35.3359 16.6081L35.3909 16.7511L35.4449 16.8961L35.4969 17.0411L35.5469 17.1871L35.5969 17.3331L35.6449 17.4801L35.6909 17.6281L35.7359 17.7751L35.7789 17.9241L35.8209 18.0731L35.8609 18.2231L35.9009 18.3731L35.9369 18.5231L35.9729 18.6731L36.0069 18.8241L36.0399 18.9761L36.0709 19.1281L36.1009 19.2801L36.1289 19.4331L36.1549 19.5861L36.1799 19.7401L36.2039 19.8931L36.2249 20.0471L36.2449 20.2021L36.2649 20.3561L36.2809 20.5111L36.2969 20.6661L36.3109 20.8211L36.3229 20.9771L36.3329 21.1331L36.3429 21.2891L36.3499 21.4451L36.3559 21.6011L36.3609 21.7571L36.3629 21.9141L36.3649 22.0701V22.2271L36.3619 22.3841L36.3579 22.5401L36.3529 22.6971L36.3459 22.8541L36.3379 23.0111L36.3279 23.1681L36.3159 23.3241L36.3019 23.4811L36.2869 23.6381L36.2709 23.7941L36.2529 23.9511L36.2329 24.1071L36.2109 24.2641L36.1879 24.4201L36.1639 24.5761L36.1369 24.7321L36.1089 24.8871L36.0799 25.0431L36.0489 25.1981L36.0159 25.3531L35.9819 25.5081L35.9459 25.6621L35.9079 25.8171L35.8689 25.9701L35.8289 26.1241L35.7859 26.2771L35.7419 26.4301L35.6969 26.5831L35.6499 26.7351L35.6009 26.8871L35.5509 27.0381L35.4989 27.1891L35.4459 27.3391L35.3909 27.4891L35.3339 27.6391L35.2759 27.7891L35.2159 27.9371L35.1559 28.0851L35.0929 28.2331L35.0279 28.3801L34.9619 28.5261L34.8949 28.6721L34.8259 28.8171L34.7559 28.9621L34.6839 29.1061L34.6099 29.2491L34.5349 29.3921L34.4589 29.5341L34.3809 29.6761L34.3009 29.8161L34.2209 29.9561L34.1389 30.0961L34.0549 30.2341L33.9689 30.3721L33.8829 30.5091L33.7939 30.6451L33.7039 30.7801L33.6139 30.9151L33.5209 31.0491L33.4269 31.1811L33.3319 31.3131L33.2349 31.4451L33.1369 31.5751L33.0369 31.7051L32.9369 31.8331L32.8349 31.9601L32.7309 32.0871L32.6259 32.2121L32.5199 32.3371L32.4129 32.4601L32.3029 32.5831L32.1929 32.7051L32.0819 32.8251L31.9689 32.9451L31.8549 33.0631L31.7399 33.1811L31.6229 33.2971L31.5059 33.4131L31.3859 33.5271L31.2659 33.6401L31.1449 33.7521L31.0219 33.8621L30.8979 33.9721L30.7729 34.0801L30.6469 34.1881L30.5189 34.2941L30.3909 34.3991L30.2609 34.5021L30.1309 34.6051L29.9989 34.7061L29.8659 34.8061L29.7319 34.9051L29.5959 35.0021L29.4599 35.0981L29.3229 35.1931L29.1849 35.2871L29.0449 35.3791L28.9049 35.4691L28.7639 35.5591L28.6209 35.6481L28.4779 35.7351L28.3339 35.8201L28.1889 35.9041L28.0429 35.9871L27.8959 36.0681L27.7479 36.1481L27.5979 36.2271L27.4489 36.3041L27.2989 36.3791L27.1469 36.4541L26.9949 36.5261L26.8419 36.5981L26.6879 36.6681L26.5339 36.7361L26.3789 36.8031L26.2219 36.8681L26.0659 36.9321L25.9079 36.9941L25.7499 37.0551L25.5899 37.1151L25.4309 37.1721L25.2709 37.2291L25.1099 37.2831L24.9479 37.3361L24.7859 37.3881L24.6229 37.4381L24.4599 37.4861L24.2959 37.5331L24.1309 37.5781L23.9659 37.6221L23.8009 37.6641L23.6349 37.7041L23.4679 37.7441L23.3009 37.7811L23.1339 37.8161L22.9659 37.8501L22.7969 37.8831L22.6289 37.9131L22.4589 37.9431L22.2899 37.9701L22.1199 37.9961L21.9499 38.0201L21.7799 38.0421L21.6089 38.0631L21.4369 38.0831L21.2669 38.1001L21.0949 38.1151L20.9229 38.1301L20.7509 38.1421L20.5779 38.1521L20.4059 38.1621L20.2329 38.1691L20.0599 38.1751L19.8869 38.1791L19.7139 38.1811H19.3679L19.1949 38.1781L19.0209 38.1731L18.8479 38.1671L18.6749 38.1591L18.5009 38.1491L18.3279 38.1391L18.1549 38.1251L17.9809 38.1111L17.8079 38.0941L17.6349 38.0761L17.4619 38.0561L17.2899 38.0351L17.1169 38.0111L16.9439 37.9861L16.7719 37.9601L16.5999 37.9311L16.4279 37.9011L16.2559 37.8701L16.0849 37.8361L15.9139 37.8011L15.7429 37.7641L15.5729 37.7261L15.4019 37.6861L15.2319 37.6441L15.0619 37.6001L14.8929 37.5551L14.7249 37.5081L14.5559 37.4591L14.3879 37.4091L14.2209 37.3571L14.0539 37.3031L13.8869 37.2481L13.7209 37.1911L13.5559 37.1321L13.3909 37.0721L13.2259 37.0101L13.0619 36.9471L12.8989 36.8811L12.7359 36.8151L12.5739 36.7461L12.4129 36.6761L12.2519 36.6041L12.0919 36.5311L11.9319 36.4561L11.7739 36.3801L11.6159 36.3021L11.4579 36.2221L11.3019 36.1411L11.1459 36.0581L10.9909 35.9741L10.8369 35.8881L10.6829 35.8011L10.5309 35.7111L10.3789 35.6211L10.2289 35.5291L10.0789 35.4351L9.92887 35.3401L9.78087 35.2441L9.63387 35.1461L9.48687 35.0461L9.34187 34.9451L9.19787 34.8431L9.05387 34.7391L8.91187 34.6331L8.77087 34.5261L8.63087 34.4181L8.49087 34.3081L8.35287 34.1981L8.21587 34.0851L8.07987 33.9711L7.94487 33.8561L7.81087 33.7391L7.67887 33.6211L7.54687 33.5011L7.41687 33.3811L7.28787 33.2591L7.15987 33.1361L7.03287 33.0111L6.90787 32.8851L6.78387 32.7581L6.66087 32.6291L6.53887 32.4991L6.41887 32.3691L6.29887 32.2361L6.18187 32.1031L6.06487 31.9681L5.94987 31.8321L5.83587 31.6951L5.72387 31.5571L5.61287 31.4171L5.50287 31.2771L5.39487 31.1351L5.28787 30.9921L5.18187 30.8491L5.07787 30.7041L4.97487 30.5581L4.87487 30.4101L4.77487 30.2621L4.67587 30.1121L4.57987 29.9621L4.48387 29.8121L4.39087 29.6591L4.29887 29.5061L4.20787 29.3521L4.11787 29.1971L4.03087 29.0411L3.94487 28.8841L3.86087 28.7261L3.77787 28.5661L3.69687 28.4071L3.61687 28.2471L3.53887 28.0851L3.46287 27.9231L3.38787 27.7601L3.31487 27.5961L3.24287 27.4311L3.17287 27.2661L3.10487 27.1001L3.03887 26.9331L2.97387 26.7651L2.91087 26.5971L2.84987 26.4281L2.78987 26.2581L2.73187 26.0881L2.67587 25.9181L2.62087 25.7461L2.56887 25.5741L2.51687 25.4011L2.46787 25.2271L2.42087 25.0531L2.37487 24.8791L2.33087 24.7041L2.28887 24.5291L2.24887 24.3531L2.20887 24.1761L2.17287 24.0001L2.13787 23.8221L2.10387 23.6451L2.07287 23.4671L2.04287 23.2881L2.01587 23.1091L1.98987 22.9301L1.96487 22.7501L1.94287 22.5701L1.92287 22.3901L1.90287 22.2101L1.88687 22.0301L1.87187 21.8491L1.85887 21.6681L1.84787 21.4871L1.83787 21.3051L1.83087 21.1231L1.82487 20.9421L1.82087 20.7601L1.81887 20.5781L1.81787 20.3961ZM19.4349 7.06009L19.3929 3.56009L19.3529 3.56309L19.1729 3.58309L18.9929 3.60309L18.8129 3.62609L18.6329 3.65109L18.4529 3.67709L18.2749 3.70509L18.0959 3.73509L17.9179 3.76609L17.7399 3.79909L17.5629 3.83409L17.3859 3.87109L17.2089 3.90909L17.0339 3.94909L16.8579 3.99109L16.6829 4.03509L16.5089 4.08009L16.3349 4.12709L16.1619 4.17509L15.9889 4.22509L15.8169 4.27709L15.6449 4.33109L15.4749 4.38609L15.3049 4.44209L15.1349 4.50109L14.9649 4.56109L14.7979 4.62309L14.6299 4.68609L14.4639 4.75109L14.2979 4.81709L14.1329 4.88509L13.9679 4.95509L13.8049 5.02609L13.6419 5.09909L13.4799 5.17409L13.3189 5.24909L13.1589 5.32709L12.9989 5.40609L12.8409 5.48609L12.6829 5.56909L12.5269 5.65209L12.3709 5.73709L12.2159 5.82409L12.0619 5.91209L11.9099 6.00109L11.7579 6.09109L11.6069 6.18409L11.4569 6.27809L11.3079 6.37309L11.1609 6.47009L11.0139 6.56809L10.8689 6.66709L10.7239 6.76709L10.5809 6.87009L10.4389 6.97309L10.2969 7.07809L10.1569 7.18409L10.0189 7.29209L9.88087 7.40009L9.74487 7.51009L9.60987 7.62209L9.47587 7.73409L9.34287 7.84809L9.21087 7.96309L9.08087 8.07909L8.95087 8.19709L8.82387 8.31609L8.69787 8.43609L8.57187 8.55609L8.44787 8.67909L8.32587 8.80209L8.20387 8.92709L8.08387 9.05209L7.96587 9.17909L7.84887 9.30709L7.73287 9.43609L7.61887 9.56609L7.50487 9.69609L7.39387 9.82909L7.28387 9.96209L7.17387 10.0961L7.06687 10.2311L6.96087 10.3671L6.85687 10.5041L6.75387 10.6421L6.65187 10.7821L6.55187 10.9221L6.45387 11.0621L6.35587 11.2041L6.26087 11.3461L6.16687 11.4901L6.07387 11.6341L5.98287 11.7791L5.89287 11.9251L5.80587 12.0721L5.71887 12.2191L5.63387 12.3681L5.55087 12.5171L5.46887 12.6671L5.38887 12.8171L5.30987 12.9671L5.23287 13.1201L5.15787 13.2721L5.08387 13.4261L5.01187 13.5791L4.94187 13.7341L4.87187 13.8891L4.80487 14.0451L4.73887 14.2011L4.67487 14.3581L4.61287 14.5151L4.55187 14.6731L4.49187 14.8311L4.43487 14.9911L4.37887 15.1491L4.32487 15.3091L4.27287 15.4691L4.22187 15.6301L4.17187 15.7911L4.12487 15.9531L4.07887 16.1151L4.03487 16.2771L3.99287 16.4401L3.95287 16.6031L3.91287 16.7661L3.87587 16.9291L3.83987 17.0931L3.80587 17.2571L3.77387 17.4221L3.74387 17.5861L3.71387 17.7511L3.68687 17.9161L3.66187 18.0811L3.63787 18.2461L3.61587 18.4121L3.59587 18.5771L3.57587 18.7431L3.55987 18.9091L3.54487 19.0741L3.53087 19.2401L3.51887 19.4061L3.50887 19.5721L3.50087 19.7381L3.49387 19.9041L3.48887 20.0701L3.48587 20.2361L3.48387 20.4021V20.5681L3.48587 20.7331L3.48987 20.8991L3.49487 21.0641L3.50187 21.2301L3.50987 21.3951L3.51987 21.5601L3.53287 21.7251L3.54587 21.8891L3.56087 22.0531L3.57787 22.2181L3.59787 22.3811L3.61787 22.5451L3.63887 22.7081L3.66287 22.8711L3.68787 23.0341L3.71487 23.1961L3.74387 23.3581L3.77387 23.5201L3.80587 23.6811L3.83987 23.8421L3.87487 24.0021L3.91187 24.1621L3.94987 24.3221L3.98987 24.4811L4.03187 24.6401L4.07487 24.7981L4.11987 24.9551L4.16587 25.1121L4.21387 25.2691L4.26387 25.4251L4.31387 25.5801L4.36687 25.7351L4.42187 25.8891L4.47687 26.0431L4.53487 26.1961L4.59387 26.3481L4.65387 26.5001L4.71587 26.6501L4.77887 26.8011L4.84387 26.9511L4.91087 27.1001L4.97887 27.2481L5.04787 27.3951L5.11787 27.5421L5.19087 27.6881L5.26487 27.8331L5.33987 27.9771L5.41687 28.1201L5.49487 28.2631L5.57487 28.4051L5.65487 28.5451L5.73787 28.6851L5.82187 28.8251L5.90687 28.9631L5.99287 29.1011L6.08087 29.2371L6.17087 29.3721L6.26087 29.5071L6.35187 29.6411L6.44587 29.7731L6.53987 29.9051L6.63587 30.0351L6.73287 30.1651L6.83087 30.2941L6.93087 30.4211L7.03087 30.5481L7.13387 30.6731L7.23687 30.7981L7.34087 30.9211L7.44687 31.0431L7.55387 31.1641L7.66187 31.2841L7.77187 31.4031L7.88187 31.5211L7.99287 31.6371L8.10587 31.7531L8.21987 31.8671L8.33487 31.9801L8.45087 32.0921L8.56787 32.2021L8.68587 32.3121L8.80587 32.4201L8.92587 32.5271L9.04587 32.6331L9.16887 32.7381L9.29287 32.8411L9.41687 32.9431L9.54187 33.0431L9.66787 33.1431L9.79587 33.2411L9.92387 33.3381L10.0529 33.4341L10.1829 33.5281L10.3129 33.6211L10.4449 33.7121L10.5779 33.8021L10.7109 33.8921L10.8449 33.9791L10.9799 34.0651L11.1159 34.1501L11.2529 34.2331L11.3899 34.3151L11.5289 34.3951L11.6679 34.4751L11.8079 34.5531L11.9479 34.6291L12.0879 34.7041L12.2309 34.7781L12.3729 34.8501L12.5159 34.9201L12.6599 34.9901L12.8039 35.0581L12.9489 35.1241L13.0949 35.1891L13.2409 35.2521L13.3879 35.3141L13.5349 35.3741L13.6829 35.4341L13.8319 35.4911L13.9799 35.5471L14.1299 35.6021L14.2799 35.6551L14.4299 35.7061L14.5799 35.7561L14.7319 35.8051L14.8829 35.8521L15.0349 35.8981L15.1879 35.9421L15.3399 35.9841L15.4929 36.0251L15.6469 36.0651L15.8009 36.1021L15.9539 36.1391L16.1089 36.1741L16.2629 36.2071L16.4179 36.2391L16.5729 36.2691L16.7279 36.2981L16.8839 36.3251L17.0389 36.3511L17.1949 36.3751L17.3509 36.3971L17.5079 36.4181L17.6639 36.4381L17.8199 36.4561L17.9769 36.4721L18.1329 36.4871L18.2899 36.5001L18.4459 36.5121L18.6029 36.5221L18.7599 36.5311L18.9159 36.5381L19.0729 36.5441L19.2299 36.5481L19.3859 36.5501L19.5429 36.5511H19.6989L19.8549 36.5491L20.0119 36.5451L20.1679 36.5401L20.3239 36.5331L20.4799 36.5251L20.6349 36.5151L20.7909 36.5051L20.9459 36.4911L21.1009 36.4771L21.2559 36.4611L21.4099 36.4441L21.5639 36.4251L21.7179 36.4051L21.8719 36.3831L22.0249 36.3601L22.1779 36.3351L22.3309 36.3091L22.4829 36.2811L22.6349 36.2521L22.7869 36.2221L22.9379 36.1891L23.0879 36.1561L23.2389 36.1211L23.3889 36.0841L23.5389 36.0461L23.6869 36.0061L23.8359 35.9661L23.9839 35.9241L24.1309 35.8801L24.2779 35.8351L24.4239 35.7881L24.5699 35.7401L24.7149 35.6911L24.8599 35.6411L25.0039 35.5881L25.1469 35.5351L25.2899 35.4801L25.4319 35.4241L25.5729 35.3661L25.7129 35.3071L25.8539 35.2471L25.9939 35.1851L26.1319 35.1221L26.2699 35.0581L26.4069 34.9921L26.5439 34.9251L26.6789 34.8571L26.8139 34.7871L26.9479 34.7171L27.0809 34.6451L27.2139 34.5721L27.3459 34.4971L27.4759 34.4211L27.6059 34.3441L27.7359 34.2661L27.8639 34.1861L27.9909 34.1061L28.1169 34.0241L28.2429 33.9411L28.3669 33.8571L28.4909 33.7711L28.6129 33.6851L28.7349 33.5971L28.8549 33.5081L28.9749 33.4181L29.0949 33.3271L29.2119 33.2351L29.3289 33.1411L29.4449 33.0471L29.5589 32.9511L29.6729 32.8551L29.7849 32.7571L29.8969 32.6591L30.0069 32.5591L30.1169 32.4591L30.2249 32.3571L30.3319 32.2541L30.4379 32.1501L30.5429 32.0451L30.6469 31.9401L30.7489 31.8331L30.8509 31.7261L30.9509 31.6171L31.0509 31.5071L31.1479 31.3971L31.2449 31.2871L31.3399 31.1741L31.4349 31.0611L31.5279 30.9471L31.6199 30.8331L31.7099 30.7171L31.7999 30.6011L31.8879 30.4841L31.9749 30.3661L32.0599 30.2471L32.1449 30.1271L32.2279 30.0071L32.3099 29.8871L32.3899 29.7651L32.4699 29.6431L32.5479 29.5201L32.6239 29.3961L32.6989 29.2721L32.7739 29.1461L32.8459 29.0211L32.9169 28.8941L32.9869 28.7671L33.0559 28.6401L33.1229 28.5111L33.1889 28.3821L33.2539 28.2531L33.3169 28.1231L33.3789 27.9931L33.4389 27.8621L33.4989 27.7301L33.5559 27.5981L33.6129 27.4661L33.6679 27.3331L33.7209 27.2001L33.7729 27.0661L33.8229 26.9311L33.8729 26.7971L33.9209 26.6621L33.9679 26.5261L34.0129 26.3901L34.0559 26.2541L34.0989 26.1181L34.1389 25.9811L34.1789 25.8441L34.2169 25.7061L34.2529 25.5681L34.2879 25.4301L34.3219 25.2921L34.3539 25.1531L34.3849 25.0151L34.4149 24.8751L34.4419 24.7371L34.4689 24.5971L34.4939 24.4571L34.5169 24.3171L34.5389 24.1771L34.5599 24.0381L34.5799 23.8981L34.5969 23.7581L34.6129 23.6181L34.6279 23.4781L34.6419 23.3371L34.6539 23.1971L34.6639 23.0561L34.6739 22.9161L34.6809 22.7751L34.6869 22.6341L34.6919 22.4941L34.6949 22.3541L34.6969 22.2131V21.9331L34.6939 21.7931L34.6899 21.6531L34.6849 21.5131L34.6779 21.3731L34.6699 21.2331L34.6599 21.0931L34.6499 20.9551L34.6369 20.8151L34.6229 20.6771L34.6079 20.5381L34.5909 20.4001L34.5729 20.2621L34.5529 20.1241L34.5329 19.9861L34.5099 19.8491L34.4859 19.7121L34.4609 19.5751L34.4349 19.4391L34.4069 19.3031L34.3769 19.1671L34.3469 19.0321L34.3149 18.8971L34.2819 18.7631L34.2469 18.6291L34.2109 18.4951L34.1739 18.3621L34.1349 18.2291L34.0949 18.0971L34.0539 17.9661L34.0109 17.8341L33.9669 17.7041L33.9219 17.5731L33.8749 17.4431L33.8269 17.3131L33.7769 17.1851L33.7269 17.0571L33.6749 16.9301L33.6219 16.8031L33.5679 16.6771L33.5119 16.5511L33.4559 16.4261L33.3969 16.3011L33.3379 16.1781L33.2779 16.0551L33.2159 15.9321L33.1529 15.8101L33.0879 15.6901L33.0229 15.5691L32.9559 15.4491L32.8889 15.3301L32.8189 15.2121L32.7489 15.0951L32.6789 14.9781L32.6059 14.8621L32.5319 14.7471L32.4569 14.6331L32.3819 14.5191L32.3049 14.4071L32.2269 14.2951L32.1469 14.1841L32.0669 14.0741L31.9859 13.9641L31.9039 13.8561L31.8199 13.7481L31.7359 13.6421L31.6499 13.5361L31.5629 13.4311L31.4759 13.3271L31.3869 13.2241L31.2969 13.1221L31.2069 13.0211L31.1159 12.9211L31.0229 12.8211L30.9299 12.7231L30.8349 12.6261L30.7399 12.5301L30.6439 12.4341L30.5469 12.3401L30.4479 12.2471L30.3489 12.1551L30.2489 12.0641L30.1489 11.9741L30.0469 11.8841L29.9449 11.7961L29.8409 11.7091L29.7369 11.6231L29.6319 11.5381L29.5269 11.4551L29.4199 11.3721L29.3129 11.2911L29.2049 11.2101L29.0959 11.1301L28.9859 11.0531L28.8759 10.9751L28.7659 10.8991L28.6529 10.8241L28.5409 10.7511L28.4279 10.6781L28.3139 10.6071L28.1999 10.5371L28.0849 10.4671L27.9689 10.4001L27.8529 10.3331L27.7359 10.2681L27.6189 10.2031L27.5009 10.1401L27.3819 10.0781L27.2619 10.0181L27.1429 9.95809L27.0229 9.90009L26.9029 9.84309L26.7809 9.78709L26.6589 9.73209L26.5369 9.67909L26.4099 9.62509L26.2909 9.57509L26.1669 9.52609L26.0439 9.47809L25.9189 9.43009L25.7939 9.38509L25.6689 9.34009L25.5429 9.29609L25.4169 9.25409L25.2909 9.21409L25.1639 9.17409L25.0369 9.13509L24.9099 9.09809L24.7819 9.06309L24.6539 9.02809L24.5259 8.99509L24.3979 8.96309L24.2689 8.93209L24.1409 8.90209L24.0109 8.87409L23.8819 8.84809L23.7519 8.82209L23.6229 8.79809L23.4929 8.77509L23.3629 8.75309L23.2329 8.73309L23.1029 8.71309L22.9729 8.69609L22.8429 8.67909L22.7129 8.66409L22.5819 8.65009L22.4519 8.63709L22.3209 8.62609L22.1899 8.61609L22.0589 8.60709L21.9289 8.59909L21.7979 8.59309L21.6669 8.58809L21.5369 8.58509L21.4069 8.58209H21.1179L21.1589 12.0561H21.3299L21.4249 12.0581L21.5199 12.0611L21.6159 12.0641L21.7119 12.0681L21.8069 12.0731L21.9029 12.0801L21.9979 12.0871L22.0939 12.0951L22.1899 12.1041L22.2849 12.1141L22.3809 12.1251L22.4759 12.1371L22.5719 12.1501L22.6669 12.1641L22.7629 12.1781L22.8579 12.1941L22.9529 12.2111L23.0479 12.2291L23.1429 12.2471L23.2379 12.2671L23.3329 12.2871L23.4279 12.3091L23.5219 12.3311L23.6159 12.3541L23.7109 12.3791L23.8049 12.4041L23.8979 12.4301L23.9919 12.4571L24.0849 12.4851L24.1789 12.5151L24.2719 12.5451L24.3639 12.5751L24.4569 12.6071L24.5489 12.6401L24.6409 12.6741L24.7329 12.7081L24.8239 12.7441L24.9149 12.7811L25.0049 12.8181L25.0959 12.8561L25.1859 12.8961L25.2759 12.9361L25.3659 12.9771L25.4549 13.0191L25.5439 13.0621L25.6319 13.1061L25.7199 13.1511L25.8079 13.1971L25.8949 13.2431L25.9819 13.2911L26.0679 13.3391L26.1539 13.3891L26.2399 13.4391L26.3249 13.4891L26.4089 13.5421L26.4929 13.5941L26.5769 13.6481L26.6599 13.7031L26.7429 13.7581L26.8249 13.8141L26.9069 13.8721L26.9869 13.9291L27.0679 13.9891L27.1479 14.0481L27.2279 14.1081L27.3069 14.1701L27.3849 14.2321L27.4629 14.2951L27.5399 14.3591L27.6159 14.4231L27.6919 14.4891L27.7679 14.5551L27.8429 14.6221L27.9169 14.6901L27.9899 14.7581L28.0629 14.8281L28.1349 14.8981L28.2059 14.9681L28.2769 15.0401L28.3469 15.1131L28.4169 15.1861L28.4849 15.2601L28.5529 15.3341L28.6209 15.4101L28.6869 15.4861L28.7529 15.5621L28.8179 15.6401L28.8819 15.7181L28.9459 15.7971L29.0089 15.8771L29.0709 15.9571L29.1319 16.0371L29.1919 16.1191L29.2519 16.2021L29.3109 16.2841L29.3689 16.3681L29.4259 16.4521L29.4829 16.5371L29.5379 16.6221L29.5929 16.7081L29.6469 16.7951L29.6999 16.8821L29.7519 16.9701L29.8029 17.0591L29.8529 17.1471L29.9029 17.2371L29.9519 17.3271L29.9999 17.4171L30.0469 17.5091L30.0929 17.6011L30.1379 17.6931L30.1819 17.7861L30.2249 17.8791L30.2669 17.9731L30.3089 18.0671L30.3489 18.1621L30.3889 18.2571L30.4269 18.3521L30.4649 18.4481L30.5009 18.5451L30.5369 18.6421L30.5719 18.7391L30.6049 18.8371L30.6379 18.9351L30.6699 19.0341L30.6999 19.1331L30.7299 19.2331L30.7589 19.3321L30.7869 19.4321L30.8129 19.5321L30.8389 19.6331L30.8639 19.7341L30.8869 19.8361L30.9099 19.9371L30.9309 20.0391L30.9509 20.1421L30.9709 20.2441L30.9899 20.3471L31.0069 20.4501L31.0239 20.5541L31.0389 20.6571L31.0529 20.7611L31.0659 20.8651L31.0789 20.9691L31.0889 21.0741L31.0989 21.1781L31.1089 21.2831L31.1159 21.3881L31.1229 21.4931L31.1289 21.5981L31.1339 21.7031L31.1369 21.8091L31.1399 21.9151V22.0201L31.1409 22.1261V22.2321L31.1379 22.3381L31.1349 22.4441L31.1309 22.5501L31.1259 22.6561L31.1199 22.7621L31.1119 22.8681L31.1039 22.9741L31.0939 23.0801L31.0839 23.1871L31.0719 23.2931L31.0589 23.3991L31.0449 23.5051L31.0299 23.6101L31.0139 23.7161L30.9969 23.8221L30.9779 23.9281L30.9579 24.0331L30.9379 24.1391L30.9159 24.2441L30.8939 24.3491L30.8699 24.4541L30.8449 24.5591L30.8189 24.6641L30.7919 24.7681L30.7629 24.8721L30.7329 24.9761L30.7029 25.0801L30.6719 25.1841L30.6389 25.2871L30.6049 25.3911L30.5709 25.4931L30.5349 25.5961L30.4979 25.6981L30.4599 25.8001L30.4199 25.9021L30.3799 26.0041L30.3389 26.1041L30.2969 26.2051L30.2529 26.3051L30.2089 26.4051L30.1629 26.5051L30.1169 26.6051L30.0689 26.7041L30.0199 26.8021L29.9699 26.9001L29.9199 26.9981L29.8679 27.0951L29.8149 27.1921L29.7609 27.2881L29.7059 27.3841L29.6499 27.4801L29.5929 27.5751L29.5349 27.6691L29.4759 27.7631L29.4159 27.8571L29.3549 27.9491L29.2929 28.0421L29.2299 28.1331L29.1659 28.2251L29.1009 28.3151L29.0349 28.4051L28.9679 28.4951L28.8999 28.5841L28.8309 28.6721L28.7609 28.7601L28.6909 28.8471L28.6189 28.9331L28.5459 29.0191L28.4729 29.1041L28.3979 29.1891L28.3229 29.2721L28.2459 29.3561L28.1689 29.4381L28.0909 29.5201L28.0109 29.6001L27.9309 29.6801L27.8509 29.7601L27.7689 29.8391L27.6869 29.9171L27.6029 29.9941L27.5189 30.0711L27.4339 30.1461L27.3479 30.2211L27.2609 30.2961L27.1739 30.3691L27.0849 30.4411L26.9949 30.5131L26.9049 30.5831L26.8149 30.6531L26.7229 30.7231L26.6309 30.7911L26.5379 30.8591L26.4439 30.9251L26.3489 30.9911L26.2539 31.0561L26.1579 31.1201L26.0609 31.1831L25.9629 31.2451L25.8649 31.3051L25.7659 31.3661L25.6659 31.4261L25.5659 31.4841L25.4659 31.5411L25.3639 31.5981L25.2619 31.6531L25.1589 31.7081L25.0549 31.7611L24.9509 31.8141L24.8459 31.8651L24.7409 31.9161L24.6349 31.9661L24.5279 32.0141L24.4209 32.0621L24.3139 32.1081L24.2049 32.1541L24.0969 32.1981L23.9869 32.2421L23.8769 32.2841L23.7669 32.3251L23.6569 32.3651L23.5449 32.4051L23.4329 32.4431L23.3209 32.4801L23.2079 32.5161L23.0949 32.5511L22.9819 32.5851L22.8679 32.6171L22.7529 32.6491L22.6389 32.6791L22.5229 32.7091L22.4079 32.7371L22.2919 32.7641L22.1759 32.7901L22.0589 32.8151L21.9419 32.8391L21.8249 32.8611L21.7069 32.8831L21.5889 32.9031L21.4709 32.9231L21.3529 32.9401L21.2339 32.9571L21.1149 32.9731L20.9949 32.9881L20.8759 33.0011L20.7559 33.0131L20.6369 33.0241L20.5169 33.0341L20.3969 33.0441L20.2769 33.0511L20.1559 33.0571L20.0359 33.0621L19.9139 33.0661L19.7939 33.0691L19.6729 33.0711H19.4309L19.3089 33.0681L19.1879 33.0651L19.0659 33.0611L18.9449 33.0551L18.8229 33.0491L18.7029 33.0411L18.5809 33.0311L18.4589 33.0211L18.3379 33.0101L18.2169 32.9971L18.0949 32.9831L17.9749 32.9681L17.8529 32.9521L17.7319 32.9341L17.6109 32.9151L17.4909 32.8951L17.3689 32.8751L17.2489 32.8521L17.1289 32.8291L17.0089 32.8041L16.8889 32.7781L16.7689 32.7511L16.6489 32.7221L16.5289 32.6921L16.4099 32.6621L16.2909 32.6301L16.1719 32.5971L16.0539 32.5631L15.9359 32.5271L15.8179 32.4911L15.7009 32.4531L15.5829 32.4131L15.4659 32.3731L15.3499 32.3331L15.2339 32.2901L15.1179 32.2461L15.0019 32.2011L14.8869 32.1551L14.7719 32.1081L14.6579 32.0591L14.5439 32.0091L14.4309 31.9591L14.3179 31.9071L14.2059 31.8541L14.0939 31.8001L13.9819 31.7451L13.8709 31.6891L13.7609 31.6311L13.6509 31.5731L13.5409 31.5131L13.4319 31.4531L13.3239 31.3901L13.2159 31.3271L13.1089 31.2631L13.0019 31.1981L12.8959 31.1311L12.7909 31.0641L12.6859 30.9951L12.5819 30.9251L12.4779 30.8551L12.3759 30.7841L12.2739 30.7111L12.1719 30.6371L12.0719 30.5621L11.9719 30.4861L11.8719 30.4091L11.7729 30.3311L11.6759 30.2521L11.5779 30.1721L11.4819 30.0921L11.3869 30.0101L11.2919 29.9271L11.1979 29.8431L11.1049 29.7581L11.0119 29.6721L10.9209 29.5851L10.8309 29.4971L10.7409 29.4091L10.6509 29.3191L10.5629 29.2291L10.4759 29.1371L10.3899 29.0441L10.3039 28.9511L10.2199 28.8571L10.1359 28.7621L10.0539 28.6661L9.97187 28.5691L9.89087 28.4711L9.81087 28.3731L9.73187 28.2731L9.65387 28.1731L9.57687 28.0721L9.50187 27.9701L9.42587 27.8671L9.35287 27.7641L9.27987 27.6601L9.20787 27.5541L9.13687 27.4491L9.06687 27.3421L8.99887 27.2351L8.93087 27.1271L8.86387 27.0171L8.79887 26.9081L8.73387 26.7981L8.67087 26.6881L8.60887 26.5761L8.54787 26.4631L8.48787 26.3501L8.42787 26.2371L8.37087 26.1221L8.31487 26.0081L8.25887 25.8921L8.20487 25.7761L8.15187 25.6591L8.09987 25.5421L8.04887 25.4241L7.99887 25.3051L7.95087 25.1861L7.90387 25.0661L7.85787 24.9461L7.81287 24.8261L7.76887 24.7051L7.72687 24.5831L7.68587 24.4611L7.64587 24.3381L7.60687 24.2151L7.56987 24.0921L7.53387 23.9681L7.49887 23.8431L7.46487 23.7191L7.43187 23.5931L7.40187 23.4681L7.37187 23.3421L7.34187 23.2151L7.31587 23.0891L7.28987 22.9621L7.26487 22.8341L7.24087 22.7071L7.21887 22.5791L7.19887 22.4501L7.17887 22.3221L7.16087 22.1931L7.14387 22.0631L7.12787 21.9351L7.11387 21.8051L7.10087 21.6751L7.08887 21.5451L7.07887 21.4151L7.06987 21.2851L7.06187 21.1551L7.05587 21.0241L7.05087 20.8931L7.04687 20.7621L7.04487 20.6311V20.3691L7.04587 20.2371L7.04987 20.1071L7.05387 19.9751L7.05987 19.8431L7.06687 19.7121L7.07587 19.5801L7.08587 19.4501L7.09587 19.3181L7.10887 19.1861L7.12287 19.0551L7.13887 18.9241L7.15487 18.7931L7.17287 18.6621L7.19287 18.5311L7.21287 18.4001L7.23587 18.2691L7.25887 18.1391L7.28387 18.0081L7.30987 17.8781L7.33687 17.7481L7.36687 17.6181L7.39687 17.4881L7.42787 17.3581L7.46087 17.2301L7.49487 17.1001L7.53087 16.9721L7.56787 16.8441L7.60587 16.7161L7.64587 16.5881L7.68587 16.4601L7.72887 16.3331L7.77287 16.2061L7.81787 16.0801L7.86387 15.9541L7.91087 15.8281L7.96087 15.7031L8.01087 15.5781L8.06187 15.4531L8.11487 15.3291L8.16887 15.2061L8.22487 15.0831L8.28087 14.9601L8.33887 14.8381L8.39887 14.7161L8.45887 14.5951L8.52087 14.4751L8.58387 14.3551L8.64887 14.2351L8.71387 14.1151L8.78087 13.9981L8.84987 13.8801L8.91887 13.7631L8.98887 13.6461L9.06187 13.5301L9.13487 13.4151L9.20887 13.3001L9.28487 13.1861L9.36087 13.0731L9.43987 12.9611L9.51887 12.8491L9.59887 12.7381L9.68087 12.6281L9.76387 12.5181L9.84787 12.4081L9.93287 12.3001L10.0189 12.1931L10.1059 12.0861L10.1949 11.9811L10.2849 11.8761L10.3749 11.7711L10.4669 11.6681L10.5599 11.5661L10.6539 11.4641L10.7499 11.3641L10.8459 11.2641L10.9429 11.1641L11.0419 11.0661L11.1419 10.9691L11.2419 10.8731L11.3439 10.7781L11.4459 10.6831L11.5499 10.5901L11.6549 10.4981L11.7599 10.4061L11.8669 10.3161L11.9749 10.2261L12.0839 10.1381L12.1939 10.0501L12.3039 9.96409L12.4149 9.87909L12.5279 9.79409L12.6409 9.71109L12.7549 9.62909L12.8709 9.54809L12.9869 9.46809L13.1039 9.38809L13.2219 9.31109L13.3409 9.23409L13.4599 9.15909L13.5799 9.08409L13.7019 9.01109L13.8239 8.93909L13.9469 8.86909L14.0699 8.79909L14.1949 8.72909L14.3199 8.66209L14.4459 8.59609L14.5729 8.53109L14.6999 8.46709L14.8279 8.40409L14.9579 8.34409L15.0869 8.28309L15.2169 8.22409L15.3479 8.16609L15.4799 8.11009L15.6119 8.05509L15.7449 8.00109L15.8779 7.94809L16.0129 7.89809L16.1469 7.84809L16.2829 7.79809L16.4189 7.75109L16.5549 7.70509L16.6919 7.66009L16.8299 7.61709L16.9679 7.57409L17.1059 7.53409L17.2459 7.49409L17.3849 7.45609L17.5249 7.41909L17.6649 7.38409L17.8059 7.35009L17.9469 7.31709L18.0889 7.28609L18.2309 7.25609L18.3739 7.22709L18.5169 7.20009L18.6599 7.17409L18.8029 7.15009L18.9469 7.12709L19.0909 7.10509L19.2359 7.08509L19.3809 7.06609L19.4349 7.06009ZM19.4949 12.2141L19.4539 8.70109L19.3349 8.71709L19.2079 8.73709L19.0799 8.75709L18.9529 8.77809L18.8259 8.80109L18.6999 8.82509L18.5739 8.85009L18.4479 8.87709L18.3229 8.90509L18.1979 8.93409L18.0729 8.96409L17.9489 8.99509L17.8249 9.02809L17.7049 9.06009L17.5789 9.09609L17.4559 9.13209L17.3339 9.17009L17.2119 9.20809L17.0919 9.24809L16.9709 9.28809L16.8509 9.33009L16.7309 9.37309L16.6109 9.41809L16.4929 9.46309L16.3749 9.50909L16.2579 9.55709L16.1409 9.60609L16.0249 9.65609L15.9089 9.70609L15.7939 9.75909L15.6789 9.81209L15.5649 9.86609L15.4519 9.92109L15.3389 9.97809L15.2279 10.0351L15.1159 10.0941L15.0059 10.1531L14.8959 10.2131L14.7859 10.2751L14.6779 10.3381L14.5699 10.4021L14.4629 10.4661L14.3569 10.5321L14.2519 10.5991L14.1469 10.6661L14.0429 10.7351L13.9399 10.8051L13.8369 10.8751L13.7349 10.9471L13.6349 11.0191L13.5349 11.0931L13.4349 11.1671L13.3369 11.2421L13.2399 11.3181L13.1429 11.3961L13.0469 11.4741L12.9519 11.5521L12.8579 11.6321L12.7649 11.7121L12.6729 11.7941L12.5809 11.8771L12.4909 11.9601L12.4009 12.0441L12.3119 12.1291L12.2249 12.2141L12.1379 12.3001L12.0519 12.3881L11.9669 12.4761L11.8829 12.5641L11.8009 12.6541L11.7189 12.7441L11.6379 12.8341L11.5579 12.9271L11.4779 13.0191L11.4009 13.1121L11.3239 13.2061L11.2479 13.3011L11.1729 13.3961L11.0989 13.4921L11.0259 13.5881L10.9539 13.6851L10.8839 13.7831L10.8139 13.8821L10.7449 13.9811L10.6779 14.0811L10.6109 14.1811L10.5459 14.2811L10.4819 14.3821L10.4189 14.4841L10.3559 14.5871L10.2959 14.6901L10.2359 14.7931L10.1759 14.8981L10.1189 15.0021L10.0619 15.1071L10.0069 15.2131L9.95187 15.3181L9.89887 15.4251L9.84687 15.5321L9.79587 15.6391L9.74587 15.7471L9.69687 15.8551L9.64987 15.9641L9.60287 16.0721L9.55787 16.1821L9.51387 16.2921L9.47087 16.4021L9.42887 16.5121L9.38887 16.6221L9.34887 16.7341L9.31087 16.8441L9.27387 16.9561L9.23787 17.0681L9.20287 17.1811L9.16887 17.2931L9.13687 17.4061L9.10587 17.5181L9.07587 17.6321L9.04587 17.7451L9.01887 17.8581L8.99287 17.9721L8.96687 18.0861L8.94287 18.2001L8.91987 18.3141L8.89887 18.4281L8.87787 18.5431L8.85787 18.6571L8.83987 18.7721L8.82387 18.8871L8.80787 19.0021L8.79287 19.1171L8.77987 19.2321L8.76687 19.3471L8.75687 19.4621L8.74687 19.5771L8.73687 19.6921L8.72987 19.8071L8.72387 19.9221L8.71887 20.0371L8.71487 20.1521L8.71187 20.2671L8.71087 20.3821V20.6121L8.71287 20.7261L8.71587 20.8411L8.72087 20.9551L8.72587 21.0691L8.73287 21.1841L8.74087 21.2981L8.74987 21.4121L8.75987 21.5251L8.77087 21.6391L8.78387 21.7521L8.79687 21.8651L8.81187 21.9781L8.82787 22.0901L8.84487 22.2031L8.86287 22.3151L8.88287 22.4271L8.90287 22.5381L8.92487 22.6501L8.94787 22.7601L8.97087 22.8711L8.99587 22.9811L9.02287 23.0911L9.04987 23.2011L9.07787 23.3111L9.10787 23.4201L9.13787 23.5281L9.16987 23.6371L9.20187 23.7441L9.23587 23.8521L9.27087 23.9591L9.30687 24.0661L9.34387 24.1721L9.38187 24.2771L9.42087 24.3831L9.46087 24.4871L9.50187 24.5921L9.54387 24.6961L9.58787 24.7991L9.63187 24.9021L9.67687 25.0041L9.72387 25.1061L9.77087 25.2061L9.81887 25.3081L9.86887 25.4081L9.91887 25.5081L9.96987 25.6071L10.0229 25.7051L10.0759 25.8031L10.1299 25.9001L10.1849 25.9971L10.2409 26.0931L10.2979 26.1881L10.3559 26.2831L10.4159 26.3771L10.4749 26.4701L10.5349 26.5631L10.5969 26.6551L10.6599 26.7471L10.7229 26.8371L10.7879 26.9271L10.8529 27.0171L10.9189 27.1061L10.9859 27.1941L11.0539 27.2811L11.1219 27.3671L11.1919 27.4531L11.2619 27.5381L11.3329 27.6221L11.4049 27.7061L11.4779 27.7881L11.5509 27.8701L11.6259 27.9521L11.7009 28.0321L11.7759 28.1121L11.8529 28.1901L11.9299 28.2681L12.0079 28.3451L12.0869 28.4211L12.1669 28.4971L12.2469 28.5711L12.3269 28.6451L12.4089 28.7181L12.4909 28.7901L12.5749 28.8611L12.6579 28.9311L12.7419 29.0011L12.8269 29.0691L12.9129 29.1371L12.9989 29.2041L13.0859 29.2701L13.1729 29.3341L13.2609 29.3981L13.3499 29.4621L13.4389 29.5241L13.5289 29.5851L13.6189 29.6451L13.7089 29.7051L13.8009 29.7631L13.8929 29.8211L13.9849 29.8771L14.0779 29.9331L14.1719 29.9881L14.2659 30.0411L14.3599 30.0941L14.4549 30.1461L14.5499 30.1961L14.6459 30.2461L14.7419 30.2951L14.8389 30.3431L14.9359 30.3901L15.0329 30.4361L15.1309 30.4801L15.2289 30.5241L15.3279 30.5671L15.4269 30.6091L15.5259 30.6491L15.6259 30.6891L15.7259 30.7291L15.8259 30.7661L15.9259 30.8031L16.0259 30.8391L16.1279 30.8741L16.2289 30.9081L16.3309 30.9401L16.4329 30.9721L16.5349 31.0021L16.6369 31.0321L16.7399 31.0611L16.8429 31.0881L16.9459 31.1151L17.0489 31.1411L17.1519 31.1651L17.2559 31.1881L17.3599 31.2111L17.4639 31.2321L17.5669 31.2521L17.6719 31.2721L17.7759 31.2901L17.8799 31.3071L17.9839 31.3231L18.0889 31.3391L18.1929 31.3531L18.2979 31.3661L18.4029 31.3781L18.5069 31.3881L18.6119 31.3981L18.7169 31.4081L18.8209 31.4151L18.9259 31.4221L19.0309 31.4281L19.1349 31.4331L19.2399 31.4371L19.3449 31.4391L19.4489 31.4411H19.6579L19.7619 31.4401L19.8659 31.4371L19.9699 31.4341L20.0739 31.4291L20.1779 31.4241L20.2819 31.4181L20.3849 31.4101L20.4889 31.4011L20.5919 31.3911L20.6949 31.3811L20.7969 31.3701L20.8999 31.3571L21.0019 31.3441L21.1049 31.3291L21.2059 31.3141L21.3079 31.2971L21.4089 31.2801L21.5109 31.2611L21.6109 31.2411L21.7109 31.2211L21.8119 31.2001L21.9119 31.1771L22.0119 31.1541L22.1109 31.1301L22.2099 31.1051L22.3089 31.0781L22.4069 31.0511L22.5049 31.0231L22.6019 30.9941L22.6989 30.9641L22.7959 30.9341L22.8929 30.9021L22.9879 30.8691L23.0839 30.8351L23.1789 30.8011L23.2739 30.7651L23.3679 30.7291L23.4619 30.6921L23.5549 30.6531L23.6479 30.6141L23.7399 30.5741L23.8319 30.5341L23.9229 30.4921L24.0139 30.4501L24.1039 30.4061L24.1939 30.3621L24.2839 30.3171L24.3719 30.2711L24.4609 30.2241L24.5479 30.1771L24.6349 30.1281L24.7219 30.0791L24.8069 30.0291L24.8929 29.9791L24.9779 29.9271L25.0619 29.8751L25.1449 29.8211L25.2279 29.7681L25.3099 29.7131L25.3919 29.6571L25.4719 29.6011L25.5529 29.5441L25.6329 29.4861L25.7119 29.4281L25.7899 29.3691L25.8679 29.3091L25.9449 29.2491L26.0209 29.1871L26.0969 29.1251L26.1709 29.0631L26.2459 28.9991L26.3189 28.9351L26.3919 28.8711L26.4639 28.8051L26.5339 28.7391L26.6059 28.6731L26.6759 28.6061L26.7439 28.5381L26.8129 28.4691L26.8799 28.4001L26.9469 28.3301L27.0129 28.2601L27.0779 28.1901L27.1419 28.1181L27.2059 28.0461L27.2689 27.9731L27.3309 27.9001L27.3909 27.8261L27.4519 27.7521L27.5119 27.6771L27.5699 27.6021L27.6279 27.5261L27.6849 27.4501L27.7409 27.3731L27.7969 27.2961L27.8509 27.2181L27.9049 27.1401L27.9579 27.0621L28.0099 26.9821L28.0599 26.9021L28.1109 26.8221L28.1609 26.7421L28.2089 26.6621L28.2569 26.5811L28.3029 26.4991L28.3489 26.4171L28.3939 26.3351L28.4379 26.2521L28.4819 26.1691L28.5239 26.0851L28.5649 26.0021L28.6049 25.9181L28.6449 25.8331L28.6849 25.7481L28.7219 25.6641L28.7589 25.5781L28.7949 25.4931L28.8299 25.4071L28.8639 25.3211L28.8969 25.2341L28.9299 25.1481L28.9609 25.0611L28.9909 24.9741L29.0209 24.8861L29.0499 24.7991L29.0769 24.7111L29.1039 24.6231L29.1299 24.5351L29.1549 24.4471L29.1789 24.3581L29.2019 24.2701L29.2239 24.1801L29.2449 24.0921L29.2649 24.0031L29.2849 23.9131L29.3029 23.8251L29.3199 23.7351L29.3369 23.6461L29.3529 23.5561L29.3669 23.4671L29.3809 23.3771L29.3939 23.2871L29.4059 23.1981L29.4159 23.1081L29.4259 23.0181L29.4359 22.9291L29.4439 22.8391L29.4509 22.7491L29.4569 22.6591L29.4619 22.5691L29.4669 22.4801L29.4699 22.3901L29.4729 22.3001L29.4739 22.2121V21.9431L29.4709 21.8541L29.4679 21.7651L29.4649 21.6761L29.4599 21.5881L29.4539 21.4981L29.4469 21.4101L29.4399 21.3221L29.4309 21.2331L29.4219 21.1451L29.4119 21.0571L29.4009 20.9701L29.3889 20.8821L29.3759 20.7951L29.3619 20.7081L29.3469 20.6211L29.3319 20.5341L29.3149 20.4481L29.2979 20.3611L29.2799 20.2761L29.2599 20.1901L29.2399 20.1051L29.2199 20.0191L29.1989 19.9351L29.1759 19.8501L29.1529 19.7661L29.1289 19.6821L29.1039 19.5981L29.0779 19.5151L29.0509 19.4321L29.0239 19.3501L28.9949 19.2671L28.9659 19.1851L28.9359 19.1041L28.9059 19.0231L28.8739 18.9421L28.8419 18.8621L28.8079 18.7821L28.7739 18.7021L28.7399 18.6221L28.7039 18.5441L28.6679 18.4661L28.6309 18.3881L28.5929 18.3101L28.5539 18.2341L28.5139 18.1571L28.4739 18.0811L28.4339 18.0061L28.3919 17.9301L28.3499 17.8561L28.3069 17.7821L28.2639 17.7081L28.2189 17.6351L28.1739 17.5621L28.1279 17.4901L28.0809 17.4191L28.0339 17.3481L27.9859 17.2781L27.9379 17.2081L27.8879 17.1381L27.8379 17.0691L27.7879 17.0011L27.7369 16.9331L27.6849 16.8661L27.6319 16.7991L27.5789 16.7331L27.5249 16.6681L27.4709 16.6031L27.4159 16.5391L27.3599 16.4751L27.3039 16.4121L27.2469 16.3501L27.1899 16.2881L27.1319 16.2281L27.0729 16.1671L27.0139 16.1071L26.9539 16.0471L26.8939 15.9891L26.8339 15.9311L26.7719 15.8741L26.7099 15.8171L26.6479 15.7611L26.5849 15.7061L26.5209 15.6521L26.4579 15.5981L26.3939 15.5451L26.3289 15.4921L26.2629 15.4401L26.1979 15.3901L26.1309 15.3391L26.0649 15.2891L25.9979 15.2401L25.9299 15.1921L25.8619 15.1441L25.7939 15.0971L25.7249 15.0511L25.6549 15.0061L25.5859 14.9611L25.5159 14.9171L25.4459 14.8741L25.3749 14.8321L25.3039 14.7901L25.2319 14.7491L25.1609 14.7091L25.0889 14.6691L25.0159 14.6311L24.9429 14.5931L24.8699 14.5551L24.7969 14.5191L24.7229 14.4831L24.6489 14.4481L24.5749 14.4141L24.4999 14.3811L24.4259 14.3481L24.3509 14.3161L24.2749 14.2851L24.1999 14.2551L24.1239 14.2251L24.0479 14.1971L23.9709 14.1681L23.8949 14.1411L23.8179 14.1151L23.7409 14.0891L23.6649 14.0651L23.5869 14.0401L23.5099 14.0171L23.4319 13.9951L23.3549 13.9731L23.2769 13.9531L23.1989 13.9321L23.1209 13.9121L23.0429 13.8941L22.9649 13.8761L22.8869 13.8591L22.8079 13.8431L22.7289 13.8281L22.6509 13.8131L22.5719 13.8001L22.4939 13.7871L22.4139 13.7741L22.3359 13.7631L22.2559 13.7531L22.1779 13.7431L22.0989 13.7331L22.0199 13.7251L21.9419 13.7181L21.8619 13.7111L21.7839 13.7051L21.7039 13.7001L21.6259 13.6961L21.5479 13.6921L21.4679 13.6891L21.3899 13.6871L21.3109 13.6861H21.1789L21.2199 17.1181H21.2889L21.3349 17.1201L21.3799 17.1211L21.4249 17.1231L21.4709 17.1261L21.5159 17.1291L21.5609 17.1321L21.6069 17.1361L21.6519 17.1401L21.6979 17.1451L21.7429 17.1501L21.7889 17.1561L21.8349 17.1631L21.8799 17.1691L21.9259 17.1771L21.9719 17.1841L22.0169 17.1931L22.0629 17.2011L22.1079 17.2111L22.1539 17.2201L22.1989 17.2301L22.2449 17.2401L22.2899 17.2521L22.3359 17.2631L22.3809 17.2751L22.4259 17.2881L22.4719 17.3011L22.5169 17.3151L22.5619 17.3291L22.6069 17.3431L22.6519 17.3581L22.6969 17.3741L22.7409 17.3891L22.7859 17.4061L22.8309 17.4231L22.8749 17.4401L22.9189 17.4581L22.9639 17.4761L23.0079 17.4961L23.0519 17.5151L23.0959 17.5351L23.1389 17.5551L23.1829 17.5751L23.2259 17.5971L23.2699 17.6181L23.3129 17.6411L23.3549 17.6631L23.3979 17.6871L23.4409 17.7101L23.4829 17.7341L23.5249 17.7591L23.5669 17.7841L23.6089 17.8091L23.6499 17.8351L23.6919 17.8621L23.7319 17.8891L23.7739 17.9161L23.8139 17.9441L23.8549 17.9721L23.8949 18.0011L23.9349 18.0311L23.9749 18.0601L24.0149 18.0901L24.0539 18.1201L24.0929 18.1511L24.1309 18.1831L24.1699 18.2151L24.2079 18.2471L24.2459 18.2801L24.2829 18.3131L24.3199 18.3471L24.3569 18.3811L24.3939 18.4151L24.4299 18.4501L24.4659 18.4851L24.5019 18.5211L24.5369 18.5571L24.5719 18.5941L24.6069 18.6311L24.6409 18.6681L24.6749 18.7061L24.7089 18.7441L24.7419 18.7831L24.7749 18.8221L24.8079 18.8621L24.8399 18.9021L24.8719 18.9421L24.9029 18.9821L24.9349 19.0221L24.9649 19.0641L24.9949 19.1061L25.0249 19.1481L25.0549 19.1901L25.0839 19.2331L25.1129 19.2761L25.1409 19.3201L25.1689 19.3641L25.1959 19.4081L25.2229 19.4521L25.2499 19.4971L25.2759 19.5431L25.3019 19.5881L25.3269 19.6341L25.3509 19.6801L25.3759 19.7271L25.3999 19.7731L25.4229 19.8211L25.4459 19.8681L25.4679 19.9161L25.4909 19.9641L25.5119 20.0121L25.5329 20.0611L25.5529 20.1101L25.5729 20.1591L25.5929 20.2091L25.6129 20.2591L25.6309 20.3091L25.6489 20.3591L25.6669 20.4091L25.6839 20.4591L25.6999 20.5111L25.7159 20.5611L25.7319 20.6131L25.7469 20.6651L25.7609 20.7171L25.7749 20.7691L25.7889 20.8221L25.8019 20.8741L25.8139 20.9271L25.8259 20.9801L25.8369 21.0331L25.8469 21.0871L25.8569 21.1401L25.8669 21.1941L25.8769 21.2481L25.8849 21.3021L25.8929 21.3561L25.8999 21.4101L25.9069 21.4651L25.9129 21.5201L25.9189 21.5751L25.9239 21.6291L25.9289 21.6851L25.9329 21.7401L25.9359 21.7951L25.9389 21.8511L25.9409 21.9061L25.9429 21.9621V22.0171L25.9449 22.0731V22.1291L25.9439 22.1851L25.9419 22.2411L25.9399 22.2971L25.9379 22.3531L25.9349 22.4101L25.9309 22.4661L25.9269 22.5221L25.9219 22.5781L25.9169 22.6351L25.9109 22.6911L25.9039 22.7481L25.8969 22.8041L25.8889 22.8601L25.8799 22.9171L25.8709 22.9731L25.8609 23.0301L25.8509 23.0861L25.8409 23.1421L25.8289 23.1991L25.8169 23.2551L25.8039 23.3111L25.7909 23.3671L25.7769 23.4231L25.7619 23.4791L25.7469 23.5351L25.7309 23.5911L25.7149 23.6471L25.6979 23.7031L25.6799 23.7581L25.6619 23.8141L25.6429 23.8691L25.6239 23.9241L25.6039 23.9801L25.5839 24.0351L25.5619 24.0891L25.5399 24.1441L25.5179 24.1991L25.4949 24.2531L25.4709 24.3081L25.4469 24.3621L25.4219 24.4161L25.3969 24.4691L25.3709 24.5231L25.3439 24.5761L25.3169 24.6301L25.2889 24.6831L25.2599 24.7351L25.2309 24.7881L25.2009 24.8401L25.1709 24.8921L25.1409 24.9441L25.1099 24.9961L25.0779 25.0471L25.0449 25.0981L25.0119 25.1491L24.9779 25.1991L24.9439 25.2501L24.9089 25.3001L24.8739 25.3501L24.8379 25.4001L24.8019 25.4491L24.7649 25.4971L24.7269 25.5461L24.6889 25.5941L24.6489 25.6421L24.6109 25.6901L24.5709 25.7371L24.5309 25.7841L24.4899 25.8301L24.4479 25.8771L24.4059 25.9221L24.3629 25.9681L24.3199 26.0131L24.2769 26.0581L24.2329 26.1021L24.1879 26.1461L24.1429 26.1901L24.0969 26.2331L24.0509 26.2761L24.0049 26.3181L23.9569 26.3601L23.9099 26.4011L23.8609 26.4431L23.8129 26.4831L23.7629 26.5231L23.7139 26.5631L23.6639 26.6031L23.6139 26.6411L23.5619 26.6801L23.5109 26.7181L23.4589 26.7551L23.4069 26.7921L23.3539 26.8291L23.2999 26.8651L23.2469 26.9011L23.1919 26.9361L23.1379 26.9701L23.0829 27.0041L23.0269 27.0381L22.9709 27.0711L22.9149 27.1041L22.8579 27.1361L22.8009 27.1661L22.7439 27.1981L22.6859 27.2281L22.6279 27.2581L22.5679 27.2881L22.5099 27.3161L22.4499 27.3451L22.3899 27.3721L22.3299 27.3991L22.2699 27.4261L22.2089 27.4521L22.1479 27.4771L22.0859 27.5021L22.0239 27.5261L21.9619 27.5501L21.8999 27.5731L21.8369 27.5951L21.7739 27.6171L21.7099 27.6381L21.6469 27.6581L21.5829 27.6781L21.5179 27.6981L21.4539 27.7171L21.3889 27.7351L21.3239 27.7521L21.2579 27.7691L21.1929 27.7861L21.1269 27.8011L21.0609 27.8161L20.9939 27.8301L20.9279 27.8441L20.8609 27.8571L20.7939 27.8691L20.7269 27.8811L20.6589 27.8921L20.5919 27.9021L20.5239 27.9121L20.4559 27.9221L20.3879 27.9301L20.3199 27.9381L20.2509 27.9451L20.1829 27.9511L20.1129 27.9571L20.0449 27.9621L19.9749 27.9661L19.9069 27.9701L19.8369 27.9731L19.7679 27.9751L19.6979 27.9771H19.4189L19.3489 27.9741L19.2799 27.9721L19.2099 27.9681L19.1399 27.9641L19.0699 27.9601L18.9999 27.9541L18.9299 27.9481L18.8599 27.9411L18.7899 27.9341L18.7199 27.9261L18.6499 27.9161L18.5789 27.9071L18.5089 27.8971L18.4389 27.8861L18.3689 27.8741L18.2989 27.8621L18.2289 27.8481L18.1589 27.8351L18.0889 27.8201L18.0189 27.8051L17.9489 27.7891L17.8799 27.7721L17.8099 27.7551L17.7409 27.7361L17.6719 27.7181L17.6019 27.6981L17.5339 27.6781L17.4649 27.6571L17.3959 27.6351L17.3279 27.6131L17.2589 27.5891L17.1909 27.5661L17.1229 27.5411L17.0549 27.5161L16.9879 27.4901L16.9199 27.4631L16.8529 27.4361L16.7859 27.4081L16.7189 27.3791L16.6519 27.3491L16.5859 27.3191L16.5199 27.2891L16.4539 27.2571L16.3879 27.2251L16.3229 27.1921L16.2579 27.1591L16.1929 27.1241L16.1279 27.0891L16.0639 27.0541L15.9999 27.0181L15.9359 26.9811L15.8729 26.9431L15.8099 26.9051L15.7469 26.8651L15.6849 26.8261L15.6229 26.7861L15.5609 26.7451L15.5009 26.7031L15.4389 26.6611L15.3789 26.6181L15.3189 26.5741L15.2589 26.5301L15.1989 26.4851L15.1409 26.4401L15.0819 26.3941L15.0239 26.3471L14.9659 26.3001L14.9089 26.2521L14.8519 26.2021L14.7959 26.1541L14.7399 26.1041L14.6839 26.0541L14.6289 26.0021L14.5749 25.9511L14.5209 25.8981L14.4669 25.8461L14.4139 25.7921L14.3619 25.7381L14.3099 25.6831L14.2579 25.6281L14.2069 25.5731L14.1569 25.5161L14.1069 25.4601L14.0569 25.4021L14.0079 25.3441L13.9599 25.2861L13.9119 25.2261L13.8649 25.1661L13.8179 25.1061L13.7719 25.0461L13.7269 24.9851L13.6819 24.9231L13.6379 24.8611L13.5939 24.7981L13.5509 24.7351L13.5079 24.6721L13.4669 24.6081L13.4249 24.5431L13.3849 24.4781L13.3449 24.4121L13.3049 24.3461L13.2669 24.2801L13.2289 24.2131L13.1919 24.1451L13.1549 24.0771L13.1189 24.0091L13.0839 23.9401L13.0489 23.8711L13.0149 23.8011L12.9809 23.7311L12.9489 23.6611L12.9169 23.5911L12.8859 23.5201L12.8559 23.4481L12.8259 23.3761L12.7959 23.3041L12.7679 23.2321L12.7399 23.1591L12.7129 23.0851L12.6869 23.0121L12.6619 22.9381L12.6369 22.8641L12.6129 22.7891L12.5899 22.7141L12.5679 22.6391L12.5459 22.5631L12.5249 22.4871L12.5049 22.4111L12.4849 22.3351L12.4669 22.2581L12.4489 22.1821L12.4319 22.1041L12.4159 22.0271L12.3999 21.9491L12.3859 21.8721L12.3719 21.7931L12.3579 21.7151L12.3459 21.6371L12.3349 21.5581L12.3239 21.4791L12.3139 21.4001L12.3049 21.3201L12.2969 21.2411L12.2889 21.1611L12.2829 21.0821L12.2769 21.0021L12.2719 20.9221L12.2679 20.8421L12.2639 20.7621L12.2619 20.6821L12.2599 20.6021V20.3591L12.2619 20.2791L12.2639 20.1981L12.2679 20.1171L12.2719 20.0371L12.2769 19.9551L12.2829 19.8751L12.2889 19.7931L12.2969 19.7131L12.3049 19.6311L12.3149 19.5511L12.3249 19.4691L12.3349 19.3891L12.3469 19.3071L12.3599 19.2271L12.3739 19.1461L12.3879 19.0651L12.4029 18.9851L12.4189 18.9031L12.4359 18.8231L12.4539 18.7431L12.4719 18.6631L12.4919 18.5821L12.5119 18.5021L12.5329 18.4221L12.5549 18.3421L12.5779 18.2621L12.6019 18.1821L12.6259 18.1031L12.6519 18.0231L12.6779 17.9451L12.7049 17.8661L12.7329 17.7871L12.7609 17.7091L12.7909 17.6311L12.8209 17.5531L12.8529 17.4751L12.8849 17.3971L12.9179 17.3201L12.9509 17.2431L12.9859 17.1661L13.0209 17.0891L13.0579 17.0131L13.0949 16.9371L13.1329 16.8621L13.1709 16.7861L13.2109 16.7111L13.2509 16.6361L13.2919 16.5621L13.3339 16.4881L13.3769 16.4141L13.4199 16.3411L13.4649 16.2681L13.5099 16.1951L13.5559 16.1231L13.6029 16.0511L13.6499 15.9801L13.6979 15.9091L13.7479 15.8391L13.7979 15.7681L13.8479 15.6981L13.8989 15.6281L13.9509 15.5601L14.0039 15.4921L14.0579 15.4241L14.1119 15.3561L14.1679 15.2891L14.2229 15.2231L14.2799 15.1571L14.3369 15.0911L14.3949 15.0261L14.4549 14.9611L14.5139 14.8981L14.5739 14.8341L14.6349 14.7711L14.6969 14.7091L14.7589 14.6471L14.8219 14.5861L14.8859 14.5251L14.9499 14.4651L15.0149 14.4051L15.0809 14.3461L15.1479 14.2881L15.2149 14.2311L15.2829 14.1731L15.3509 14.1171L15.4199 14.0611L15.4899 14.0061L15.5599 13.9511L15.6299 13.8971L15.7029 13.8441L15.7749 13.7911L15.8479 13.7401L15.9209 13.6881L15.9949 13.6381L16.0699 13.5881L16.1449 13.5381L16.2199 13.4901L16.2969 13.4421L16.3729 13.3951L16.4509 13.3491L16.5289 13.3031L16.6069 13.2581L16.6869 13.2141L16.7659 13.1711L16.8459 13.1281L16.9259 13.0861L17.0079 13.0451L17.0889 13.0051L17.1709 12.9651L17.2539 12.9261L17.3369 12.8881L17.4199 12.8511L17.5039 12.8141L17.5889 12.7791L17.6739 12.7441L17.7589 12.7101L17.8439 12.6761L17.9299 12.6441L18.0169 12.6121L18.1039 12.5821L18.1909 12.5521L18.2789 12.5221L18.3669 12.4941L18.4549 12.4671L18.5449 12.4401L18.6329 12.4141L18.7229 12.3901L18.8129 12.3661L18.9029 12.3421L18.9929 12.3201L19.0829 12.2991L19.1749 12.2791L19.2659 12.2591L19.3579 12.2391L19.4499 12.2221L19.4949 12.2141ZM20.6249 18.8141L19.5769 19.0641L19.5149 13.8741L19.4649 13.8841L19.3919 13.9021L19.3169 13.9211L19.2439 13.9401L19.1699 13.9601L19.0969 13.9801L19.0239 14.0001L18.9509 14.0221L18.8779 14.0451L18.8069 14.0681L18.7349 14.0921L18.6629 14.1161L18.5929 14.1421L18.5209 14.1671L18.4509 14.1941L18.3809 14.2211L18.3109 14.2491L18.2419 14.2771L18.1729 14.3071L18.1049 14.3371L18.0359 14.3671L17.9689 14.3971L17.9009 14.4301L17.8339 14.4621L17.7679 14.4951L17.7019 14.5291L17.6359 14.5631L17.5709 14.5971L17.5059 14.6331L17.4409 14.6691L17.3769 14.7061L17.3139 14.7431L17.2509 14.7801L17.1879 14.8191L17.1259 14.8581L17.0649 14.8981L17.0029 14.9381L16.9429 14.9781L16.8829 15.0191L16.8229 15.0611L16.7629 15.1031L16.7049 15.1461L16.6469 15.1891L16.5889 15.2331L16.5319 15.2771L16.4749 15.3221L16.4189 15.3671L16.3639 15.4131L16.3089 15.4601L16.2539 15.5061L16.1999 15.5541L16.1469 15.6011L16.0939 15.6501L16.0419 15.6991L15.9899 15.7481L15.9399 15.7981L15.8879 15.8481L15.8379 15.8981L15.7889 15.9481L15.7399 16.0001L15.6919 16.0521L15.6449 16.1041L15.5979 16.1571L15.5509 16.2101L15.5049 16.2631L15.4599 16.3171L15.4159 16.3711L15.3719 16.4261L15.3279 16.4811L15.2859 16.5361L15.2429 16.5921L15.2019 16.6481L15.1609 16.7041L15.1209 16.7611L15.0809 16.8181L15.0419 16.8751L15.0039 16.9331L14.9659 16.9911L14.9289 17.0491L14.8929 17.1071L14.8569 17.1671L14.8219 17.2251L14.7879 17.2851L14.7539 17.3451L14.7209 17.4051L14.6879 17.4651L14.6559 17.5251L14.6259 17.5851L14.5949 17.6461L14.5649 17.7071L14.5349 17.7691L14.5079 17.8301L14.4799 17.8921L14.4529 17.9541L14.4259 18.0161L14.3999 18.0781L14.3749 18.1411L14.3509 18.2031L14.3269 18.2661L14.3039 18.3291L14.2819 18.3921L14.2599 18.4551L14.2389 18.5191L14.2189 18.5821L14.1989 18.6461L14.1799 18.7101L14.1619 18.7731L14.1439 18.8371L14.1269 18.9011L14.1109 18.9661L14.0949 19.0301L14.0809 19.0941L14.0659 19.1581L14.0529 19.2231L14.0399 19.2871L14.0279 19.3521L14.0169 19.4161L14.0059 19.4811L13.9959 19.5451L13.9859 19.6101L13.9769 19.6741L13.9689 19.7391L13.9619 19.8041L13.9549 19.8681L13.9489 19.9331L13.9439 19.9971L13.9389 20.0621L13.9349 20.1271L13.9319 20.1911L13.9289 20.2551L13.9269 20.3201V20.3841L13.9249 20.4481V20.5121L13.9259 20.5761L13.9279 20.6401L13.9299 20.7041L13.9319 20.7681L13.9349 20.8311L13.9389 20.8951L13.9439 20.9581L13.9489 21.0221L13.9549 21.0851L13.9619 21.1481L13.9689 21.2101L13.9769 21.2731L13.9849 21.3361L13.9949 21.3981L14.0049 21.4601L14.0149 21.5221L14.0249 21.5841L14.0369 21.6451L14.0489 21.7071L14.0619 21.7681L14.0759 21.8291L14.0899 21.8891L14.1049 21.9501L14.1199 22.0101L14.1359 22.0701L14.1519 22.1301L14.1689 22.1901L14.1869 22.2501L14.2049 22.3091L14.2249 22.3681L14.2439 22.4261L14.2639 22.4851L14.2839 22.5431L14.3059 22.6001L14.3269 22.6581L14.3499 22.7151L14.3729 22.7721L14.3959 22.8281L14.4199 22.8841L14.4449 22.9401L14.4699 22.9961L14.4949 23.0511L14.5219 23.1061L14.5479 23.1611L14.5759 23.2151L14.6029 23.2691L14.6319 23.3231L14.6599 23.3761L14.6899 23.4291L14.7199 23.4811L14.7499 23.5341L14.7799 23.5851L14.8119 23.6371L14.8439 23.6871L14.8759 23.7381L14.9089 23.7881L14.9419 23.8381L14.9759 23.8881L15.0099 23.9371L15.0439 23.9851L15.0789 24.0341L15.1149 24.0811L15.1509 24.1291L15.1869 24.1761L15.2239 24.2221L15.2609 24.2681L15.2989 24.3141L15.3369 24.3591L15.3759 24.4041L15.4149 24.4481L15.4539 24.4921L15.4939 24.5351L15.5339 24.5781L15.5739 24.6211L15.6149 24.6631L15.6569 24.7041L15.6979 24.7461L15.7399 24.7861L15.7829 24.8261L15.8249 24.8661L15.8689 24.9061L15.9119 24.9441L15.9559 24.9821L15.9999 25.0201L16.0439 25.0571L16.0889 25.0941L16.1339 25.1301L16.1789 25.1661L16.2249 25.2011L16.2709 25.2361L16.3169 25.2701L16.3639 25.3041L16.4109 25.3371L16.4579 25.3701L16.5049 25.4021L16.5529 25.4331L16.5999 25.4641L16.6489 25.4951L16.6969 25.5251L16.7459 25.5551L16.7949 25.5841L16.8439 25.6121L16.8929 25.6401L16.9429 25.6681L16.9929 25.6951L17.0429 25.7211L17.0929 25.7471L17.1429 25.7721L17.1929 25.7971L17.2429 25.8211L17.2949 25.8451L17.3449 25.8681L17.3969 25.8911L17.4479 25.9131L17.4999 25.9341L17.5509 25.9551L17.6029 25.9751L17.6549 25.9951L17.7069 26.0151L17.7589 26.0341L17.8119 26.0521L17.8639 26.0701L17.9159 26.0871L17.9689 26.1041L18.0219 26.1201L18.0749 26.1351L18.1269 26.1501L18.1799 26.1641L18.2329 26.1781L18.2859 26.1921L18.3389 26.2041L18.3919 26.2171L18.4459 26.2281L18.4989 26.2391L18.5519 26.2491L18.6049 26.2601L18.6589 26.2701L18.7119 26.2781L18.7649 26.2871L18.8189 26.2951L18.8719 26.3021L18.9249 26.3091L18.9789 26.3151L19.0319 26.3211L19.0849 26.3261L19.1389 26.3301L19.1919 26.3351L19.2449 26.3381L19.2979 26.3411L19.3509 26.3441L19.4039 26.3461H19.4569L19.5099 26.3481H19.6679L19.7199 26.3461L19.7729 26.3441L19.8249 26.3421L19.8769 26.3391L19.9299 26.3361L19.9809 26.3321L20.0329 26.3281L20.0849 26.3231L20.1369 26.3181L20.1869 26.3121L20.2389 26.3061L20.2899 26.2991L20.3409 26.2921L20.3919 26.2841L20.4419 26.2751L20.4929 26.2671L20.5429 26.2571L20.5929 26.2471L20.6429 26.2371L20.6929 26.2271L20.7429 26.2151L20.7929 26.2041L20.8419 26.1921L20.8899 26.1791L20.9399 26.1661L20.9879 26.1521L21.0359 26.1381L21.0839 26.1241L21.1319 26.1091L21.1789 26.0931L21.2269 26.0781L21.2739 26.0611L21.3209 26.0451L21.3669 26.0281L21.4139 26.0101L21.4599 25.9921L21.5059 25.9731L21.5509 25.9551L21.5959 25.9351L21.6409 25.9151L21.6859 25.8951L21.7299 25.8751L21.7749 25.8541L21.8179 25.8331L21.8619 25.8111L21.9049 25.7891L21.9479 25.7661L21.9909 25.7431L22.0329 25.7201L22.0749 25.6961L22.1169 25.6721L22.1569 25.6481L22.1989 25.6231L22.2389 25.5981L22.2789 25.5721L22.3189 25.5461L22.3589 25.5201L22.3989 25.4941L22.4379 25.4671L22.4769 25.4391L22.5149 25.4121L22.5529 25.3841L22.5899 25.3551L22.6269 25.3271L22.6639 25.2971L22.7009 25.2691L22.7369 25.2391L22.7719 25.2091L22.8079 25.1791L22.8429 25.1491L22.8769 25.1181L22.9109 25.0871L22.9449 25.0561L22.9789 25.0241L23.0119 24.9921L23.0439 24.9601L23.0759 24.9281L23.1079 24.8951L23.1399 24.8621L23.1699 24.8291L23.2009 24.7951L23.2309 24.7621L23.2609 24.7281L23.2909 24.6941L23.3199 24.6591L23.3479 24.6251L23.3759 24.5901L23.4039 24.5551L23.4319 24.5201L23.4579 24.4841L23.4849 24.4491L23.5109 24.4131L23.5369 24.3771L23.5619 24.3401L23.5869 24.3041L23.6109 24.2671L23.6349 24.2311L23.6579 24.1941L23.6809 24.1571L23.7039 24.1191L23.7259 24.0821L23.7479 24.0441L23.7689 24.0071L23.7899 23.9691L23.8099 23.9311L23.8299 23.8931L23.8499 23.8541L23.8699 23.8161L23.8879 23.7781L23.9059 23.7381L23.9239 23.7001L23.9419 23.6611L23.9589 23.6231L23.9749 23.5831L23.9909 23.5451L24.0069 23.5051L24.0219 23.4661L24.0369 23.4261L24.0509 23.3881L24.0649 23.3481L24.0779 23.3081L24.0909 23.2681L24.1039 23.2291L24.1159 23.1891L24.1279 23.1491L24.1379 23.1101L24.1489 23.0701L24.1589 23.0301L24.1689 22.9901L24.1789 22.9501L24.1889 22.9101L24.1969 22.8711L24.2049 22.8311L24.2129 22.7911L24.2199 22.7511L24.2269 22.7111L24.2329 22.6711L24.2389 22.6311L24.2449 22.5911L24.2499 22.5521L24.2549 22.5121L24.2589 22.4721L24.2629 22.4331L24.2659 22.3931L24.2689 22.3531L24.2719 22.3141L24.2739 22.2741L24.2759 22.2361V22.1961L24.2779 22.1561V22.0001L24.2759 21.9621L24.2739 21.9221L24.2719 21.8851L24.2699 21.8451L24.2669 21.8071L24.2639 21.7691L24.2609 21.7311L24.2569 21.6921L24.2519 21.6551L24.2479 21.6161L24.2419 21.5791L24.2369 21.5411L24.2309 21.5041L24.2249 21.4671L24.2179 21.4291L24.2109 21.3921L24.2039 21.3551L24.1959 21.3191L24.1879 21.2821L24.1789 21.2461L24.1699 21.2091L24.1609 21.1741L24.1509 21.1371L24.1409 21.1021L24.1309 21.0661L24.1209 21.0311L24.1099 20.9961L24.0979 20.9611L24.0869 20.9261L24.0749 20.8911L24.0619 20.8571L24.0489 20.8231L24.0359 20.7891L24.0229 20.7551L24.0089 20.7211L23.9949 20.6881L23.9809 20.6551L23.9659 20.6221L23.9509 20.5901L23.9359 20.5571L23.9209 20.5251L23.9049 20.4931L23.8879 20.4611L23.8719 20.4301L23.8549 20.3981L23.8379 20.3681L23.8209 20.3371L23.8029 20.3061L23.7849 20.2761L23.7669 20.2461L23.7489 20.2161L23.7289 20.1861L23.7109 20.1571L23.6909 20.1281L23.6719 20.0991L23.6519 20.0711L23.6319 20.0431L23.6119 20.0151L23.5919 19.9871L23.5709 19.9601L23.5499 19.9331L23.5279 19.9061L23.5069 19.8791L23.4849 19.8531L23.4629 19.8271L23.4409 19.8011L23.4189 19.7761L23.3959 19.7511L23.3729 19.7261L23.3499 19.7021L23.3269 19.6771L23.3039 19.6531L23.2799 19.6301L23.2559 19.6061L23.2319 19.5831L23.2079 19.5611L23.1839 19.5381L23.1589 19.5161L23.1349 19.4941L23.1099 19.4731L23.0849 19.4511L23.0589 19.4311L23.0339 19.4101L23.0089 19.3901L22.9829 19.3701L22.9569 19.3501L22.9309 19.3301L22.9049 19.3121L22.8789 19.2921L22.8529 19.2751L22.8259 19.2561L22.7999 19.2391L22.7729 19.2211L22.7459 19.2041L22.7189 19.1871L22.6919 19.1711L22.6649 19.1541L22.6379 19.1391L22.6099 19.1231L22.5829 19.1081L22.5549 19.0931L22.5279 19.0781L22.4999 19.0641L22.4729 19.0501L22.4449 19.0361L22.4169 19.0231L22.3889 19.0101L22.3609 18.9971L22.3329 18.9851L22.3039 18.9731L22.2759 18.9611L22.2479 18.9501L22.2199 18.9391L22.1909 18.9291L22.1629 18.9181L22.1349 18.9081L22.1059 18.8981L22.0779 18.8881L22.0489 18.8791L22.0209 18.8701L21.9919 18.8621L21.9639 18.8541L21.9349 18.8461L21.9069 18.8381L21.8779 18.8311L21.8499 18.8241L21.8209 18.8171L21.7929 18.8111L21.7639 18.8051L21.7359 18.7991L21.7069 18.7941L21.6789 18.7881L21.6499 18.7841L21.6219 18.7791L21.5939 18.7751L21.5659 18.7711L21.5369 18.7681L21.5089 18.7641L21.4809 18.7611L21.4529 18.7591L21.4249 18.7561L21.3969 18.7541L21.3689 18.7521L21.3409 18.7511L21.3129 18.7491H21.2859L21.2579 18.7481H21.1209L21.0939 18.7501L21.0669 18.7511L21.0399 18.7531L21.0129 18.7551L20.9859 18.7571L20.9599 18.7591L20.9329 18.7621L20.9069 18.7651L20.8809 18.7681L20.8539 18.7711L20.8279 18.7751L20.8019 18.7791L20.7769 18.7831L20.7509 18.7881L20.7249 18.7931L20.6999 18.7981L20.6749 18.8031L20.6499 18.8081L20.6249 18.8141Z" fill="#555555"/>
</g>
</g>
<defs>
<clipPath id="clip0_128_3300">
<rect width="140" height="40" fill="white"/>
</clipPath>
<clipPath id="clip1_128_3300">
<rect width="140" height="40" fill="white"/>
</clipPath>
</defs>
</svg>
