<svg width="163" height="30" viewBox="0 0 163 30" fill="none" xmlns="http://www.w3.org/2000/svg">
<g clip-path="url(#clip0_128_3290)">
<g clip-path="url(#clip1_128_3290)">
<g clip-path="url(#clip2_128_3290)">
<mask id="mask0_128_3290" style="mask-type:luminance" maskUnits="userSpaceOnUse" x="-1" y="0" width="165" height="30">
<path d="M-0.25 0H163.25V30H-0.25V0Z" fill="white"/>
</mask>
<g mask="url(#mask0_128_3290)">
<path d="M91.5162 22.1431H95.0142V8.95008H91.5162V22.1431ZM91.5162 6.89408H95.0142V3.75708H91.5162V6.89408ZM97.2672 26.4631H100.765V20.6501H100.816C101.561 21.7821 102.77 22.5281 104.621 22.5281C108.016 22.5281 110.33 19.8281 110.33 15.5581C110.33 11.4451 108.093 8.59008 104.596 8.59008C102.796 8.59008 101.561 9.43908 100.713 10.5961H100.636V8.95108H97.2672V26.4631ZM103.876 19.6231C101.793 19.6231 100.687 18.0541 100.687 15.6631C100.687 13.2971 101.561 11.4201 103.747 11.4201C105.907 11.4201 106.781 13.1681 106.781 15.6631C106.781 18.1571 105.65 19.6231 103.876 19.6231ZM117.306 22.5291C120.598 22.5291 122.86 20.9341 122.86 18.2861C122.86 15.2001 120.418 14.5831 118.206 14.1201C116.329 13.7341 114.58 13.6311 114.58 12.5001C114.58 11.5491 115.48 11.0341 116.843 11.0341C118.335 11.0341 119.235 11.5481 119.389 12.9631H122.551C122.295 10.3141 120.366 8.59108 116.895 8.59108C113.886 8.59108 111.52 9.95408 111.52 12.8091C111.52 15.6891 113.835 16.3311 116.2 16.7941C118 17.1541 119.671 17.2831 119.671 18.5431C119.671 19.4681 118.798 20.0601 117.255 20.0601C115.686 20.0601 114.606 19.3911 114.375 17.8741H111.135C111.34 20.6771 113.475 22.5291 117.306 22.5291ZM136.137 22.1431V8.95008H132.64V16.5621C132.64 18.3101 131.637 19.5451 129.992 19.5451C128.5 19.5451 127.806 18.6961 127.806 17.1531V8.95108H124.335V17.7461C124.335 20.6261 125.98 22.5031 128.912 22.5031C130.764 22.5031 131.792 21.8091 132.692 20.6001H132.769V22.1431H136.137ZM138.399 22.1431H141.897V14.4801C141.897 12.7311 142.848 11.6001 144.263 11.6001C145.548 11.6001 146.294 12.3711 146.294 13.8631V22.1431H149.791V14.4801C149.791 12.7311 150.691 11.6001 152.157 11.6001C153.443 11.6001 154.188 12.3711 154.188 13.8631V22.1431H157.686V13.2701C157.686 10.3901 156.117 8.59008 153.339 8.59008C151.668 8.59008 150.279 9.46508 149.379 10.9051H149.328C148.686 9.51608 147.348 8.59008 145.677 8.59008C143.851 8.59008 142.566 9.51608 141.846 10.7251H141.768V8.95008H138.399V22.1431ZM0.368164 22.1431H3.86516V3.75708H0.368164V22.1431ZM12.4162 22.5291C16.5052 22.5291 19.3082 19.4941 19.3082 15.5591C19.3082 11.6261 16.5052 8.59108 12.4162 8.59108C8.32816 8.59108 5.52516 11.6261 5.52516 15.5601C5.52516 19.4941 8.32816 22.5291 12.4162 22.5291ZM12.4162 19.8541C10.2562 19.8541 9.07316 18.1311 9.07316 15.5601C9.07316 12.9881 10.2562 11.2401 12.4162 11.2401C14.5512 11.2401 15.7592 12.9881 15.7592 15.5601C15.7592 18.1311 14.5512 19.8541 12.4162 19.8541ZM26.7452 26.6431C28.6992 26.6431 30.3962 26.1801 31.5022 25.1511C32.4792 24.2511 33.0712 22.9911 33.0712 21.1401V8.95008H29.7022V10.3391H29.6502C28.8542 9.23408 27.6462 8.59008 26.0002 8.59008C22.6562 8.59008 20.2902 11.1101 20.2902 15.0451C20.2902 19.0301 23.1702 21.3451 26.1022 21.3451C27.7732 21.3451 28.7762 20.6761 29.5482 19.8021H29.6252V21.2421C29.6252 23.0421 28.6732 23.9931 26.6932 23.9931C25.0732 23.9931 24.3282 23.3501 24.0452 22.5281H20.5732C20.9332 25.0981 23.1452 26.6431 26.7452 26.6431ZM26.6932 18.5431C24.8932 18.5431 23.7102 17.2311 23.7102 14.9941C23.7102 12.7831 24.8932 11.3941 26.6682 11.3941C28.7762 11.3941 29.8052 13.0401 29.8052 14.9691C29.8052 16.9231 28.9052 18.5431 26.6932 18.5431ZM41.5702 22.5291C45.6602 22.5291 48.4622 19.4941 48.4622 15.5591C48.4622 11.6261 45.6592 8.59108 41.5712 8.59108C37.4822 8.59108 34.6792 11.6261 34.6792 15.5601C34.6792 19.4941 37.4812 22.5291 41.5702 22.5291ZM41.5702 19.8541C39.4102 19.8541 38.2282 18.1311 38.2282 15.5601C38.2282 12.9881 39.4112 11.2401 41.5712 11.2401C43.7052 11.2401 44.9142 12.9881 44.9142 15.5601C44.9142 18.1311 43.7042 19.8541 41.5702 19.8541ZM158.956 6.78608C158.956 6.19408 159.436 5.71408 160.028 5.71408H162.171C162.315 5.7097 162.458 5.73417 162.591 5.78604C162.725 5.83792 162.847 5.91614 162.95 6.01607C163.053 6.11601 163.135 6.23561 163.191 6.36779C163.247 6.49998 163.276 6.64205 163.276 6.78558C163.276 6.92911 163.247 7.07118 163.191 7.20337C163.135 7.33555 163.053 7.45515 162.95 7.55509C162.847 7.65502 162.725 7.73324 162.591 7.78512C162.458 7.83699 162.315 7.86146 162.171 7.85708H160.028C159.436 7.85708 158.956 7.37708 158.956 6.78608Z" fill="#555555"/>
<path fill-rule="evenodd" clip-rule="evenodd" d="M69.6704 0C77.9554 0 84.6714 6.716 84.6714 15C84.6714 23.284 77.9554 30 69.6714 30C61.3874 30 54.6714 23.284 54.6714 15C54.6714 6.716 61.3864 0 69.6704 0ZM69.1294 1.122C67.4174 1.363 65.7884 2.738 64.5234 5.038C64.1385 5.74482 63.8089 6.48035 63.5374 7.238C65.3682 6.78672 67.244 6.54285 69.1294 6.511V1.122ZM62.2694 7.598C62.6035 6.53064 63.0402 5.49815 63.5734 4.515C64.2004 3.375 64.9444 2.391 65.7834 1.635C63.5349 2.2916 61.488 3.50401 59.8317 5.16033C58.1754 6.81665 56.963 8.86352 56.3064 11.112C57.0624 10.273 58.0464 9.529 59.1864 8.902C60.1695 8.36881 61.202 7.93211 62.2694 7.598ZM61.9094 8.866C61.4578 10.6968 61.2139 12.5726 61.1824 14.458H55.7934C56.0344 12.746 57.4094 11.118 59.7094 9.852C60.4162 9.46713 61.1517 9.13748 61.9094 8.866ZM62.2674 14.458C62.3124 12.294 62.6234 10.263 63.1384 8.468C64.9334 7.952 66.9654 7.641 69.1284 7.596V9.938C68.7272 10.9623 68.1186 11.8925 67.3407 12.6704C66.5629 13.4482 65.6326 14.0568 64.6084 14.458H62.2674ZM61.1824 15.542H55.7934C56.0344 17.253 57.4094 18.882 59.7094 20.148C60.4161 20.5332 61.1516 20.8628 61.9094 21.134C61.4578 19.3032 61.2139 17.4274 61.1824 15.542ZM63.1384 21.532C62.6234 19.737 62.3124 17.706 62.2674 15.542H64.6094C65.6336 15.9432 66.5639 16.5518 67.3417 17.3296C68.1196 18.1075 68.7282 19.0377 69.1294 20.062V22.404C66.9654 22.359 64.9324 22.048 63.1384 21.532ZM62.2684 22.402C61.2014 22.0679 60.1692 21.6312 59.1864 21.098C58.0464 20.471 57.0624 19.727 56.3064 18.888C56.963 21.1365 58.1754 23.1833 59.8317 24.8397C61.488 26.496 63.5349 27.7084 65.7834 28.365C64.9444 27.609 64.2004 26.625 63.5734 25.485C63.0402 24.5018 62.6025 23.4694 62.2684 22.402ZM69.1284 28.878C67.4184 28.637 65.7884 27.262 64.5234 24.962C64.1385 24.2552 63.8089 23.5196 63.5374 22.762C65.3682 23.2136 67.244 23.4575 69.1294 23.489L69.1284 28.878ZM73.5594 28.365C74.3984 27.609 75.1424 26.625 75.7694 25.485C76.2754 24.564 76.7144 23.528 77.0734 22.402C78.1404 22.0678 79.1725 21.6311 80.1554 21.098C81.2954 20.471 82.2804 19.727 83.0364 18.888C82.3797 21.1364 81.1673 23.1833 79.511 24.8396C77.8546 26.4959 75.8078 27.7083 73.5594 28.365ZM75.8054 22.762C75.5174 23.558 75.1854 24.295 74.8184 24.962C73.5544 27.262 71.9244 28.637 70.2134 28.878V23.488C72.0987 23.4568 73.9746 23.2132 75.8054 22.762ZM77.4334 21.134C78.2294 20.846 78.9664 20.514 79.6334 20.148C81.9334 18.883 83.3084 17.253 83.5484 15.542H78.1604C78.1287 17.4274 77.8848 19.3032 77.4334 21.134ZM77.0754 15.542C77.0304 17.706 76.7194 19.737 76.2034 21.532C74.4084 22.048 72.3774 22.359 70.2134 22.404V20.064C70.6143 19.0394 71.2229 18.1087 72.0007 17.3305C72.7786 16.5523 73.7089 15.9434 74.7334 15.542H77.0754ZM78.1604 14.458H83.5484C83.3084 12.746 81.9334 11.118 79.6334 9.852C78.9266 9.46706 78.1911 9.13741 77.4334 8.866C77.8847 10.6968 78.1285 12.5726 78.1604 14.458ZM76.2034 8.468C76.7194 10.263 77.0304 12.294 77.0754 14.458H74.7344C73.7097 14.0567 72.7792 13.4478 72.0011 12.6696C71.2231 11.8914 70.6145 10.9607 70.2134 9.936V7.596C72.3774 7.641 74.4084 7.952 76.2034 8.468ZM77.0734 7.598C78.1994 7.957 79.2344 8.396 80.1554 8.902C81.2954 9.529 82.2804 10.273 83.0364 11.112C82.3797 8.86356 81.1673 6.81674 79.511 5.16043C77.8546 3.50412 75.8078 2.29168 73.5594 1.635C74.3984 2.391 75.1424 3.375 75.7694 4.515C76.2754 5.436 76.7144 6.472 77.0734 7.598ZM70.2134 1.122C71.9244 1.363 73.5534 2.738 74.8184 5.038C75.1854 5.705 75.5174 6.442 75.8054 7.238C73.9746 6.7864 72.0988 6.54253 70.2134 6.511V1.122Z" fill="#555555"/>
</g>
</g>
</g>
</g>
<defs>
<clipPath id="clip0_128_3290">
<rect width="163" height="30" fill="white"/>
</clipPath>
<clipPath id="clip1_128_3290">
<rect width="163" height="30" fill="white"/>
</clipPath>
<clipPath id="clip2_128_3290">
<rect width="165" height="30" fill="white" transform="translate(-1)"/>
</clipPath>
</defs>
</svg>
