<svg width="132" height="30" viewBox="0 0 132 30" fill="none" xmlns="http://www.w3.org/2000/svg">
<g clip-path="url(#clip0_128_3306)">
<g clip-path="url(#clip1_128_3306)">
<g clip-path="url(#clip2_128_3306)">
<mask id="mask0_128_3306" style="mask-type:luminance" maskUnits="userSpaceOnUse" x="0" y="0" width="132" height="30">
<path d="M0 0H132V30H0V0Z" fill="white"/>
</mask>
<g mask="url(#mask0_128_3306)">
<path fill-rule="evenodd" clip-rule="evenodd" d="M11.25 21C10.2554 21 9.30161 20.6049 8.59835 19.9017C7.89509 19.1984 7.5 18.2446 7.5 17.25V0H0V17.25C0 23.463 5.037 28.5 11.25 28.5H19.5V21H11.25ZM33.75 7.5C32.8636 7.5 31.9858 7.67459 31.1669 8.01381C30.3479 8.35303 29.6038 8.85023 28.977 9.47703C28.3502 10.1038 27.853 10.8479 27.5138 11.6669C27.1746 12.4858 27 13.3636 27 14.25C27 15.1364 27.1746 16.0142 27.5138 16.8331C27.853 17.6521 28.3502 18.3962 28.977 19.023C29.6038 19.6498 30.3479 20.147 31.1669 20.4862C31.9858 20.8254 32.8636 21 33.75 21C35.5402 21 37.2571 20.2888 38.523 19.023C39.7888 17.7571 40.5 16.0402 40.5 14.25C40.5 12.4598 39.7888 10.7429 38.523 9.47703C37.2571 8.21116 35.5402 7.5 33.75 7.5ZM19.5 14.25C19.5 6.38 25.88 0 33.75 0C41.62 0 48 6.38 48 14.25C48 22.12 41.62 28.5 33.75 28.5C25.88 28.5 19.5 22.12 19.5 14.25ZM114.75 7.5C113.864 7.5 112.986 7.67461 112.167 8.01385C111.348 8.3531 110.604 8.85033 109.977 9.47718C109.35 10.104 108.853 10.8482 108.513 11.6672C108.174 12.4862 107.999 13.364 107.999 14.2505C107.999 15.137 108.174 16.0148 108.513 16.8338C108.853 17.6528 109.35 18.397 109.977 19.0238C110.604 19.6507 111.348 20.1479 112.167 20.4871C112.986 20.8264 113.864 21.001 114.75 21.001C116.54 21.001 118.257 20.2898 119.523 19.0238C120.789 17.7579 121.501 16.0408 121.501 14.2505C121.501 12.4602 120.789 10.7431 119.523 9.47718C118.257 8.21121 116.54 7.5 114.75 7.5ZM100.5 14.25C100.5 6.38 106.88 0 114.75 0C122.62 0 129 6.38 129 14.25C129 22.12 122.62 28.5 114.75 28.5C106.88 28.5 100.5 22.12 100.5 14.25ZM63.75 0C55.88 0 49.5 6.38 49.5 14.25C49.5 22.12 55.88 28.5 63.75 28.5H84.75C86.227 28.5 87.651 28.275 88.99 27.858L93 30L97.326 21.897C98.4249 19.8343 98.9998 17.5331 99 15.196V14.25C99 6.38 92.62 0 84.75 0H63.75ZM91.5 14.25C91.5 12.4598 90.7888 10.7429 89.523 9.47703C88.2571 8.21116 86.5402 7.5 84.75 7.5H63.75C62.8636 7.5 61.9858 7.67459 61.1669 8.01381C60.3479 8.35303 59.6038 8.85023 58.977 9.47703C58.3502 10.1038 57.853 10.8479 57.5138 11.6669C57.1746 12.4858 57 13.3636 57 14.25C57 15.1364 57.1746 16.0142 57.5138 16.8331C57.853 17.6521 58.3502 18.3962 58.977 19.023C59.6038 19.6498 60.3479 20.147 61.1669 20.4862C61.9858 20.8254 62.8636 21 63.75 21H84.75C86.5311 21.0001 88.24 20.2962 89.5043 19.0417C90.7687 17.7873 91.486 16.084 91.5 14.303V14.25Z" fill="#555555"/>
<path d="M132 1.87496C131.999 2.37199 131.801 2.84845 131.45 3.1999C131.098 3.55136 130.622 3.74916 130.125 3.74996C129.755 3.74888 129.393 3.63832 129.085 3.43219C128.778 3.22605 128.538 2.93356 128.396 2.5915C128.255 2.24944 128.217 1.8731 128.289 1.50984C128.361 1.14657 128.538 0.812603 128.799 0.549956C129.061 0.288694 129.395 0.110944 129.759 0.0390845C130.122 -0.0327751 130.499 0.00446807 130.841 0.146125C131.183 0.287782 131.476 0.52752 131.682 0.835157C131.888 1.14279 131.999 1.50458 132 1.87496Z" fill="#555555"/>
</g>
</g>
</g>
</g>
<defs>
<clipPath id="clip0_128_3306">
<rect width="132" height="30" fill="white"/>
</clipPath>
<clipPath id="clip1_128_3306">
<rect width="132" height="30" fill="white"/>
</clipPath>
<clipPath id="clip2_128_3306">
<rect width="133" height="30" fill="white" transform="translate(-0.5)"/>
</clipPath>
</defs>
</svg>
