<svg width="186" height="40" viewBox="0 0 186 40" fill="none" xmlns="http://www.w3.org/2000/svg">
<g clip-path="url(#clip0_128_3247)">
<g clip-path="url(#clip1_128_3247)">
<path d="M29.5588 17.828C29.0535 18.3363 28.6666 18.9498 28.4254 19.6248C28.1843 20.2998 28.095 21.0196 28.1638 21.733L28.1398 21.709C28.2108 22.5489 28.0976 23.3941 27.8081 24.1857C27.5187 24.9773 27.0599 25.6961 26.464 26.2921C25.868 26.8881 25.1491 27.3468 24.3575 27.6363C23.5659 27.9258 22.7207 28.039 21.8808 27.968L21.9048 27.992C20.9 27.8983 19.8907 28.1168 19.0147 28.6178C18.1386 29.1187 17.4384 29.8777 17.0095 30.7912C16.5806 31.7047 16.4439 32.7283 16.618 33.7223C16.7922 34.7163 17.2687 35.6325 17.9826 36.3457C18.6966 37.059 19.6131 37.5347 20.6073 37.708C21.6015 37.8813 22.625 37.7436 23.5381 37.3139C24.4512 36.8842 25.2095 36.1833 25.7097 35.3067C26.2098 34.4302 26.4274 33.4207 26.3328 32.416L26.3588 32.44C26.2881 31.6003 26.4014 30.7552 26.6908 29.9638C26.9803 29.1724 27.439 28.4536 28.0348 27.8577C28.6306 27.2618 29.3493 26.803 30.1407 26.5134C30.9321 26.2238 31.7771 26.1104 32.6168 26.181L32.5918 26.157C33.4126 26.2309 34.2386 26.0964 34.9935 25.7659C35.7484 25.4355 36.4077 24.9199 36.9102 24.2668C37.4127 23.6137 37.7422 22.8443 37.8682 22.03C37.9941 21.2156 37.9125 20.3827 37.6307 19.6083C37.349 18.8339 36.8764 18.1431 36.2566 17.6001C35.6368 17.057 34.89 16.6792 34.0853 16.5017C33.2806 16.3241 32.4442 16.3526 31.6534 16.5845C30.8627 16.8163 30.1432 17.2441 29.5618 17.828H29.5588Z" fill="#555555"/>
<path d="M19.7229 24.848L19.6969 24.824C20.4106 24.8955 21.1313 24.8076 21.8069 24.5666C22.4825 24.3256 23.0962 23.9376 23.6036 23.4306C24.111 22.9236 24.4994 22.3102 24.7409 21.6348C24.9824 20.9594 25.0708 20.2388 24.9999 19.525L25.0249 19.549C24.9545 18.7093 25.068 17.8643 25.3577 17.073C25.6473 16.2817 26.1061 15.5631 26.702 14.9673C27.2979 14.3715 28.0165 13.9129 28.8079 13.6234C29.5992 13.3338 30.4442 13.2204 31.2839 13.291L31.2589 13.267C32.2635 13.3613 33.2728 13.1435 34.1491 12.6431C35.0254 12.1428 35.726 11.3843 36.1553 10.4711C36.5847 9.55798 36.7219 8.5346 36.5483 7.54059C36.3746 6.54658 35.8986 5.63034 35.1851 4.91682C34.4716 4.20331 33.5553 3.72726 32.5613 3.55363C31.5673 3.37999 30.5439 3.5172 29.6308 3.94656C28.7176 4.37592 27.9591 5.07651 27.4588 5.95279C26.9584 6.82906 26.7406 7.83835 26.8349 8.84299L26.8109 8.81699C26.882 9.65693 26.7689 10.5023 26.4795 11.294C26.1901 12.0857 25.7314 12.8047 25.1354 13.4008C24.5394 13.9969 23.8205 14.4557 23.0288 14.7452C22.2372 15.0347 21.3918 15.148 20.5519 15.077L20.5759 15.101C19.862 15.0289 19.1409 15.1165 18.465 15.3573C17.7891 15.5981 17.1751 15.9862 16.6676 16.4934C16.16 17.0007 15.7716 17.6144 15.5304 18.2902C15.2892 18.966 15.2012 19.687 15.2729 20.401L15.2489 20.376C15.3197 21.2157 15.2063 22.0608 14.9169 22.8522C14.6274 23.6436 14.1688 24.3624 13.573 24.9583C12.9771 25.5542 12.2584 26.013 11.4671 26.3026C10.6757 26.5922 9.83064 26.7056 8.9909 26.635L9.0149 26.659C8.01052 26.5648 7.00154 26.7828 6.12557 27.2831C5.2496 27.7834 4.54928 28.5418 4.12012 29.4547C3.69096 30.3677 3.55384 31.3908 3.72747 32.3845C3.90111 33.3782 4.37704 34.2942 5.09036 35.0075C5.80368 35.7209 6.71966 36.1968 7.71339 36.3704C8.70712 36.544 9.73022 36.4069 10.6432 35.9778C11.5561 35.5486 12.3145 34.8483 12.8148 33.9723C13.3151 33.0963 13.5331 32.0874 13.4389 31.083L13.4639 31.107C13.3928 30.2671 13.5059 29.4218 13.7952 28.6301C14.0846 27.8385 14.5434 27.1195 15.1394 26.5235C15.7354 25.9275 16.4544 25.4687 17.246 25.1793C18.0377 24.8899 18.883 24.7769 19.7229 24.848Z" fill="#555555"/>
<path d="M10.7869 22.172C11.2922 21.6638 11.6791 21.0502 11.9199 20.3752C12.1607 19.7002 12.2495 18.9803 12.1799 18.267L12.2049 18.291C12.1339 17.4509 12.2472 16.6054 12.5368 15.8135C12.8264 15.0217 13.2854 14.3027 13.8818 13.7066C14.4781 13.1106 15.1973 12.6519 15.9893 12.3627C16.7813 12.0734 17.6268 11.9606 18.4669 12.032L18.4409 12.008C19.4453 12.1021 20.4543 11.8842 21.3302 11.3839C22.2062 10.8835 22.9065 10.1252 23.3357 9.21226C23.7649 8.29931 23.902 7.27621 23.7283 6.28248C23.5547 5.28875 23.0788 4.37277 22.3655 3.65945C21.6521 2.94613 20.7362 2.4702 19.7424 2.29657C18.7487 2.12293 17.7256 2.26005 16.8127 2.68921C15.8997 3.11837 15.1414 3.81869 14.641 4.69466C14.1407 5.57063 13.9228 6.57961 14.0169 7.58399L13.9929 7.55999C14.0638 8.39976 13.9507 9.24489 13.6613 10.0364C13.3719 10.8279 12.9132 11.5467 12.3174 12.1427C11.7215 12.7387 11.0027 13.1974 10.2113 13.4869C9.41981 13.7765 8.5747 13.8898 7.73492 13.819L7.75892 13.843C6.9386 13.7697 6.11304 13.9045 5.35871 14.2351C4.60438 14.5657 3.94568 15.0814 3.44363 15.7342C2.94158 16.3871 2.61241 17.1561 2.48662 17.9701C2.36083 18.784 2.44248 19.6165 2.72401 20.3905C3.00554 21.1645 3.47785 21.8549 4.09718 22.3978C4.71651 22.9407 5.46284 23.3185 6.26702 23.4962C7.07121 23.674 7.90724 23.6459 8.69769 23.4146C9.48813 23.1833 10.2074 22.7562 10.7889 22.173L10.7869 22.172ZM52.0899 8.87299H56.0499V28.144H52.0899V8.87299ZM58.2919 21.545C58.2882 20.5098 58.5141 19.4867 58.9534 18.5494C59.3928 17.6121 60.0346 16.784 60.8326 16.1246C61.6306 15.4653 62.565 14.9912 63.5683 14.7366C64.5717 14.4819 65.6191 14.453 66.6349 14.652C68.3406 14.9868 69.8605 15.9446 70.8987 17.3387C71.9368 18.7329 72.4187 20.4636 72.2506 22.1937C72.0825 23.9237 71.2763 25.5293 69.9892 26.6975C68.7021 27.8657 67.0261 28.5129 65.2879 28.513C64.3686 28.5238 63.4563 28.3511 62.6044 28.0051C61.7526 27.6591 60.9783 27.1467 60.3269 26.4979C59.6755 25.8491 59.1599 25.0769 58.8105 24.2264C58.4611 23.376 58.2848 22.4644 58.2919 21.545ZM68.3239 21.545C68.3074 20.9479 68.1152 20.3689 67.7714 19.8805C67.4277 19.392 66.9475 19.0157 66.391 18.7987C65.8345 18.5816 65.2264 18.5334 64.6427 18.6601C64.059 18.7868 63.5255 19.0828 63.1091 19.511C62.6927 19.9392 62.4117 20.4807 62.3014 21.0678C62.191 21.6548 62.2562 22.2613 62.4887 22.8115C62.7212 23.3617 63.1107 23.8312 63.6086 24.1612C64.1065 24.4912 64.6906 24.6672 65.2879 24.667C65.6969 24.6777 66.1036 24.6035 66.4825 24.4493C66.8614 24.295 67.2042 24.064 67.4894 23.7707C67.7747 23.4774 67.996 23.1282 68.1397 22.7452C68.2833 22.3621 68.346 21.9535 68.3239 21.545ZM88.0669 14.945V27.48C88.0669 31.914 84.6069 33.789 81.0969 33.789C79.8609 33.8814 78.6232 33.6317 77.5197 33.0672C76.4161 32.5028 75.4894 31.6454 74.8409 30.589L78.2199 28.636C78.4927 29.1866 78.9271 29.6407 79.465 29.9377C80.0029 30.2348 80.6187 30.3604 81.2299 30.298C81.6206 30.3521 82.0184 30.3178 82.3939 30.1974C82.7694 30.077 83.1131 29.8737 83.3995 29.6025C83.6858 29.3313 83.9075 28.9992 84.0481 28.6308C84.1888 28.2623 84.2447 27.867 84.2119 27.474V26.268C83.7482 26.8354 83.1579 27.2862 82.4884 27.5842C81.8189 27.8823 81.0889 28.0192 80.3569 27.984C78.6134 27.9318 76.9587 27.2025 75.7438 25.9508C74.529 24.6991 73.8495 23.0233 73.8495 21.279C73.8495 19.5347 74.529 17.8589 75.7438 16.6072C76.9587 15.3554 78.6134 14.6262 80.3569 14.574C81.0889 14.539 81.8188 14.676 82.4883 14.974C83.1578 15.272 83.7481 15.7227 84.2119 16.29V14.944L88.0669 14.946V14.945ZM84.2129 21.28C84.2395 20.6418 84.0744 20.0103 83.739 19.4667C83.4036 18.9231 82.9132 18.4923 82.3309 18.2298C81.7486 17.9672 81.101 17.885 80.4716 17.9936C79.8421 18.1022 79.2596 18.3967 78.7989 18.8392C78.3383 19.2817 78.0206 19.8519 77.8867 20.4764C77.7529 21.101 77.809 21.7513 78.0479 22.3437C78.2868 22.9361 78.6975 23.4435 79.2271 23.8005C79.7568 24.1575 80.3812 24.3478 81.0199 24.347C81.4359 24.3758 81.8534 24.3172 82.2454 24.1749C82.6374 24.0327 82.9953 23.8099 83.296 23.521C83.5968 23.2322 83.8338 22.8835 83.9917 22.4976C84.1496 22.1116 84.2249 21.6968 84.2129 21.28ZM90.3099 21.545C90.3044 20.1601 90.71 18.8047 91.4754 17.6505C92.2408 16.4963 93.3315 15.5953 94.6094 15.0615C95.8873 14.5277 97.2949 14.3852 98.6539 14.6521C100.013 14.9189 101.262 15.5831 102.243 16.5605C103.224 17.5379 103.893 18.7845 104.165 20.1424C104.438 21.5003 104.301 22.9085 103.772 24.1884C103.243 25.4684 102.346 26.5626 101.195 27.3325C100.044 28.1023 98.6898 28.5132 97.3049 28.513C96.3856 28.5238 95.4733 28.3511 94.6214 28.0051C93.7696 27.6591 92.9953 27.1467 92.3439 26.4979C91.6924 25.8491 91.1769 25.0769 90.8275 24.2264C90.4781 23.376 90.3028 22.4644 90.3099 21.545ZM100.341 21.545C100.325 20.948 100.134 20.3689 99.7898 19.8805C99.446 19.3921 98.9656 19.0162 98.4089 18.8C97.9931 18.6381 97.5467 18.5698 97.1015 18.5999C96.6562 18.6301 96.2231 18.7581 95.833 18.9746C95.4428 19.1912 95.1052 19.4911 94.844 19.853C94.5829 20.2149 94.4048 20.6298 94.3223 21.0684C94.2397 21.5069 94.2549 21.9583 94.3666 22.3903C94.4783 22.8223 94.6839 23.2244 94.9686 23.568C95.2534 23.9116 95.6104 24.1882 96.0142 24.3781C96.418 24.5681 96.8587 24.6667 97.3049 24.667C97.7139 24.6778 98.1207 24.6038 98.4997 24.4496C98.8786 24.2954 99.2216 24.0643 99.5068 23.771C99.792 23.4777 100.013 23.1285 100.157 22.7454C100.301 22.3622 100.363 21.9535 100.341 21.545ZM106.148 11.408C106.148 10.9381 106.287 10.4787 106.548 10.088C106.809 9.69723 107.181 9.39269 107.615 9.21285C108.049 9.03302 108.527 8.98597 108.987 9.07765C109.448 9.16932 109.872 9.39562 110.204 9.72791C110.536 10.0602 110.763 10.4836 110.854 10.9445C110.946 11.4054 110.899 11.8831 110.719 12.3172C110.539 12.7514 110.235 13.1225 109.844 13.3836C109.453 13.6446 108.994 13.784 108.524 13.784C107.896 13.7777 107.295 13.5254 106.851 13.0812C106.407 12.6369 106.154 12.0362 106.148 11.408ZM106.548 14.945H110.509V28.145H106.543L106.548 14.945ZM127.608 21.545C127.654 22.4174 127.527 23.2904 127.234 24.1136C126.942 24.9367 126.489 25.6937 125.902 26.341C125.316 26.9886 124.607 27.5138 123.817 27.8866C123.027 28.2593 122.171 28.4722 121.299 28.513C120.565 28.553 119.832 28.4293 119.152 28.1508C118.472 27.8724 117.862 27.4461 117.367 26.903V33.424H113.407V14.945H117.367V16.185C117.862 15.6418 118.471 15.2156 119.152 14.9373C119.832 14.659 120.565 14.5356 121.299 14.576C122.172 14.6168 123.028 14.8298 123.818 15.2027C124.608 15.5756 125.317 16.1011 125.903 16.7488C126.489 17.3966 126.942 18.1539 127.234 18.9772C127.527 19.8005 127.654 20.6725 127.608 21.545ZM123.648 21.545C123.635 21.0834 123.522 20.6302 123.314 20.2175C123.107 19.8049 122.812 19.4429 122.449 19.1573C122.086 18.8718 121.664 18.6696 121.215 18.5651C120.765 18.4607 120.298 18.4565 119.846 18.553C119.242 18.6826 118.689 18.9878 118.258 19.4302C117.826 19.8727 117.535 20.4327 117.421 21.04C117.335 21.494 117.35 21.9614 117.465 22.4089C117.581 22.8563 117.793 23.2728 118.088 23.6286C118.383 23.9844 118.753 24.2707 119.171 24.4671C119.589 24.6636 120.046 24.7653 120.508 24.765C120.932 24.7836 121.355 24.7124 121.75 24.5561C122.145 24.3998 122.502 24.1618 122.799 23.8578C123.095 23.5539 123.324 23.1907 123.47 22.7921C123.617 22.3936 123.677 21.9686 123.648 21.545ZM139.828 24.184C139.828 27.22 137.189 28.514 134.339 28.514C133.187 28.618 132.031 28.3742 131.019 27.8141C130.007 27.254 129.186 26.4033 128.663 25.372L132.093 23.419C132.232 23.8956 132.53 24.3101 132.938 24.5935C133.345 24.8768 133.838 25.0118 134.333 24.976C135.283 24.976 135.759 24.686 135.759 24.159C135.759 22.705 129.264 23.472 129.264 18.905C129.264 16.027 131.693 14.575 134.439 14.575C135.471 14.542 136.493 14.7868 137.398 15.2837C138.303 15.7807 139.059 16.5115 139.585 17.4L136.207 19.221C136.059 18.8751 135.812 18.5806 135.498 18.3741C135.183 18.1676 134.815 18.0584 134.439 18.06C133.752 18.06 133.329 18.327 133.329 18.799C133.335 20.304 139.828 19.299 139.828 24.184ZM154.293 14.945V28.145H150.333V26.904C149.876 27.4514 149.296 27.8827 148.64 28.1626C147.984 28.4424 147.271 28.5629 146.56 28.514C143.893 28.514 141.627 26.614 141.627 23.048V14.945H145.587V22.468C145.553 22.7823 145.589 23.1002 145.692 23.399C145.846 23.8502 146.143 24.2383 146.539 24.5038C146.935 24.7692 147.407 24.8972 147.883 24.868C149.335 24.868 150.337 24.024 150.337 22.149V14.949L154.293 14.945ZM177 20.04V28.144H173.04V20.383C173.04 19.063 172.407 18.219 171.14 18.219C169.82 18.219 169.08 19.143 169.08 20.7V28.144H165.121V20.383C165.121 19.063 164.488 18.219 163.22 18.219C161.9 18.219 161.161 19.143 161.161 20.7V28.144H157.201V14.944H161.161V16.157C161.572 15.6193 162.111 15.193 162.729 14.9167C163.347 14.6404 164.024 14.523 164.699 14.575C165.376 14.5419 166.051 14.6849 166.657 14.99C167.263 15.2951 167.779 15.7519 168.156 16.316C168.595 15.7261 169.176 15.257 169.846 14.9526C170.515 14.6481 171.251 14.5182 171.984 14.575C175.015 14.576 177 16.74 177 20.04ZM180.349 14.864C180.735 14.864 181.117 14.788 181.474 14.6403C181.83 14.4926 182.154 14.2761 182.427 14.0032C182.7 13.7303 182.917 13.4063 183.064 13.0497C183.212 12.6931 183.288 12.3109 183.288 11.925C183.288 11.539 183.212 11.1569 183.064 10.8003C182.917 10.4437 182.7 10.1197 182.427 9.84681C182.154 9.57389 181.83 9.35741 181.474 9.20971C181.117 9.06201 180.735 8.98599 180.349 8.98599C179.569 8.98599 178.822 9.29564 178.271 9.84681C177.72 10.398 177.41 11.1455 177.41 11.925C177.41 12.7045 177.72 13.452 178.271 14.0032C178.822 14.5543 179.569 14.864 180.349 14.864Z" fill="#555555"/>
</g>
</g>
<defs>
<clipPath id="clip0_128_3247">
<rect width="186" height="40" fill="white"/>
</clipPath>
<clipPath id="clip1_128_3247">
<rect width="186" height="40" fill="white"/>
</clipPath>
</defs>
</svg>
