<svg width="64" height="64" viewBox="0 0 64 64" fill="none" xmlns="http://www.w3.org/2000/svg">
<circle cx="32" cy="32" r="32" fill="white"/>
<circle cx="32" cy="32" r="31.5" stroke="#E68138" stroke-opacity="0.2"/>
<circle cx="32" cy="32" r="28" fill="#E68138" fill-opacity="0.2"/>
<g clip-path="url(#clip0_65_2680)">
<path fill-rule="evenodd" clip-rule="evenodd" d="M18.6667 32H21.6296V42.3704C21.6296 43.1562 21.9417 43.9099 22.4974 44.4655C23.0531 45.0212 23.8067 45.3334 24.5925 45.3334H39.4074C40.1932 45.3334 40.9468 45.0212 41.5025 44.4655C42.0581 43.9099 42.3703 43.1562 42.3703 42.3704V32H42.3704H45.3334L32 18.6667L18.6667 32Z" fill="white"/>
<path d="M21.6296 32H22.6296C22.6296 31.4477 22.1819 31 21.6296 31V32ZM18.6667 32L17.9596 31.2929C17.6736 31.5789 17.588 32.009 17.7428 32.3827C17.8976 32.7564 18.2622 33 18.6667 33V32ZM22.4974 44.4655L21.7903 45.1726L21.7903 45.1726L22.4974 44.4655ZM41.5025 44.4655L42.2096 45.1726H42.2096L41.5025 44.4655ZM42.3703 32V31C41.818 31 41.3703 31.4477 41.3703 32H42.3703ZM45.3334 32V33C45.7378 33 46.1025 32.7564 46.2572 32.3827C46.412 32.009 46.3265 31.5789 46.0405 31.2929L45.3334 32ZM32 18.6667L32.7071 17.9596C32.3166 17.5691 31.6834 17.5691 31.2929 17.9596L32 18.6667ZM21.6296 32V31H18.6667V32V33H21.6296V32ZM21.6296 32H20.6296V42.3704H21.6296H22.6296V32H21.6296ZM21.6296 42.3704H20.6296C20.6296 43.4214 21.0471 44.4294 21.7903 45.1726L22.4974 44.4655L23.2045 43.7584C22.8364 43.3903 22.6296 42.891 22.6296 42.3704H21.6296ZM22.4974 44.4655L21.7903 45.1726C22.5335 45.9158 23.5415 46.3334 24.5925 46.3334V45.3334V44.3334C24.0719 44.3334 23.5726 44.1265 23.2045 43.7584L22.4974 44.4655ZM24.5925 45.3334V46.3334H39.4074V45.3334V44.3334H24.5925V45.3334ZM39.4074 45.3334V46.3334C40.4584 46.3334 41.4664 45.9158 42.2096 45.1726L41.5025 44.4655L40.7954 43.7584C40.4272 44.1265 39.928 44.3334 39.4074 44.3334V45.3334ZM41.5025 44.4655L42.2096 45.1726C42.9528 44.4294 43.3703 43.4214 43.3703 42.3704H42.3703H41.3703C41.3703 42.891 41.1635 43.3903 40.7954 43.7584L41.5025 44.4655ZM42.3703 42.3704H43.3703V32H42.3703H41.3703V42.3704H42.3703ZM42.3704 32V31H42.3703V32V33H42.3704V32ZM45.3334 32V31H42.3704V32V33H45.3334V32ZM32 18.6667L31.2929 19.3738L44.6262 32.7071L45.3334 32L46.0405 31.2929L32.7071 17.9596L32 18.6667ZM18.6667 32L19.3738 32.7071L32.7071 19.3738L32 18.6667L31.2929 17.9596L17.9596 31.2929L18.6667 32Z" fill="white"/>
<path d="M28 34.0002L30.6667 36.6668L36 31.3335" stroke="#E68138" stroke-width="2" stroke-linecap="round" stroke-linejoin="round"/>
</g>
<path d="M40 40H64V52C64 58.6274 58.6274 64 52 64C45.3726 64 40 58.6274 40 52V40Z" fill="#E68138"/>
<path d="M56.36 46.78L52.6933 45.4067C52.3133 45.2667 51.6933 45.2667 51.3133 45.4067L47.6466 46.78C46.94 47.0467 46.3666 47.8734 46.3666 48.6267V54.0267C46.3666 54.5667 46.72 55.28 47.1533 55.6L50.82 58.34C51.4666 58.8267 52.5266 58.8267 53.1733 58.34L56.84 55.6C57.2733 55.2734 57.6266 54.5667 57.6266 54.0267V48.6267C57.6333 47.8734 57.06 47.0467 56.36 46.78ZM52.5 52.58V54.3334C52.5 54.6067 52.2733 54.8334 52 54.8334C51.7266 54.8334 51.5 54.6067 51.5 54.3334V52.58C50.8266 52.3667 50.3333 51.74 50.3333 51C50.3333 50.08 51.08 49.3334 52 49.3334C52.92 49.3334 53.6666 50.08 53.6666 51C53.6666 51.7467 53.1733 52.3667 52.5 52.58Z" fill="white"/>
<defs>
<clipPath id="clip0_65_2680">
<rect width="32" height="32" fill="white" transform="translate(16 16)"/>
</clipPath>
</defs>
</svg>
