<svg width="148" height="75" viewBox="0 0 148 75" fill="none" xmlns="http://www.w3.org/2000/svg">
<g clip-path="url(#clip0_65_2821)">
<g clip-path="url(#clip1_65_2821)">
<path d="M11.4649 15.9842C10.5579 13.6753 10.9517 11.0206 11.7871 8.78792C12.6661 6.43849 14.1967 4.0955 16.4843 2.85986C16.5978 5.3357 15.8427 7.7818 15.0177 9.98751C14.2757 11.9714 13.3654 14.085 11.8621 15.7258C11.6311 16.969 11.4541 18.2088 11.3296 19.4428C11.8278 18.1391 12.6357 16.9508 13.6438 15.9953C14.9416 14.765 16.8721 13.8156 18.6844 14.377C18.1536 16.3836 16.9437 18.307 15.5108 19.6563C14.3829 20.7183 12.8941 22.0792 11.1404 22.1327C11.0682 23.9488 11.109 25.7482 11.2582 27.5233C11.5056 26.2243 12.0357 25.0011 12.8016 24.0902C13.8538 22.8385 15.4138 21.3093 17.4062 21.5652C17.2974 23.596 16.4887 25.6767 15.3624 27.2403C14.4675 28.4828 13.286 30.0663 11.609 30.4754C11.8775 32.2195 12.2515 33.9348 12.7261 35.6131C12.7306 34.328 13.014 33.0666 13.5762 32.0549C14.3685 30.6283 15.6026 28.8491 17.5972 28.71C17.8896 30.7023 17.4934 32.8803 16.6943 34.6126C16.0555 35.9972 15.204 37.7629 13.6517 38.4935C14.3036 40.2993 15.0749 42.0545 15.9593 43.7488C15.6488 42.2885 15.6612 40.7497 16.0287 39.3652C16.5351 37.4565 17.7921 35.4515 19.8102 34.8697C20.5236 36.9769 20.4252 39.3286 20.0108 41.4704C19.6697 43.2338 18.9996 45.305 17.4974 46.4505C18.4795 48.0379 19.5659 49.5614 20.7507 51.011C20.1141 49.5893 19.7978 48.0345 19.9675 46.611C20.2148 44.5372 20.7965 42.3188 22.9113 41.2131C24.1111 43.2866 24.389 45.6127 24.4909 47.9102C24.5733 49.7676 24.3062 52.0585 23.0184 53.5696C24.435 55.0449 25.9635 56.4257 27.5962 57.6989C26.5422 56.3446 25.8041 54.7553 25.6477 53.1836C25.427 50.9631 25.535 48.5185 27.5024 46.889C29.185 48.6492 30.189 51.2416 30.6811 53.4932C31.1163 55.484 31.5705 57.8403 30.5345 59.7995C32.6123 61.158 34.8304 62.3549 37.1755 63.3684C35.5253 62.1906 34.1745 60.5745 33.5309 58.9061C32.6876 56.7189 32.166 54.1128 33.8088 51.9224C36.0097 53.3345 37.6274 55.7437 38.9018 57.941C39.9954 59.8264 41.1273 62.4286 40.5657 64.6741C41.8641 65.1154 43.1961 65.5029 44.5599 65.8335L44.4788 66.1689C43.1099 65.837 41.7727 65.4482 40.469 65.0056C39.5556 67.7092 36.5635 68.6024 34.1437 68.9967C30.6958 69.5586 26.5904 68.4699 23.6469 66.277C25.2005 64.0778 28.3702 63.8547 30.7604 63.6864L30.7915 63.6843C33.4099 63.5 36.2419 63.7462 38.875 64.4314C35.8331 63.2716 32.9869 61.8133 30.3623 60.0989L30.3236 60.1601C28.8855 62.496 25.9979 62.5871 23.7314 62.4394C20.6559 62.2389 17.1051 60.3658 15.0501 57.7765C16.9831 56.0777 19.8382 56.5532 22.0504 56.9216L22.0611 56.9233C24.5302 57.3344 27.2283 58.2313 29.493 59.6122C29.2773 59.442 29.0662 59.262 28.861 59.0732C26.6591 57.5007 24.6279 55.7417 22.7846 53.8238C22.7632 53.8453 22.7415 53.8666 22.7197 53.8878C20.9275 55.6937 18.3172 55.2208 16.2801 54.6331C13.5541 53.8466 10.727 51.4738 9.37216 48.7499C11.4716 47.5716 13.9817 48.5426 15.9341 49.3106C18.0769 50.1536 20.3441 51.502 22.0874 53.221C21.9077 52.9939 21.7362 52.7567 21.5742 52.5111C19.9538 50.6794 18.4962 48.7179 17.2148 46.6486L17.1505 46.6889C15.123 47.9995 12.8259 47.0504 11.0052 46.1171C8.53672 44.8517 6.55303 42.0707 5.69589 39.3357C7.88572 38.6332 10.0493 40.0121 11.7312 41.1042C13.5707 42.2985 15.434 44.0019 16.713 45.9553C16.619 45.7629 16.5315 45.5661 16.4509 45.3656C15.222 43.2181 14.178 40.9636 13.3328 38.6249L13.2893 38.6398L13.2857 38.6411C11.4422 39.343 9.38929 38.2517 8.0509 37.0548C6.1907 35.3915 4.87957 32.8343 4.57221 30.336C6.49422 30.0866 8.30501 31.576 9.54305 32.8464C10.9681 34.3086 12.2471 36.0367 13.0334 37.9561C12.9761 37.7476 12.9268 37.5358 12.8854 37.3219C12.1699 35.1242 11.6278 32.8577 11.2705 30.5406L11.2426 30.544L11.2332 30.5456C9.28422 30.8715 7.48227 29.3873 6.4057 27.9469C4.89528 25.9257 4.11665 23.1283 4.31181 20.5928C6.25323 20.7288 7.73154 22.5787 8.69018 24.0752C9.79973 25.8076 10.7198 27.7682 11.1229 29.8193C11.1106 29.6562 11.1033 29.492 11.1007 29.3274C10.8048 26.9691 10.6993 24.5625 10.7958 22.1261L10.7902 22.1259C8.80868 22.0544 7.34422 20.2116 6.58815 18.577C5.5063 16.2378 5.33213 13.2811 6.05422 10.7893C7.94282 11.3202 8.9957 13.4902 9.61714 15.1605C10.3337 17.0864 10.8338 19.1869 10.8378 21.2752C10.9408 19.5232 11.1484 17.7573 11.4649 15.9842Z" fill="white"/>
<path d="M50.4926 11.6619V20.0269C50.4926 23.706 47.166 25.4762 42.1241 25.4762C37.4113 25.4762 34.0327 23.7235 34.0327 19.593V11.6619H38.7282V19.593C38.7282 21.0682 39.9929 21.9879 42.3146 21.9879C44.5325 21.9879 45.8493 21.0334 45.8493 19.6103V11.6619H50.4926Z" fill="white"/>
<path d="M66.1307 21.6582V25.2853H53.1533V11.6619H57.8488V21.6582H66.1307Z" fill="white"/>
<path d="M80.0849 15.0808V11.6619H63.8501V15.0808H69.5851V25.2853H74.3326V15.0808H80.0849Z" fill="white"/>
<path fill-rule="evenodd" clip-rule="evenodd" d="M96.7395 13.0504C97.3634 13.6924 97.6589 14.5776 97.6589 15.8096C97.6589 16.8684 97.3991 17.7708 96.9651 18.3781C96.4797 19.0376 95.7345 19.593 94.8165 19.7319L98.9238 25.2853H93.7601L90.3809 20.478H86.1711V25.2853H81.5449V11.6619H92.3739C94.5224 11.6619 95.9258 12.1825 96.7395 13.0504ZM92.9977 16.9552C93.1191 16.7468 93.1533 16.4691 93.1533 16.2436C93.1533 15.9832 93.1191 15.7055 92.9977 15.5321C92.755 15.0808 92.2697 14.9594 91.5416 14.9594H86.1884V17.4411H91.6286C92.3739 17.4411 92.825 17.3022 92.9977 16.9552Z" fill="white"/>
<path fill-rule="evenodd" clip-rule="evenodd" d="M105.174 22.769H112.521L113.716 25.2853H118.724L111.863 11.6619H106.266L99.0068 25.2853H103.909L105.174 22.769ZM111.047 19.7144H106.699L108.415 16.4345L108.935 15.1849L109.42 16.4171L111.047 19.7144Z" fill="white"/>
<path fill-rule="evenodd" clip-rule="evenodd" d="M96.2442 27.8511C93.3376 27.8511 91.8086 29.231 91.8086 31.2587C91.8086 33.5473 93.4132 34.7083 96.2442 34.7083C99.3607 34.7083 100.671 33.3621 100.671 31.2587C100.671 29.1216 99.1923 27.8511 96.2442 27.8511ZM96.2442 33.0172C94.5896 33.0172 94.1099 32.3357 94.1099 31.284C94.1099 30.2491 94.631 29.5676 96.2357 29.5676C97.9916 29.5676 98.3857 30.3332 98.3857 31.284C98.3857 32.2937 97.9074 33.0172 96.2442 33.0172Z" fill="white"/>
<path d="M87.5007 34.6074V30.695H83.1159V32.1169H85.4595C85.4428 32.2263 85.3587 32.4367 85.2495 32.5628C85.006 32.8489 84.3591 33.1013 83.5191 33.1013C82.6455 33.1013 82.0828 32.8741 81.7804 32.5208C81.5788 32.2599 81.4612 31.8897 81.4612 31.3345C81.4612 30.7539 81.5788 30.3585 81.8055 30.0977C82.1331 29.7275 82.6875 29.5676 83.5024 29.5676C84.2332 29.5676 84.7371 29.7358 84.9724 29.9461C85.1236 30.0724 85.2411 30.2491 85.2663 30.3668H87.4419C87.4336 30.1565 87.3664 29.82 87.2487 29.576C86.7279 28.5159 85.5183 27.8848 83.4604 27.8848C81.6712 27.8848 80.47 28.4316 79.8064 29.2563C79.3696 29.82 79.168 30.5267 79.168 31.3176C79.168 32.1927 79.4031 32.9415 79.7896 33.4379C80.4447 34.2878 81.6123 34.7083 83.0151 34.7083C84.25 34.7083 85.0983 34.4139 85.636 33.968L85.6948 34.6074H87.5007Z" fill="white"/>
<path d="M64.6188 30.6109C66.324 30.7959 67.0548 31.4018 67.0548 32.5545C67.0548 33.9511 65.6939 34.7083 63.0143 34.7083C60.5195 34.7083 59.4444 34.0016 59.0327 33.0761C58.9403 32.8574 58.8983 32.5881 58.873 32.4198H61.2923C61.3091 32.5207 61.368 32.6722 61.4519 32.7731C61.6535 33.0172 62.2163 33.1602 63.1739 33.1602C64.4088 33.1602 64.7027 32.9835 64.7027 32.6554C64.7027 32.302 64.4004 32.2263 63.2831 32.1085C62.838 32.0664 62.1323 31.9991 61.8384 31.9739C59.7048 31.7803 58.9152 31.1157 58.9152 29.9798C58.9152 28.8018 60.3095 27.9017 62.8547 27.9017C65.1143 27.9017 66.1643 28.5748 66.6012 29.4161C66.7355 29.6685 66.8195 29.9545 66.8448 30.1564H64.4255C64.4171 30.0639 64.3835 29.9714 64.2912 29.8536C64.1063 29.6096 63.6359 29.4498 62.7959 29.4498C61.6115 29.4498 61.3007 29.5927 61.3007 29.8956C61.3007 30.2322 61.6956 30.308 63.0143 30.451C63.5267 30.4931 64.3416 30.5771 64.6188 30.6109Z" fill="white"/>
<path fill-rule="evenodd" clip-rule="evenodd" d="M40.5024 28.5663C40.9476 28.9197 41.1995 29.5171 41.1995 30.3837C41.1995 31.0905 41.0232 31.6204 40.6872 31.9906C40.2336 32.5123 39.4859 32.748 38.5116 32.7564C38.2091 32.7648 35.6219 32.7564 35.6219 32.7564V34.6073H33.3623V28.0026H38.4779C39.3852 28.0026 40.074 28.1877 40.5024 28.5663ZM38.8308 30.8969C38.8979 30.7792 38.9316 30.6276 38.9316 30.4173C38.9316 30.1986 38.8895 30.0134 38.814 29.9125C38.6712 29.7021 38.4024 29.6012 37.9655 29.6012H35.6051V31.2166H37.9487C38.4191 31.2166 38.6963 31.1072 38.8308 30.8969Z" fill="white"/>
<path fill-rule="evenodd" clip-rule="evenodd" d="M49.4655 28.6757C49.768 28.987 49.9107 29.4161 49.9107 30.0134C49.9107 30.5267 49.7847 30.9642 49.5747 31.2587C49.3395 31.5784 48.9783 31.8477 48.5331 31.915L50.5239 34.6073H48.0207L46.3826 32.2768H44.3414V34.6073H42.0986V28.0026H47.3487C48.3903 28.0026 49.0707 28.255 49.4655 28.6757ZM47.6511 30.5688C47.7099 30.4679 47.7266 30.3332 47.7266 30.2238C47.7266 30.0977 47.7099 29.963 47.6511 29.8789C47.5335 29.6601 47.2983 29.6012 46.9456 29.6012H44.3499V30.8044H46.9875C47.3487 30.8044 47.5671 30.737 47.6511 30.5688Z" fill="white"/>
<path d="M58.1919 34.6073V32.9667H53.4628V32.1085H57.9988V30.5015H53.4628V29.6517H58.1331V28.0026H51.2451V34.6073H58.1919Z" fill="white"/>
<path d="M75.2287 29.6601V28.0026H67.3579V29.6601H70.1382V34.6073H72.4398V29.6601H75.2287Z" fill="white"/>
<path d="M78.2554 28.0026V34.6073H75.9453V28.0026H78.2554Z" fill="white"/>
<path d="M90.8964 28.0026V34.6073H88.5859V28.0026H90.8964Z" fill="white"/>
<path d="M109.584 28.0026V32.058C109.584 33.8417 107.971 34.7 105.527 34.7C103.242 34.7 101.604 33.8502 101.604 31.8477V28.0026H103.881V31.8477C103.881 32.5628 104.493 33.0088 105.619 33.0088C106.694 33.0088 107.333 32.546 107.333 31.8561V28.0026H109.584Z" fill="white"/>
<path d="M118.652 32.5545C118.652 31.4018 117.921 30.7959 116.217 30.6109C115.939 30.5771 115.125 30.4931 114.612 30.451C113.293 30.308 112.898 30.2322 112.898 29.8956C112.898 29.5927 113.209 29.4498 114.394 29.4498C115.233 29.4498 115.704 29.6096 115.889 29.8536C115.981 29.9714 116.014 30.0639 116.023 30.1564H118.443C118.417 29.9545 118.333 29.6685 118.198 29.4161C117.762 28.5748 116.712 27.9017 114.452 27.9017C111.907 27.9017 110.512 28.8018 110.512 29.9798C110.512 31.1157 111.303 31.7803 113.436 31.9739L113.573 31.9861L113.801 32.007L114.881 32.1085C115.998 32.2263 116.3 32.302 116.3 32.6554C116.3 32.9835 116.007 33.1602 114.772 33.1602C113.814 33.1602 113.252 33.0172 113.049 32.7731C112.966 32.6722 112.906 32.5207 112.891 32.4198H110.471C110.496 32.5881 110.538 32.8574 110.631 33.0761C111.042 34.0016 112.117 34.7083 114.612 34.7083C117.292 34.7083 118.652 33.9511 118.652 32.5545Z" fill="white"/>
<path fill-rule="evenodd" clip-rule="evenodd" d="M59.9123 37.1364C58.0234 37.1364 57.0298 38.0333 57.0298 39.3511C57.0298 40.8384 58.0725 41.593 59.9123 41.593C61.9378 41.593 62.7894 40.7182 62.7894 39.3511C62.7894 37.9622 61.8286 37.1364 59.9123 37.1364ZM59.9123 40.4939C58.8369 40.4939 58.5257 40.0509 58.5257 39.3674C58.5257 38.6949 58.8641 38.2519 59.9069 38.2519C61.0478 38.2519 61.3045 38.7495 61.3045 39.3674C61.3045 40.0236 60.9933 40.4939 59.9123 40.4939Z" fill="white"/>
<path d="M49.4078 40.1931C49.4078 39.4439 48.9328 39.0501 47.8246 38.9298C47.6444 38.908 47.1149 38.8533 46.7818 38.826C45.9247 38.7329 45.6681 38.6837 45.6681 38.4651C45.6681 38.2682 45.8701 38.1753 46.6399 38.1753C47.1858 38.1753 47.4915 38.2791 47.6117 38.4376C47.6717 38.5143 47.6935 38.5744 47.6991 38.6346H49.2713C49.2549 38.5033 49.2004 38.3174 49.113 38.1534C48.829 37.6066 48.1466 37.1691 46.678 37.1691C45.024 37.1691 44.1177 37.7541 44.1177 38.5197C44.1177 39.258 44.6308 39.69 46.0175 39.8157C46.2086 39.8322 46.6672 39.8759 46.9566 39.9032C47.6827 39.9797 47.8791 40.0291 47.8791 40.2587C47.8791 40.4719 47.6881 40.5867 46.8856 40.5867C46.2632 40.5867 45.8974 40.4938 45.7664 40.3352C45.7118 40.2696 45.6736 40.1712 45.6627 40.1056H44.0903C44.1067 40.215 44.134 40.3898 44.1941 40.5321C44.4617 41.1336 45.1605 41.5929 46.7818 41.5929C48.5234 41.5929 49.4078 41.1008 49.4078 40.1931Z" fill="white"/>
<path fill-rule="evenodd" clip-rule="evenodd" d="M38.5073 40.3133C38.5073 40.6086 38.4254 40.8984 38.2616 41.0897C38.0105 41.396 37.541 41.5272 36.9351 41.5272H33.1299V37.2346H36.8313C37.4209 37.2346 37.7976 37.3768 38.0051 37.59C38.1907 37.7759 38.2726 38.022 38.2726 38.3009C38.2726 38.5799 38.2071 38.8095 38.0652 38.979C37.9504 39.1213 37.754 39.2305 37.5465 39.258C37.8522 39.2961 38.1416 39.4493 38.3053 39.6625C38.4418 39.8211 38.5073 40.0617 38.5073 40.3133ZM36.6675 38.8095C36.7221 38.7493 36.7549 38.6618 36.7549 38.558C36.7549 38.454 36.7221 38.3665 36.6511 38.3065C36.5747 38.2352 36.4327 38.2079 36.2253 38.2079H34.5602V38.9079H36.2635C36.4491 38.9079 36.5912 38.8806 36.6675 38.8095ZM36.4218 40.5539C36.6784 40.5539 36.8313 40.521 36.9187 40.4391C36.9732 40.3843 36.995 40.3024 36.995 40.1984C36.995 40.0891 36.9678 40.0071 36.9022 39.9415C36.8204 39.8704 36.6784 39.8375 36.4383 39.8375H34.5602V40.5539H36.4218Z" fill="white"/>
<path d="M43.6477 40.461V41.5272H39.1328V37.2346H43.6094V38.3065H40.574V38.8587H43.522V39.9032H40.574V40.461H43.6477Z" fill="white"/>
<path d="M54.7203 37.2346V38.3119H52.9078V41.5272H51.4121V38.3119H49.605V37.2346H54.7203Z" fill="white"/>
<path d="M67.7851 37.2346V38.3228H64.8753V38.9298H67.6486V40.0071H64.8753V41.5272H63.4067V37.2346H67.7851Z" fill="white"/>
<path d="M75.1817 38.3119V37.2346H70.0664V38.3119H71.8735V41.5272H73.3694V38.3119H75.1817Z" fill="white"/>
<path d="M80.763 37.2346V41.5272H79.2998V39.9688H77.1051V41.5272H75.6421V37.2346H77.1051V38.7985H79.2998V37.2346H80.763Z" fill="white"/>
<path d="M86.1443 41.5272V40.461H83.0706V39.9032H86.0186V38.8587H83.0706V38.3065H86.106V37.2346H81.6294V41.5272H86.1443Z" fill="white"/>
<path d="M95.1951 37.2346H96.6084L95.0423 41.5272H93.4377C93.4377 41.5272 92.5797 38.9627 92.574 38.8915C92.5697 38.9627 91.706 41.5272 91.706 41.5272H90.107L88.502 37.2346H90.0899C90.0899 37.2346 91.0193 39.9359 91.0193 40.0015C91.0193 39.9359 91.8759 37.2346 91.8759 37.2346H93.4106C93.4106 37.2346 94.2728 39.9359 94.2728 40.0015C94.2728 39.9359 95.1951 37.2346 95.1951 37.2346Z" fill="white"/>
<path fill-rule="evenodd" clip-rule="evenodd" d="M99.4122 37.1364C97.5234 37.1364 96.5298 38.0333 96.5298 39.3511C96.5298 40.8384 97.572 41.593 99.4122 41.593C101.438 41.593 102.289 40.7182 102.289 39.3511C102.289 37.9622 101.328 37.1364 99.4122 37.1364ZM99.4122 40.4939C98.3372 40.4939 98.0259 40.0509 98.0259 39.3674C98.0259 38.6949 98.3643 38.2519 99.4064 38.2519C100.549 38.2519 100.804 38.7495 100.804 39.3674C100.804 40.0236 100.493 40.4939 99.4122 40.4939Z" fill="white"/>
<path fill-rule="evenodd" clip-rule="evenodd" d="M107.695 37.6721C107.891 37.8745 107.984 38.1533 107.984 38.5415C107.984 38.8752 107.902 39.1594 107.765 39.3509C107.613 39.5587 107.379 39.7337 107.089 39.7773L108.382 41.5272H106.756L105.691 40.0125H104.365V41.5272H102.907V37.2346H106.319C106.996 37.2346 107.438 37.3987 107.695 37.6721ZM106.516 38.9025C106.553 38.8368 106.565 38.7493 106.565 38.6782C106.565 38.5962 106.553 38.5088 106.516 38.454C106.439 38.3119 106.286 38.2736 106.057 38.2736H104.371V39.0556H106.084C106.319 39.0556 106.461 39.0119 106.516 38.9025Z" fill="white"/>
<path d="M112.94 41.5272V40.3843H110.331V37.2346H108.852V41.5272H112.94Z" fill="white"/>
<path fill-rule="evenodd" clip-rule="evenodd" d="M118.729 39.3016C118.729 39.9688 118.664 40.3297 118.468 40.6688C118.173 41.21 117.589 41.5272 116.557 41.5272H113.521V37.2346H116.524C117.55 37.2346 118.157 37.5244 118.457 38.022C118.669 38.3556 118.729 38.711 118.729 39.3016ZM116.278 40.4718C116.742 40.4718 117.005 40.3625 117.163 40.1219C117.262 39.9742 117.289 39.6297 117.289 39.329C117.283 39.0556 117.25 38.7658 117.163 38.6345C116.993 38.3775 116.738 38.2846 116.29 38.2846H114.985V40.4718H116.278Z" fill="white"/>
<path d="M60.1669 62.4042H57.9047C57.9047 62.4042 56.4285 66.7263 56.4285 66.8313C56.4285 66.7263 55.0484 62.4042 55.0484 62.4042H52.5939C52.5939 62.4042 51.2226 66.7263 51.2226 66.8313C51.2226 66.7263 49.7377 62.4042 49.7377 62.4042H47.1958L49.7638 69.2722H52.3231C52.3231 69.2722 53.7032 65.1689 53.7119 65.0552C53.7208 65.1689 55.092 69.2722 55.092 69.2722H57.66L60.1669 62.4042Z" fill="white"/>
<path d="M63.2625 69.2722V62.4042H60.8604V69.2722H63.2625Z" fill="white"/>
<path d="M72.6055 62.4042V69.2722H70.2645L66.8668 65.4489V69.2722H64.6133V62.4042H67.0764L70.3693 66.1402V62.4042H72.6055Z" fill="white"/>
<path d="M81.963 69.2722V62.4042H79.7269V66.1402L76.4339 62.4042H73.9707V69.2722H76.2242V65.4489L79.6221 69.2722H81.963Z" fill="white"/>
<path d="M90.5525 67.5661V69.2722H83.3281V62.4042H90.4911V64.119H85.6342V65.0028H90.3512V66.6738H85.6342V67.5661H90.5525Z" fill="white"/>
<path fill-rule="evenodd" clip-rule="evenodd" d="M99.7853 64.4953C99.7853 63.8741 99.6368 63.4279 99.3227 63.1042C98.9116 62.6668 98.2049 62.4042 97.1213 62.4042H91.6621V69.2722H93.9948V66.8487H96.1177L97.8209 69.2722H100.423L98.3534 66.4726C98.8159 66.4026 99.1914 66.1226 99.4369 65.7901C99.6539 65.4839 99.7853 65.0289 99.7853 64.4953ZM97.5139 64.7141C97.5139 64.8277 97.4968 64.9677 97.4354 65.0727C97.3483 65.2477 97.1213 65.3176 96.7459 65.3176H94.0034V64.0666H96.7016C97.0685 64.0666 97.3141 64.1278 97.4354 64.3553C97.4968 64.4428 97.5139 64.5828 97.5139 64.7141Z" fill="white"/>
<path d="M53.1926 50.2873L52.2453 47.3671L51.298 50.2873H48.2324L50.7125 52.0921L49.7653 55.0124L52.2453 53.2076L54.7253 55.0124L53.778 52.0921L56.2581 50.2873H53.1926Z" fill="white"/>
<path d="M63.1811 47.3652L64.1478 50.2855H67.2758L64.7452 52.0904L65.7119 55.0105L63.1811 53.2058L60.6505 55.0105L61.6172 52.0904L59.0864 50.2855H62.2145L63.1811 47.3652Z" fill="white"/>
<path d="M74.9969 50.2855L74.0304 47.3652L73.0638 50.2855H69.9355L72.4663 52.0904L71.4997 55.0105L74.0304 53.2058L76.561 55.0105L75.5944 52.0904L78.1251 50.2855H74.9969Z" fill="white"/>
<path d="M84.8804 47.3652L85.847 50.2855H88.9751L86.4445 52.0904L87.4111 55.0105L84.8804 53.2058L82.3497 55.0105L83.3164 52.0904L80.7856 50.2855H83.9139L84.8804 47.3652Z" fill="white"/>
<path d="M96.7642 50.2855L95.8163 47.3652L94.8683 50.2855H91.8032L94.283 52.0904L93.3365 55.0105L95.8163 53.2058L98.296 55.0105L97.3495 52.0904L99.8293 50.2855H96.7642Z" fill="white"/>
<path d="M136.535 16.0474C137.441 13.7388 137.047 11.0838 136.212 8.85105C135.333 6.50176 133.802 4.15848 131.515 2.92285C131.401 5.39883 132.156 7.84478 132.981 10.0505C133.724 12.0342 134.633 14.1477 136.136 15.7883C136.368 17.0313 136.545 18.2707 136.669 19.5045C136.171 18.2014 135.364 17.0137 134.356 16.0585C133.058 14.828 131.127 13.8788 129.315 14.4402C129.846 16.4465 131.055 18.3701 132.489 19.7194C133.617 20.7815 135.106 22.1422 136.859 22.1959C136.931 24.012 136.89 25.8117 136.74 27.5868C136.493 26.2878 135.964 25.0646 135.197 24.1538C134.145 22.902 132.584 21.3729 130.593 21.6287C130.701 23.6596 131.511 25.7403 132.637 27.3038C133.531 28.5463 134.713 30.13 136.39 30.5391C136.122 32.283 135.748 33.9979 135.273 35.6761C135.268 34.3911 134.986 33.1298 134.423 32.1181C133.631 30.6915 132.396 28.9122 130.402 28.7731C130.109 30.7655 130.506 32.9435 131.305 34.6757C131.943 36.0603 132.796 37.8261 134.347 38.5566C133.695 40.3627 132.924 42.1184 132.039 43.8127C132.35 42.3522 132.337 40.8131 131.97 39.4282C131.464 37.5195 130.207 35.5144 128.189 34.9327C127.475 37.0402 127.573 39.3916 127.989 41.5334C128.33 43.297 129 45.3681 130.501 46.5137C129.519 48.1019 128.433 49.6261 127.246 51.0764C127.885 49.6541 128.2 48.0985 128.03 46.6744C127.783 44.6004 127.202 42.3821 125.088 41.2767C123.887 43.3501 123.609 45.6763 123.508 47.9738C123.425 49.8313 123.692 52.1224 124.981 53.6336C123.563 55.1084 122.036 56.4888 120.404 57.7617C121.457 56.4074 122.196 54.8183 122.351 53.2468C122.572 51.0262 122.465 48.5818 120.497 46.9521C118.815 48.7124 117.81 51.3047 117.319 53.5564C116.883 55.547 116.429 57.9034 117.464 59.8626C115.387 61.2214 113.169 62.4184 110.823 63.4323C112.473 62.2543 113.824 60.638 114.468 58.9692C115.312 56.7822 115.833 54.176 114.191 51.9855C111.989 53.3976 110.372 55.8067 109.097 58.0041C108.004 59.8897 106.871 62.4921 107.434 64.7375C106.135 65.1788 104.803 65.5663 103.439 65.8969L103.521 66.2323C104.888 65.9004 106.226 65.5116 107.53 65.069C108.443 67.7725 111.436 68.6659 113.855 69.0602C117.303 69.622 121.409 68.5335 124.353 66.3404C122.798 64.1412 119.629 63.9182 117.239 63.7499L117.207 63.7477C114.589 63.5634 111.757 63.8096 109.124 64.495C112.165 63.3352 115.012 61.8766 117.637 60.1621L117.673 60.2193C119.11 62.559 122 62.6505 124.267 62.5026C127.344 62.3022 130.894 60.429 132.948 57.8398C131.015 56.1413 128.162 56.6165 125.949 56.9847L125.937 56.9867C123.469 57.3977 120.772 58.2941 118.508 59.6746C118.724 59.5046 118.933 59.3248 119.139 59.1362C121.34 57.564 123.37 55.8053 125.214 53.8877C125.239 53.9133 125.265 53.9384 125.291 53.9635C127.084 55.7554 129.686 55.2826 131.719 54.6962C134.446 53.9097 137.273 51.537 138.627 48.813C136.527 47.6347 134.018 48.6055 132.066 49.3737C129.92 50.2174 127.652 51.5674 125.907 53.2887C126.087 53.0613 126.26 52.8236 126.423 52.5777C128.043 50.7449 129.502 48.7823 130.784 46.7117L130.84 46.7462L130.854 46.7552C132.88 48.061 135.176 47.1128 136.994 46.1802C139.463 44.9148 141.447 42.1338 142.304 39.3989C140.114 38.6963 137.951 40.0752 136.269 41.1673C134.427 42.3623 132.563 44.0668 131.284 46.0217C131.378 45.8288 131.467 45.6315 131.548 45.4306C132.777 43.2824 133.821 41.0273 134.666 38.688L134.71 38.7029L134.717 38.7058C136.56 39.4046 138.612 38.314 139.949 37.1179C141.808 35.4546 143.12 32.8974 143.427 30.3991C141.506 30.1497 139.694 31.6392 138.456 32.9094C137.031 34.3726 135.751 36.1018 134.964 38.0228C135.023 37.8132 135.073 37.6003 135.114 37.3851C135.829 35.1875 136.372 32.9211 136.729 30.6043L136.783 30.6115C138.725 30.9263 140.521 29.4465 141.594 28.0101C143.105 25.9888 143.883 23.1914 143.687 20.6558C141.747 20.7919 140.268 22.6417 139.31 24.1383C138.199 25.8716 137.278 27.8333 136.876 29.8858C136.889 29.7216 136.896 29.5566 136.899 29.391C137.194 27.0326 137.3 24.6258 137.203 22.1894C139.186 22.1198 140.655 20.2757 141.411 18.6404C142.492 16.3014 142.666 13.3445 141.945 10.8528C140.057 11.3838 139.003 13.5534 138.382 15.2238C137.665 17.1497 137.166 19.2504 137.161 21.3387C137.059 19.5867 136.85 17.8207 136.535 16.0474Z" fill="white"/>
</g>
</g>
<defs>
<clipPath id="clip0_65_2821">
<rect width="148" height="75" fill="white"/>
</clipPath>
<clipPath id="clip1_65_2821">
<rect width="148" height="75" fill="white"/>
</clipPath>
</defs>
</svg>
