<svg width="151" height="73" viewBox="0 0 151 73" fill="none" xmlns="http://www.w3.org/2000/svg">
<g clip-path="url(#clip0_65_2773)">
<g clip-path="url(#clip1_65_2773)">
<g clip-path="url(#clip2_65_2773)">
<path d="M136.79 5.12852C138.202 7.24012 139.559 9.84502 138.892 12.6366C136.59 11.3193 134.739 9.16849 133.271 7.0452C131.793 4.90765 130.258 2.63465 129.732 0C132.635 0.742541 135.234 2.80378 136.79 5.12852Z" fill="white"/>
<path d="M11.9996 12.6321C11.3344 9.84003 12.6933 7.23615 14.1088 5.12575C15.6669 2.80239 18.2667 0.743042 21.1702 0.00256348C20.6427 2.63669 19.1053 4.90884 17.6256 7.04502C16.1558 9.16727 14.302 11.3167 11.9996 12.6321Z" fill="white"/>
<path d="M9.9733 17.9895C10.4926 15.7782 10.4811 13.3573 9.98671 11.2832C9.55197 9.46039 8.91938 6.88363 6.83734 6.01416C5.32394 8.44172 4.71559 11.7475 5.59761 14.2246C6.23535 16.0163 7.38226 18.3852 9.76083 18.7519C11.9434 19.255 14.1504 18.0908 15.8935 17.1295C17.8317 16.0608 19.7301 14.3605 20.8836 12.3392C18.7677 11.2712 16.358 12.1379 14.5451 12.9685C12.591 13.8639 10.7958 15.7851 9.9733 17.9895Z" fill="white"/>
<path d="M52.3319 20.1144V9.01196H48.5415V13.057H42.8559V9.01196H39.0654V20.1144H42.8559V16.0837H48.5415V20.1144H52.3319Z" fill="white"/>
<path d="M64.9006 9.01196H69.0869L63.1469 16.4512V20.1142H59.3425V16.4653L53.4731 9.01196H57.7866L61.2942 13.4528L64.9006 9.01196Z" fill="white"/>
<path fill-rule="evenodd" clip-rule="evenodd" d="M82.2879 9.95887C83.0376 10.553 83.4618 11.5572 83.4618 13.0139C83.4618 14.2019 83.1648 15.0929 82.599 15.7153C81.8353 16.5922 80.5766 16.9881 78.936 17.0024C78.4268 17.0165 74.0706 17.0024 74.0706 17.0024V20.1138H70.2661V9.01135H78.8794C80.4068 9.01135 81.5666 9.32249 82.2879 9.95887ZM79.4733 13.8767C79.5866 13.6787 79.6432 13.4241 79.6432 13.0705C79.6432 12.7028 79.5724 12.3916 79.4451 12.222C79.2047 11.8684 78.752 11.6985 78.0166 11.6985H74.0425V14.414H77.9883C78.7804 14.414 79.2471 14.2303 79.4733 13.8767Z" fill="white"/>
<path d="M96.6709 17.3556V20.1133H84.9761V9.01196H96.573V11.7838H88.7094V13.2121H96.3461V15.9131H88.7094V17.3556H96.6709Z" fill="white"/>
<path fill-rule="evenodd" clip-rule="evenodd" d="M110.873 10.1434C111.384 10.6667 111.623 11.388 111.623 12.3922C111.623 13.255 111.411 13.9904 111.057 14.4855C110.662 15.0228 110.053 15.4755 109.304 15.5886L112.656 20.1144H108.441L105.684 16.1968H102.247V20.1144H98.4707V9.01196H107.31C109.063 9.01196 110.21 9.43622 110.873 10.1434ZM107.819 13.3257C107.918 13.156 107.946 12.9296 107.946 12.7458C107.946 12.5337 107.918 12.3073 107.819 12.1658C107.621 11.7981 107.226 11.6991 106.631 11.6991H102.261V13.7217H106.701C107.31 13.7217 107.678 13.6086 107.819 13.3257Z" fill="white"/>
<path d="M94.6469 34.0387C94.6469 31.5009 93.0347 30.1672 89.2742 29.7596C88.6629 29.6855 86.8661 29.5002 85.736 29.4075C82.8276 29.0926 81.9571 28.926 81.9571 28.185C81.9571 27.5182 82.6425 27.2033 85.2543 27.2033C87.1069 27.2033 88.1443 27.5551 88.5517 28.0923C88.7556 28.3517 88.8297 28.5554 88.8482 28.7593H94.1833C94.1276 28.3146 93.9425 27.6848 93.6459 27.1292C92.6828 25.2766 90.3671 23.7947 85.3841 23.7947C79.7711 23.7947 76.6962 25.7768 76.6962 28.3703C76.6962 30.8711 78.4373 32.3345 83.1426 32.7606C83.6746 32.8061 84.8172 32.9141 85.7527 33.0024L85.8104 33.008L85.8209 33.009L85.825 33.0093L86.3289 33.0569C88.7925 33.3163 89.4595 33.4829 89.4595 34.2611C89.4595 34.9834 88.8111 35.3724 86.088 35.3724C83.9763 35.3724 82.7351 35.0575 82.2904 34.5203C82.1053 34.2981 81.9755 33.9646 81.9386 33.7423H76.6035C76.659 34.1127 76.7517 34.7056 76.9554 35.1873C77.8632 37.225 80.2344 38.781 85.736 38.781C91.6454 38.781 94.6469 37.1138 94.6469 34.0387Z" fill="white"/>
<path fill-rule="evenodd" clip-rule="evenodd" d="M56.8256 37.0772C57.3814 36.4288 57.6592 35.4469 57.6592 34.4466C57.6592 33.5945 57.4369 32.7794 56.9738 32.2422C56.4181 31.5197 55.4362 31.0011 54.3989 30.8715C55.1029 30.7788 55.7697 30.4084 56.1587 29.9267C56.6403 29.3524 56.8626 28.5744 56.8626 27.6296C56.8626 26.6849 56.5848 25.8513 55.955 25.2215C55.251 24.499 53.9728 24.0173 51.9722 24.0173H39.4126V38.5591H52.3241C54.3804 38.5591 55.9735 38.1144 56.8256 37.0772ZM51.7128 28.5003C51.7128 28.8523 51.6016 29.1487 51.4165 29.3524C51.1571 29.5932 50.6754 29.6859 50.0456 29.6859H44.266V27.3147H49.916C50.6199 27.3147 51.1016 27.4074 51.3608 27.6482C51.6016 27.8519 51.7128 28.1482 51.7128 28.5003ZM52.2686 34.8728C51.9722 35.1506 51.4534 35.2618 50.5828 35.2618H44.266V32.8351H50.6385C51.4534 32.8351 51.9351 32.9461 52.2129 33.1869C52.4353 33.4092 52.5278 33.6872 52.5278 34.0576C52.5278 34.4097 52.4537 34.6875 52.2686 34.8728Z" fill="white"/>
<path d="M75.1024 34.9469V38.5591H59.7827V24.0173H74.9727V27.6482H64.6731V29.5191H74.6764V33.0573H64.6731V34.9469H75.1024Z" fill="white"/>
<path d="M112.673 27.6668V24.0173H95.3164V27.6668H101.448V38.5591H106.523V27.6668H112.673Z" fill="white"/>
<path d="M112.233 51.4266H111.417L111.358 50.6404C111.109 51.0383 110.581 51.516 109.467 51.516C107.585 51.516 106.71 50.3815 106.71 47.4851C106.71 45.2458 107.267 43.4445 109.565 43.4445C111.558 43.4445 112.164 44.7484 112.194 46.1516H111.198C111.169 45.236 110.76 44.39 109.586 44.39C108.173 44.39 107.764 45.236 107.764 47.5152C107.764 49.8939 108.273 50.6404 109.607 50.6404C110.542 50.6404 111.088 50.1229 111.269 49.5058V48.0228H109.258V47.1169H112.223V49.4063C112.223 50.0902 112.23 50.8202 112.231 51.1872L112.233 51.3618V51.4266Z" fill="white"/>
<path fill-rule="evenodd" clip-rule="evenodd" d="M39.5994 49.4455H42.3861L42.9633 51.4262H44.0184L41.7093 43.5437H40.4255L37.957 51.4262H39.0021L39.5994 49.4455ZM42.1373 48.5598H39.868C39.868 48.5598 40.8533 45.375 40.8732 45.3053C40.8832 45.2555 41.0425 44.5489 41.0425 44.5489L41.1527 45.0716L41.2017 45.3053C41.2117 45.355 42.1373 48.5598 42.1373 48.5598Z" fill="white"/>
<path d="M51.5738 43.5437H52.5293L50.6681 51.4262H49.4837C49.4837 51.4262 48.16 45.2954 48.16 45.0365C48.15 45.2954 46.7964 51.4262 46.7964 51.4262H45.6121L43.751 43.5437H44.8258C44.8258 43.5437 46.2689 49.784 46.2689 50.0329C46.2689 49.784 47.5928 43.5437 47.5928 43.5437H48.777C48.777 43.5437 50.1007 49.7939 50.1007 50.0329C50.1007 49.7939 51.5738 43.5437 51.5738 43.5437Z" fill="white"/>
<path fill-rule="evenodd" clip-rule="evenodd" d="M56.6179 49.4455H53.8311L53.234 51.4262H52.189L54.6572 43.5437H55.9412L58.2503 51.4262H57.1953L56.6179 49.4455ZM54.1 48.5598H56.3692C56.3692 48.5598 55.4436 45.355 55.4336 45.3053L55.3583 44.9466L55.2743 44.5489C55.2743 44.5489 55.1151 45.2555 55.1052 45.3053C55.0852 45.375 54.1 48.5598 54.1 48.5598Z" fill="white"/>
<path fill-rule="evenodd" clip-rule="evenodd" d="M62.0865 43.5437C63.3007 43.5437 63.9576 44.1109 63.9576 45.7631C63.9576 47.1665 63.4301 47.6342 62.8827 47.7934L64.3956 51.4262H63.3007L61.8974 47.9926H59.9866V51.4262H58.9912V43.5437H62.0865ZM61.9373 47.0967C62.7235 47.0967 62.9126 46.6887 62.9126 45.793C62.9126 44.7778 62.614 44.4693 61.8875 44.4693H59.9964V47.0967H61.9373Z" fill="white"/>
<path fill-rule="evenodd" clip-rule="evenodd" d="M70.5841 47.3556C70.5841 49.2167 70.4449 49.973 70.0468 50.5404C69.6487 51.0879 69.0217 51.4262 68.0063 51.4262H65.2993V43.5437H67.9367C68.9321 43.5437 69.7083 43.8423 70.0667 44.3797C70.4648 44.9569 70.5841 45.6735 70.5841 47.3556ZM67.7975 50.4906C68.4046 50.4906 68.9122 50.3314 69.1708 49.983C69.4496 49.6049 69.5292 48.8384 69.5292 47.3556C69.5292 46.1115 69.4594 45.4446 69.1708 45.0166C68.9022 44.6484 68.3846 44.4891 67.7776 44.4891H66.3045V50.4906H67.7975Z" fill="white"/>
<path d="M81.0845 43.5437H82.04L80.1789 51.4262H78.9944C78.9944 51.4262 77.6707 45.2954 77.6707 45.0365C77.6608 45.2954 76.3072 51.4262 76.3072 51.4262H75.1229L73.2617 43.5437H74.3365C74.3365 43.5437 75.7797 49.784 75.7797 50.0329C75.7797 49.784 77.1033 43.5437 77.1033 43.5437H78.2878C78.2878 43.5437 79.6115 49.7939 79.6115 50.0329C79.6115 49.7939 81.0845 43.5437 81.0845 43.5437Z" fill="white"/>
<path d="M83.8012 43.5437V51.4262H82.7661V43.5437H83.8012Z" fill="white"/>
<path d="M90.281 43.5437V51.4262H89.1365L86.2003 45.3151V51.4262H85.2349V43.5437H86.4393L89.3056 49.565V43.5437H90.281Z" fill="white"/>
<path d="M96.7363 43.5437V51.4262H95.5915L92.6559 45.3151V51.4262H91.6904V43.5437H92.8948L95.7617 49.565V43.5437H96.7363Z" fill="white"/>
<path d="M99.1788 43.5437V51.4262H98.144V43.5437H99.1788Z" fill="white"/>
<path d="M105.658 43.5437V51.4262H104.514L101.578 45.3151V51.4262H100.612V43.5437H101.817L104.684 49.565V43.5437H105.658Z" fill="white"/>
<path d="M50.8062 66.9642L49.6658 63.454L48.5252 66.9642H44.8345L47.8203 69.1337L46.6798 72.644L49.6658 70.4744L52.6518 72.644L51.5112 69.1337L54.4971 66.9642H50.8062Z" fill="white"/>
<path d="M63.9966 66.9648L62.8328 63.4546L61.669 66.9648H57.9028L60.9498 69.1342L59.786 72.6444L62.8328 70.475L65.8798 72.6444L64.716 69.1342L67.7628 66.9648H63.9966Z" fill="white"/>
<path d="M77.0611 66.9656L75.8973 63.4553L74.7334 66.9656H70.9673L74.0141 69.1349L72.8503 72.6451L75.8973 70.4758L78.9441 72.6451L77.7803 69.1349L80.8273 66.9656H77.0611Z" fill="white"/>
<path d="M90.1251 66.9648L88.9612 63.4546L87.7974 66.9648H84.0312L87.0781 69.1342L85.9142 72.6444L88.9612 70.475L92.0081 72.6444L90.8442 69.1342L93.8912 66.9648H90.1251Z" fill="white"/>
<path d="M103.269 66.9656L102.13 63.4553L100.988 66.9656H97.2979L100.283 69.1349L99.1439 72.6451L102.13 70.4758L105.115 72.6451L103.974 69.1349L106.961 66.9656H103.269Z" fill="white"/>
<path d="M3.25223 23.9573C4.32557 25.5948 5.98646 27.6459 8.40817 27.5875C10.6104 27.6975 12.5129 26.1946 14.0112 24.9402C15.6248 23.5893 17.0813 21.6136 17.6962 19.4778C15.4438 18.8225 13.2874 20.0365 11.6792 21.1815C9.99996 22.3774 8.70848 24.566 8.43103 26.8132C8.41023 24.5619 7.80085 22.2366 6.81845 20.3634C5.92028 18.651 4.66868 16.3362 2.43571 15.8734C1.55593 18.538 1.83664 21.7983 3.25223 23.9573Z" fill="white"/>
<path d="M9.1246 36.4068C6.87701 36.7834 4.68462 35.4063 3.26078 33.7865C1.42764 31.7011 0.336941 28.9034 0.559378 26.1027C2.86833 26.1613 4.61706 28.1572 5.90957 29.6665C7.3016 31.292 8.44215 33.4305 8.98931 35.6367C8.74865 33.4381 9.48679 31.064 10.857 29.597C12.1796 28.1809 14.0323 26.6376 16.3375 26.8853C16.2878 29.1147 15.1703 31.2387 14.0177 32.8294C12.9433 34.3119 11.2883 36.1455 9.1246 36.4068Z" fill="white"/>
<path d="M4.97321 43.8145C7.04322 45.1622 9.55381 46.4961 12.1923 45.4865C14.3568 44.7207 15.7331 42.5419 16.5795 40.542C17.4761 38.423 18.075 35.9797 17.6604 33.6604C15.2818 33.8715 13.3095 35.5733 12.2619 37.6507C11.1667 39.8225 10.9567 42.4075 11.798 44.6845C10.5549 42.342 8.73712 40.4466 6.8115 38.6953C5.06106 37.1034 2.53964 35.4263 0 35.7418C0.483208 38.8815 2.3992 42.1388 4.97321 43.8145Z" fill="white"/>
<path d="M17.5237 53.9749C19.5607 52.7572 20.3805 50.1949 20.7155 47.9992C21.0767 45.6313 21.0612 43.0198 20.0778 40.7734C17.7145 41.4335 16.0923 43.5606 15.5567 45.8904C14.9908 48.3518 15.4683 50.9751 16.8449 53.0709C15.015 50.9715 12.5818 49.2381 10.25 48.0226C7.99758 46.8485 5.2343 45.4324 2.5293 46.2876C3.83367 49.471 6.62393 52.4349 9.7164 53.6609C12.1113 54.6101 15.0248 55.5488 17.5237 53.9749Z" fill="white"/>
<path d="M27.181 54.7989C27.4799 57.0844 27.4715 59.9833 25.697 61.7425C23.4795 64.0122 20.0478 63.5742 17.401 63.0748C13.8475 62.4039 9.8475 59.9804 7.70361 56.7533C10.3219 55.3117 13.5242 56.2339 16.1164 56.9804L16.2644 57.0229C19.1579 57.8554 22.2414 59.1962 24.8202 61.0282C22.7622 59.1687 21.2628 56.4393 21.1894 53.6883C21.1234 51.2277 22.1914 48.5953 24.4896 47.4225C26.0941 49.5284 26.8454 52.2321 27.181 54.7989Z" fill="white"/>
<path d="M37.4795 68.214C38.7863 65.7265 37.4916 62.807 36.4598 60.6492C35.2401 58.0982 33.5735 55.4985 31.1885 53.6313C28.8983 55.6051 29.1161 58.4291 29.797 60.8835C30.6066 63.8017 33.4135 66.2894 36.3201 67.707C32.9538 66.4517 29.2775 65.6983 25.7798 65.4758L25.4255 65.453C22.6155 65.2699 18.9574 65.0317 16.7183 67.0881C20.1038 69.9661 24.9125 71.6266 29.1508 71.5403C31.9911 71.4826 35.8879 71.1465 37.4795 68.214Z" fill="white"/>
<path d="M140.914 17.9974C140.094 15.7914 138.299 13.8679 136.347 12.9707C134.533 12.1388 132.125 11.2705 130.009 12.3366C131.161 14.3588 133.057 16.0605 134.994 17.1307C136.735 18.093 138.941 19.2588 141.124 18.7577C143.503 18.3933 144.653 16.0249 145.292 14.2332C146.178 11.7573 145.573 8.45083 144.062 6.02173C141.978 6.88999 141.342 9.46607 140.907 11.2887C140.41 13.3634 140.397 15.7851 140.914 17.9974Z" fill="white"/>
<path d="M139.205 21.1854C140.883 22.3818 142.17 24.5693 142.447 26.815C142.471 24.5648 143.083 22.2417 144.066 20.3705C144.966 18.6585 146.22 16.3448 148.453 15.8835C149.33 18.549 149.046 21.8091 147.628 23.9669C146.556 25.6015 144.895 27.6483 142.478 27.5935C140.273 27.7061 138.368 26.1996 136.869 24.9426C135.257 23.5903 133.802 21.6136 133.19 19.4774C135.442 18.8235 137.598 20.0392 139.205 21.1854Z" fill="white"/>
<path d="M141.878 35.6507C142.124 33.4502 141.389 31.0711 140.017 29.6012C138.697 28.1841 136.845 26.6394 134.54 26.8854C134.586 29.1147 135.702 31.2397 136.854 32.8314C137.926 34.314 139.578 36.1476 141.741 36.4118C143.989 36.7926 146.184 35.4162 147.611 33.7966C149.445 31.7126 150.539 28.9158 150.32 26.1147C148.01 26.1718 146.26 28.1662 144.966 29.6744C143.57 31.3009 142.427 33.4419 141.878 35.6507Z" fill="white"/>
<path d="M138.606 37.6548C139.699 39.8278 139.907 42.4133 139.063 44.6896C140.308 42.3475 142.128 40.4533 144.055 38.7032C145.807 37.1125 148.33 35.4377 150.869 35.7548C150.384 38.8944 148.464 42.1503 145.889 43.8239C143.82 45.1682 141.312 46.4994 138.676 45.4939C136.509 44.7295 135.132 42.5462 134.286 40.5429C133.391 38.4232 132.794 35.9795 133.212 33.6604C135.589 33.8734 137.561 35.5767 138.606 37.6548Z" fill="white"/>
<path d="M134.011 53.0667C135.386 50.973 135.865 48.3522 135.303 45.892C134.77 43.5617 133.149 41.4334 130.786 40.7716C129.801 43.017 129.784 45.6283 130.141 47.9967C130.475 50.1881 131.289 52.7452 133.314 53.9674C135.816 55.5537 138.736 54.6155 141.134 53.6666C144.228 52.4429 147.022 49.481 148.328 46.2983C145.624 45.4414 142.86 46.8555 140.606 48.0278C138.275 49.2409 135.841 50.9707 134.011 53.0667Z" fill="white"/>
<path d="M123.67 54.792C123.369 57.0771 123.374 59.9757 125.148 61.7365C127.362 64.0079 130.795 63.5723 133.442 63.0747C136.997 62.4065 140.999 59.9855 143.146 56.7604C140.529 55.317 137.325 56.2365 134.733 56.981L134.584 57.0236C131.691 57.8535 128.607 59.1916 126.027 61.0209C128.086 59.1629 129.586 56.4357 129.662 53.6857C129.731 51.2254 128.665 48.5921 126.369 47.4174C124.761 49.5221 124.008 52.2255 123.67 54.792Z" fill="white"/>
<path d="M121.683 71.532C118.843 71.472 114.946 71.1332 113.358 68.1993L113.335 68.1591C112.067 65.6791 113.356 62.7806 114.384 60.6355C115.606 58.0854 117.275 55.4869 119.661 53.6218C121.951 55.5971 121.729 58.421 121.047 60.8746C120.234 63.7924 117.425 66.2784 114.516 67.6936C117.884 66.4408 121.561 65.6901 125.059 65.4701L125.415 65.4474C128.225 65.2666 131.883 65.0314 134.119 67.089C130.731 69.9642 125.922 71.6214 121.683 71.532Z" fill="white"/>
</g>
</g>
</g>
<defs>
<clipPath id="clip0_65_2773">
<rect width="151" height="73" fill="white"/>
</clipPath>
<clipPath id="clip1_65_2773">
<rect width="151" height="73" fill="white"/>
</clipPath>
<clipPath id="clip2_65_2773">
<rect width="151" height="73" fill="white"/>
</clipPath>
</defs>
</svg>
